<svg xmlns="http://www.w3.org/2000/svg" width="139" height="123" viewBox="0 0 139 123" fill="none">
  <g clip-path="url(#clip0_497_15210)">
    <path d="M117.292 59.2233C116.526 62.3576 113.754 66.2438 111.127 69.1015C107.922 72.5903 104.273 75.585 100.409 78.3137C92.2805 84.0557 83.255 88.8427 74.2961 92.8472C70.9397 94.3481 67.5523 95.8302 64.1106 97.1123C62.0222 97.8867 60.9485 97.578 59.4121 96.0026C57.7522 94.2994 56.1547 92.5282 54.5479 90.7725C47.2362 82.7626 40.1919 74.5319 34.3694 65.3648C29.1286 57.1219 25.8149 47.4989 28.3861 38.3344C30.1154 32.1753 35.4316 26.2103 41.3509 23.99C48.2448 21.4048 54.6323 21.743 60.8597 25.5702C64.1063 27.5698 66.7565 31.0058 69.2117 34.4738C71.2349 37.339 74.2786 38.9932 77.8303 38.6454C80.7229 38.3589 82.7634 36.3768 85.2223 35.0824C88.4949 33.3571 93.3624 32.5636 96.5472 32.9007C101.251 33.3956 104.596 34.6785 108.442 37.4479C111.067 39.3414 114.261 43.0947 115.655 46.1745C117.59 50.457 118.033 54.8046 117.292 59.2233C116.119 66.2127 126.895 68.7107 128.073 61.6753C129.905 50.7588 126.781 39.9411 118.963 32.0156C112.094 25.0508 101.902 21.0667 92.1149 21.9029C86.7782 22.361 81.5468 24.11 77.0713 27.0751C76.8839 27.2026 76.7034 27.3258 76.516 27.4533C75.5329 28.0099 75.8278 28.1063 77.4048 27.7493C79.1123 28.2374 78.6553 29.0603 78.175 27.948C77.6334 26.6927 76.5072 25.4803 75.6575 24.4189C73.8342 22.1447 71.8767 20.0219 69.559 18.2453C61.5308 12.0961 51.5907 9.91754 41.7391 12.2759C32.6068 14.4635 24.505 20.9154 20.1964 29.2331C15.0272 39.2204 15.4962 51.1119 19.7729 61.3235C24.7702 73.2418 33.3999 83.4521 41.8327 93.0838C45.4836 97.2519 49.1581 102.194 53.5436 105.608C59.0948 109.933 65.105 108.654 71.057 106.212C82.3723 101.571 93.5405 96.2092 103.74 89.4308C113.574 82.8975 125.128 73.7757 128.079 61.6766C129.768 54.7636 118.981 52.3103 117.292 59.2233Z" fill="#FCDC3E"/>
    <path d="M122.686 60.4502C122.658 60.6021 122.622 60.7583 122.577 60.9063C116.257 81.1088 79.3477 97.1286 65.375 102.544C62.1202 103.804 58.4297 102.983 56.0251 100.453C49.3365 93.4179 36.0339 78.8129 30.2252 69.121C1.86652 27.0646 53.5864 -2.25798 73.8926 31.5379C74.9486 33.2915 77.2643 33.736 78.9119 32.5269C98.4611 18.196 127.17 35.5011 122.686 60.4502Z" fill="#73308A"/>
    <mask id="mask0_497_15210" style="mask-type:luminance" maskUnits="userSpaceOnUse" x="21" y="16" width="103" height="88">
      <path d="M122.684 60.4502C122.656 60.6021 122.62 60.7583 122.575 60.9063C116.255 81.1088 79.3457 97.1286 65.373 102.544C62.1183 103.804 58.4277 102.983 56.0231 100.453C49.3345 93.4179 36.0319 78.8129 30.2232 69.121C1.86457 27.0646 53.5845 -2.25798 73.8907 31.5379C74.9466 33.2915 77.2623 33.736 78.91 32.5269C98.4592 18.196 127.168 35.5011 122.684 60.4502Z" fill="white"/>
    </mask>
    <g mask="url(#mask0_497_15210)">
      <path d="M23.2664 18.8274L29.5666 2.73266L32.5896 3.42019L24.7124 23.1217L19.8042 22.0054L21.2227 0.834961L24.5413 1.58973L23.2664 18.8274Z" fill="#FF5C35"/>
      <path d="M35.4493 13.1277L39.9671 14.1552L39.3037 17.0722L34.7859 16.0447L33.4248 22.0294L39.1082 23.322L38.4448 26.239L29.4706 24.198L34.1172 3.76758L43.0914 5.80862L42.428 8.72565L36.7445 7.43303L35.4493 13.1277Z" fill="#FF5C35"/>
      <path d="M45.127 6.27148L48.4177 7.01991L44.4345 24.5333L49.8503 25.765L49.1869 28.682L40.4804 26.7019L45.127 6.27148Z" fill="#FF5C35"/>
      <path d="M53.8844 13.4201C54.6278 10.1517 56.8152 8.68405 60.0502 9.41979C63.2851 10.1555 64.6227 12.4248 63.8793 15.6933L61.4628 26.3184C60.7194 29.5868 58.532 31.0544 55.297 30.3187C52.0621 29.5829 50.7246 27.3136 51.4679 24.0452L53.8844 13.4201ZM54.7117 25C54.3794 26.4613 54.9119 27.1632 55.9605 27.4017C57.0091 27.6401 57.7928 27.2376 58.1251 25.7763L60.6343 14.744C60.9666 13.2827 60.434 12.5809 59.3855 12.3424C58.3369 12.1039 57.5532 12.5064 57.2208 13.9677L54.7117 25Z" fill="#FF5C35"/>
      <path d="M68.2605 29.0608L74.5607 12.9661L77.5837 13.6536L69.7065 33.3551L64.7983 32.2388L66.2168 11.0684L69.5354 11.8231L68.2605 29.0608Z" fill="#FF5C35"/>
      <path d="M80.4435 23.3611L84.9612 24.3886L84.2978 27.3056L79.78 26.2781L78.4189 32.2627L84.1024 33.5554L83.439 36.4724L74.4648 34.4314L79.1113 14.001L88.0855 16.042L87.4221 18.959L81.7386 17.6664L80.4435 23.3611Z" fill="#FF5C35"/>
      <path d="M90.1211 16.5049L93.4118 17.2533L89.4287 34.7667L94.8444 35.9984L94.181 38.9154L85.4745 36.9353L90.1211 16.5049Z" fill="#FF5C35"/>
      <path d="M98.8786 23.6525C99.6219 20.3841 101.809 18.9165 105.044 19.6522C108.279 20.388 109.617 22.6573 108.873 25.9257L106.457 36.5508C105.714 39.8192 103.526 41.2868 100.291 40.5511C97.0562 39.8154 95.7187 37.5461 96.4621 34.2776L98.8786 23.6525ZM99.7058 35.2324C99.3735 36.6937 99.906 37.3956 100.955 37.6341C102.003 37.8726 102.787 37.4701 103.119 36.0088L105.628 24.9765C105.961 23.5152 105.428 22.8133 104.38 22.5748C103.331 22.3363 102.547 22.7388 102.215 24.2001L99.7058 35.2324Z" fill="#FF5C35"/>
      <path d="M113.255 39.2932L119.555 23.1985L122.578 23.886L114.701 43.5875L109.792 42.4712L111.211 21.3008L114.53 22.0555L113.255 39.2932Z" fill="#FF5C35"/>
      <path d="M125.438 33.5945L129.955 34.622L129.292 37.539L124.774 36.5115L123.413 42.4961L129.097 43.7888L128.433 46.7058L119.459 44.6648L124.105 24.2344L133.08 26.2754L132.416 29.1924L126.733 27.8998L125.438 33.5945Z" fill="#FF5C35"/>
      <path d="M17.6343 43.5918L23.9345 27.497L26.9575 28.1846L19.0803 47.886L14.1721 46.7698L15.5918 25.5938L18.9104 26.3485L17.6343 43.5918Z" fill="#FF5C35"/>
      <path d="M29.8185 37.8865L34.3362 38.9139L33.6728 41.831L29.155 40.8035L27.7939 46.7881L33.4774 48.0808L32.814 50.9978L23.8398 48.9568L28.4863 28.5264L37.4605 30.5674L36.7971 33.4844L31.1136 32.1918L29.8185 37.8865Z" fill="#FF5C35"/>
      <path d="M39.4961 31.0303L42.7868 31.7787L38.8037 49.292L44.2194 50.5238L43.556 53.4408L34.8495 51.4607L39.4961 31.0303Z" fill="#FF5C35"/>
      <path d="M48.2536 38.1779C48.9969 34.9095 51.1844 33.4419 54.4193 34.1776C57.6543 34.9133 58.9918 37.1827 58.2485 40.4511L55.8319 51.0762C55.0886 54.3446 52.9011 55.8122 49.6662 55.0765C46.4312 54.3408 45.0937 52.0714 45.8371 48.803L48.2536 38.1779ZM49.0808 49.7578C48.7485 51.2191 49.2811 51.921 50.3296 52.1595C51.3782 52.3979 52.1619 51.9955 52.4943 50.5342L55.0034 39.5019C55.3357 38.0406 54.8032 37.3387 53.7546 37.1002C52.706 36.8617 51.9223 37.2642 51.59 38.7255L49.0808 49.7578Z" fill="#FF5C35"/>
      <path d="M62.6284 53.8242L68.9286 37.7294L71.9516 38.417L64.0744 58.1185L59.1662 57.0022L60.5859 35.8262L63.9045 36.5809L62.6284 53.8242Z" fill="#FF5C35"/>
      <path d="M74.8126 48.1198L79.3304 49.1473L78.6669 52.0644L74.1492 51.0369L72.7881 57.0215L78.4715 58.3142L77.8081 61.2312L68.8339 59.1902L73.4805 38.7598L82.4547 40.8008L81.7912 43.7178L76.1078 42.4252L74.8126 48.1198Z" fill="#FF5C35"/>
      <path d="M84.4902 41.2637L87.781 42.0121L83.7978 59.5254L89.2136 60.7572L88.5501 63.6742L79.8437 61.6941L84.4902 41.2637Z" fill="#FF5C35"/>
      <path d="M93.2477 48.4113C93.9911 45.1429 96.1785 43.6753 99.4135 44.411C102.648 45.1467 103.986 47.4161 103.243 50.6845L100.826 61.3096C100.083 64.578 97.8953 66.0456 94.6603 65.3099C91.4254 64.5742 90.0878 62.3048 90.8312 59.0364L93.2477 48.4113ZM94.075 59.9912C93.7426 61.4525 94.2752 62.1544 95.3238 62.3929C96.3723 62.6313 97.1561 62.2289 97.4884 60.7676L99.9975 49.7353C100.33 48.274 99.7973 47.5721 98.7487 47.3336C97.7002 47.0951 96.9165 47.4976 96.5841 48.9589L94.075 59.9912Z" fill="#FF5C35"/>
      <path d="M107.622 64.0579L113.922 47.9631L116.945 48.6507L109.068 68.3522L104.16 67.2359L105.578 46.0654L108.897 46.8202L107.622 64.0579Z" fill="#FF5C35"/>
      <path d="M119.805 58.3523L124.323 59.3798L123.659 62.2968L119.141 61.2693L117.78 67.254L123.464 68.5466L122.8 71.4636L113.826 69.4226L118.473 48.9922L127.447 51.0332L126.783 53.9503L121.1 52.6576L119.805 58.3523Z" fill="#FF5C35"/>
      <path d="M24.1876 62.6452L28.7054 63.6727L28.0419 66.5898L23.5242 65.5623L22.1618 71.5525L27.8453 72.8451L27.1818 75.7622L18.2076 73.7211L22.8555 53.2852L31.8297 55.3262L31.1662 58.2432L25.4828 56.9506L24.1876 62.6452Z" fill="#FF5C35"/>
      <path d="M33.8652 55.7891L37.156 56.5375L33.1716 74.0564L38.5873 75.2881L37.9239 78.2052L29.2174 76.225L33.8652 55.7891Z" fill="#FF5C35"/>
      <path d="M42.6227 62.9425C43.3661 59.6741 45.5535 58.2065 48.7885 58.9423C52.0234 59.678 53.3609 61.9473 52.6176 65.2157L50.2011 75.8409C49.4577 79.1093 47.2703 80.5769 44.0353 79.8411C40.8004 79.1054 39.4628 76.8361 40.2062 73.5677L42.6227 62.9425ZM43.4513 74.5169C43.1189 75.9782 43.6515 76.6801 44.7 76.9185C45.7486 77.157 46.5323 76.7545 46.8647 75.2932L49.3738 64.2609C49.7062 62.7996 49.1736 62.0978 48.125 61.8593C47.0765 61.6208 46.2927 62.0233 45.9604 63.4846L43.4513 74.5169Z" fill="#FF5C35"/>
      <path d="M56.9969 78.5833L63.2971 62.4885L66.3201 63.1761L58.4429 82.8775L53.5347 81.7613L54.9531 60.5908L58.2717 61.3456L56.9969 78.5833Z" fill="#FF5C35"/>
      <path d="M69.1817 72.8777L73.6995 73.9052L73.0361 76.8222L68.5183 75.7947L67.1559 81.7849L72.8394 83.0775L72.176 85.9946L63.2018 83.9535L67.8496 63.5176L76.8238 65.5586L76.1604 68.4757L70.4769 67.183L69.1817 72.8777Z" fill="#FF5C35"/>
      <path d="M78.8594 66.0215L82.1501 66.7699L78.1657 84.2888L83.5814 85.5206L82.918 88.4376L74.2115 86.4574L78.8594 66.0215Z" fill="#FF5C35"/>
      <path d="M87.6149 73.175C88.3583 69.9065 90.5457 68.4389 93.7806 69.1747C97.0156 69.9104 98.3531 72.1797 97.6098 75.4481L95.1933 86.0733C94.4499 89.3417 92.2625 90.8093 89.0275 90.0736C85.7926 89.3378 84.455 87.0685 85.1984 83.8001L87.6149 73.175ZM88.4434 84.7493C88.1111 86.2106 88.6436 86.9125 89.6922 87.151C90.7408 87.3894 91.5245 86.987 91.8569 85.5256L94.366 74.4933C94.6983 73.032 94.1658 72.3302 93.1172 72.0917C92.0686 71.8532 91.2849 72.2557 90.9526 73.717L88.4434 84.7493Z" fill="#FF5C35"/>
      <path d="M101.991 88.8157L108.291 72.7209L111.314 73.4085L103.437 93.11L98.5288 91.9937L99.9473 70.8232L103.266 71.578L101.991 88.8157Z" fill="#FF5C35"/>
      <path d="M114.176 83.1111L118.694 84.1386L118.03 87.0556L113.512 86.0281L112.15 92.0183L117.834 93.3109L117.17 96.228L108.196 94.1869L112.844 73.751L121.818 75.792L121.155 78.7091L115.471 77.4164L114.176 83.1111Z" fill="#FF5C35"/>
      <path d="M123.854 76.2549L127.144 77.0033L123.16 94.5222L128.576 95.754L127.912 98.671L119.206 96.6908L123.854 76.2549Z" fill="#FF5C35"/>
      <path d="M18.5555 87.4086L23.0733 88.4361L22.4098 91.3532L17.892 90.3257L16.5309 96.3103L22.2144 97.6029L21.551 100.52L12.5768 98.4789L17.2246 78.043L26.1988 80.084L25.5354 83.001L19.8519 81.7084L18.5555 87.4086Z" fill="#FF5C35"/>
      <path d="M28.2344 80.5527L31.5251 81.3012L27.542 98.8145L32.9577 100.046L32.2943 102.963L23.5878 100.983L28.2344 80.5527Z" fill="#FF5C35"/>
      <path d="M36.9899 87.7003C37.7333 84.4319 39.9207 82.9643 43.1556 83.7001C46.3906 84.4358 47.7281 86.7051 46.9848 89.9735L44.5683 100.599C43.8249 103.867 41.6375 105.335 38.4025 104.599C35.1676 103.863 33.83 101.594 34.5734 98.3255L36.9899 87.7003ZM37.8172 99.2803C37.4848 100.742 38.0174 101.443 39.066 101.682C40.1145 101.92 40.8982 101.518 41.2306 100.057L43.7397 89.0243C44.0721 87.563 43.5395 86.8612 42.4909 86.6227C41.4424 86.3842 40.6586 86.7867 40.3263 88.248L37.8172 99.2803Z" fill="#FF5C35"/>
      <path d="M51.366 103.342L57.6662 87.2473L60.6892 87.9348L52.812 107.636L47.9038 106.52L49.3223 85.3496L52.6409 86.1044L51.366 103.342Z" fill="#FF5C35"/>
      <path d="M63.5496 97.642L68.0674 98.6695L67.404 101.587L62.8862 100.559L61.5251 106.544L67.2085 107.836L66.5451 110.753L57.5709 108.712L62.2188 88.2764L71.1929 90.3174L70.5295 93.2344L64.846 91.9418L63.5496 97.642Z" fill="#FF5C35"/>
      <path d="M73.2266 90.7861L76.5173 91.5346L72.5342 109.048L77.9499 110.28L77.2865 113.197L68.58 111.217L73.2266 90.7861Z" fill="#FF5C35"/>
      <path d="M81.984 97.9337C82.7274 94.6653 84.9148 93.1977 88.1498 93.9335C91.3847 94.6692 92.7223 96.9385 91.9789 100.207L89.5624 110.832C88.819 114.1 86.6316 115.568 83.3967 114.832C80.1617 114.097 78.8242 111.827 79.5675 108.559L81.984 97.9337ZM82.8113 109.514C82.479 110.975 83.0115 111.677 84.0601 111.915C85.1087 112.154 85.8924 111.751 86.2247 110.29L88.7339 99.2577C89.0662 97.7964 88.5336 97.0945 87.4851 96.8561C86.4365 96.6176 85.6528 97.0201 85.3204 98.4814L82.8113 109.514Z" fill="#FF5C35"/>
      <path d="M96.3601 113.574L102.66 97.4797L105.683 98.1673L97.8061 117.869L92.8979 116.752L94.3164 95.582L97.635 96.3368L96.3601 113.574Z" fill="#FF5C35"/>
      <path d="M108.544 107.875L113.062 108.903L112.398 111.82L107.88 110.792L106.519 116.777L112.203 118.07L111.539 120.987L102.565 118.946L107.213 98.5098L116.187 100.551L115.524 103.468L109.84 102.175L108.544 107.875Z" fill="#FF5C35"/>
      <path d="M118.221 101.02L121.511 101.768L117.528 119.281L122.944 120.513L122.281 123.43L113.574 121.45L118.221 101.02Z" fill="#FF5C35"/>
    </g>
  </g>
  <defs>
    <clipPath id="clip0_497_15210">
      <rect width="119.381" height="98.4057" fill="white" transform="translate(22.2246) rotate(12.8131)"/>
    </clipPath>
  </defs>
</svg>