<svg xmlns="http://www.w3.org/2000/svg" width="127" height="56" viewBox="0 0 127 56" fill="none">
  <g clip-path="url(#clip0_497_15320)">
    <path d="M113.551 53.9275L7.29614 35.0046C3.57566 34.342 1.07342 30.7576 1.73562 27.0393L5.31749 6.92659C5.97969 3.20827 9.56552 0.708128 13.286 1.37071L119.541 20.2936C123.261 20.9562 125.763 24.5406 125.101 28.2589L121.519 48.3716C120.857 52.0899 117.271 54.5901 113.551 53.9275Z" fill="#FCDC3E"/>
    <path d="M11.1922 21.9455C10.7519 23.4702 10.3115 24.9948 9.87062 26.5223C10.3879 26.1616 10.9052 25.8009 11.4225 25.4402C10.7215 25.3154 10.0233 25.191 9.32227 25.0662C9.68326 25.5833 10.0442 26.1004 10.4052 26.6175C10.8456 25.0928 11.286 23.5681 11.7269 22.0407C11.9267 21.345 11.2958 20.6055 10.6439 20.4894C10.262 20.4214 9.8829 20.3538 9.50103 20.2858C9.86201 20.8029 10.223 21.32 10.584 21.8371C10.7545 21.2431 10.9255 20.6464 11.0933 20.0519C10.576 20.4126 10.0587 20.7733 9.54135 21.1339C9.92322 21.202 10.3024 21.2695 10.6842 21.3375C11.4507 21.474 12.0363 20.9511 12.2362 20.2554C12.6369 18.8587 13.0371 17.4646 13.4378 16.0679C13.6377 15.3722 13.0095 14.6332 12.3549 14.5166C11.9648 14.4471 11.5775 14.3781 11.1874 14.3087C11.5484 14.8258 11.9094 15.3429 12.2704 15.86C12.4409 15.266 12.6119 14.6692 12.7797 14.0747C12.2624 14.4354 11.7451 14.7961 11.2277 15.1568C11.6178 15.2263 12.0051 15.2952 12.3952 15.3647C13.1644 15.5017 13.7472 14.9783 13.9471 14.2826C14.3009 13.0547 14.6574 11.8273 15.0111 10.5993C14.4938 10.96 13.9765 11.3207 13.4592 11.6814C14.1602 11.8062 14.8585 11.9306 15.5595 12.0554C15.1985 11.5383 14.8375 11.0212 14.4765 10.5041C14.1227 11.732 13.7662 12.9595 13.4125 14.1874C13.2126 14.8831 13.8435 15.6226 14.4954 15.7387C15.0001 15.8286 15.5074 15.9189 16.012 16.0088C16.7812 16.1458 17.3641 15.6224 17.5639 14.9268C17.9177 13.6988 18.2742 12.4714 18.6279 11.2434C18.1106 11.6041 17.5933 11.9648 17.076 12.3255C17.777 12.4503 18.4753 12.5747 19.1763 12.6995C18.8153 12.1824 18.4543 11.6653 18.0933 11.1482C17.7396 12.3762 17.3831 13.6036 17.0293 14.8316C16.8295 15.5272 17.4604 16.2668 18.1123 16.3829C18.5078 16.4533 18.906 16.5242 19.3015 16.5946C18.9405 16.0775 18.5796 15.5604 18.2186 15.0433C18.0481 15.6374 17.8771 16.2341 17.7093 16.8286C18.2266 16.4679 18.7439 16.1072 19.2612 15.7465C18.8657 15.6761 18.4675 15.6052 18.072 15.5347C17.3055 15.3982 16.7199 15.9211 16.52 16.6168C16.1193 18.0135 15.7191 19.4076 15.3184 20.8043C15.1185 21.5 15.7467 22.2391 16.4013 22.3556C16.7968 22.4261 17.1951 22.497 17.5906 22.5674C17.2296 22.0503 16.8686 21.5332 16.5076 21.0161C16.3371 21.6101 16.1661 22.2069 15.9983 22.8014C16.5156 22.4407 17.0329 22.08 17.5503 21.7193C17.1548 21.6489 16.7565 21.578 16.361 21.5075C15.5945 21.371 15.009 21.8939 14.8091 22.5896C14.3687 24.1143 13.9283 25.639 13.4874 27.1664C14.0048 26.8057 14.5221 26.445 15.0394 26.0843C14.3384 25.9595 13.6401 25.8351 12.9391 25.7103C13.3001 26.2274 13.6611 26.7445 14.0221 27.2616C14.4624 25.7369 14.9028 24.2122 15.3437 22.6848C15.5436 21.9891 14.9126 21.2496 14.2607 21.1335C13.7561 21.0436 13.2488 20.9533 12.7442 20.8634C11.0476 20.5613 10.5754 23.1969 12.2747 23.4995C12.7793 23.5894 13.2867 23.6797 13.7913 23.7696C13.4303 23.2525 13.0693 22.7354 12.7083 22.2183C12.2679 23.743 11.8276 25.2677 11.3867 26.7951C11.1868 27.4907 11.8177 28.2303 12.4696 28.3464C13.1706 28.4712 13.8689 28.5956 14.5699 28.7204C15.3364 28.8569 15.922 28.334 16.1219 27.6384C16.5622 26.1137 17.0026 24.589 17.4435 23.0616C16.9262 23.4222 16.4089 23.7829 15.8916 24.1436C16.2871 24.214 16.6853 24.285 17.0808 24.3554C17.8473 24.4919 18.4356 23.9695 18.6327 23.2733C18.8032 22.6793 18.9742 22.0826 19.142 21.4881C19.3419 20.7925 18.7137 20.0534 18.0591 19.9368C17.6636 19.8664 17.2653 19.7955 16.8698 19.725C17.2308 20.2421 17.5918 20.7592 17.9528 21.2763C18.3535 19.8796 18.7537 18.4855 19.1544 17.0888C18.6371 17.4494 18.1198 17.8101 17.6025 18.1708C17.998 18.2413 18.3962 18.3122 18.7917 18.3826C19.5582 18.5191 20.1465 17.9967 20.3437 17.3006C20.5142 16.7065 20.6852 16.1098 20.853 15.5153C21.0528 14.8197 20.4246 14.0806 19.77 13.964C19.3745 13.8936 18.9763 13.8227 18.5808 13.7522C18.9418 14.2693 19.3027 14.7864 19.6637 15.3035C20.0175 14.0756 20.374 12.8481 20.7277 11.6202C20.9276 10.9246 20.2967 10.185 19.6448 10.0689C18.9438 9.94407 18.2455 9.81971 17.5445 9.69487C16.7753 9.55788 16.1924 10.0813 15.9926 10.7769C15.6388 12.0049 15.2823 13.2323 14.9286 14.4602C15.4459 14.0996 15.9632 13.7389 16.4805 13.3782C15.9759 13.2883 15.4685 13.198 14.9639 13.1081C15.3249 13.6252 15.6859 14.1423 16.0469 14.6594C16.4007 13.4315 16.7571 12.204 17.1109 10.9761C17.3108 10.2804 16.6798 9.54088 16.0279 9.42478C15.3269 9.29994 14.6287 9.17559 13.9277 9.05075C13.1585 8.91376 12.5756 9.43714 12.3757 10.1328C12.022 11.3607 11.6655 12.5882 11.3117 13.8161C11.829 13.4554 12.3464 13.0947 12.8637 12.7341C12.4736 12.6646 12.0863 12.5956 11.6962 12.5262C10.9298 12.3897 10.3414 12.9121 10.1443 13.6082C9.97379 14.2022 9.8028 14.799 9.63501 15.3934C9.43514 16.0891 10.0633 16.8282 10.718 16.9447C11.108 17.0142 11.4953 17.0832 11.8854 17.1527C11.5244 16.6356 11.1634 16.1185 10.8024 15.6014C10.4017 16.9981 10.0015 18.3921 9.60078 19.7889C10.1181 19.4282 10.6354 19.0675 11.1527 18.7069C10.7708 18.6389 10.3917 18.5713 10.0098 18.5033C9.24337 18.3668 8.65505 18.8892 8.45791 19.5854C8.28739 20.1794 8.1164 20.7761 7.94861 21.3706C7.74874 22.0663 8.37694 22.8053 9.03157 22.9219C9.41344 22.9899 9.79258 23.0574 10.1744 23.1254C9.81346 22.6083 9.45247 22.0912 9.09149 21.5741C8.65111 23.0988 8.21072 24.6235 7.76986 26.151C7.56999 26.8466 8.20091 27.5862 8.85281 27.7023C9.55381 27.8271 10.2521 27.9515 10.9531 28.0763C11.7196 28.2128 12.3051 27.6899 12.505 26.9942C12.9454 25.4695 13.3858 23.9449 13.8266 22.4174C14.3045 20.7616 11.6649 20.3028 11.1922 21.9455Z" fill="white"/>
    <path d="M15.8557 20.9003C16.2564 19.5036 16.6566 18.1095 17.0573 16.7128C17.2572 16.0171 16.629 15.278 15.9743 15.1615C15.4697 15.0716 14.9624 14.9812 14.4578 14.8914C13.6913 14.7549 13.1057 15.2778 12.9059 15.9734C12.5051 17.3702 12.1049 18.7642 11.7042 20.161C11.5043 20.8566 12.1325 21.5957 12.7872 21.7123C13.2918 21.8021 13.7991 21.8925 14.3037 21.9824C16.0003 22.2845 16.4725 19.6489 14.7732 19.3463C14.2686 19.2564 13.7612 19.1661 13.2566 19.0762C13.6176 19.5933 13.9786 20.1104 14.3396 20.6275C14.7403 19.2307 15.1405 17.8367 15.5412 16.4399C15.0239 16.8006 14.5066 17.1613 13.9893 17.522C14.4939 17.6119 15.0012 17.7022 15.5059 17.7921C15.1449 17.275 14.7839 16.7579 14.4229 16.2408C14.0222 17.6375 13.622 19.0316 13.2213 20.4283C13.0214 21.124 13.6441 21.8621 14.3042 21.9796C15.0756 22.1198 15.6558 21.596 15.8557 20.9003Z" fill="white"/>
    <path d="M24.9762 13.5381C27.8219 14.1349 27.0717 16.7041 26.694 18.8249C26.3158 20.9485 25.9808 23.0826 25.5589 25.1984C25.2957 26.5184 24.6859 27.667 23.1882 27.6703C21.4541 27.6736 20.2113 26.7041 20.3201 24.9235C20.4433 22.9205 21.0128 20.876 21.3638 18.905C21.7655 16.6338 21.7701 13.0683 24.9762 13.5381C26.6792 13.7879 27.1537 11.1555 25.4456 10.902C23.2596 10.583 21.1583 11.21 20.0212 13.2181C19.3685 14.3703 19.2104 15.7006 18.9817 16.9846C18.6934 18.6038 18.405 20.2231 18.1166 21.8424C17.9122 22.99 17.6121 24.1853 17.6343 25.3565C17.7169 29.9021 24.0764 32.2272 26.9764 28.6008C27.8668 27.4881 28.1174 26.1125 28.3597 24.7522C28.6398 23.1793 28.9199 21.6063 29.1995 20.0361C29.4452 18.6568 29.838 17.1939 29.8139 15.7805C29.7652 13.1309 27.9414 11.4252 25.4451 10.9047C23.7578 10.5508 23.2888 13.1841 24.9762 13.5381Z" fill="white"/>
    <path d="M22.4171 27.9013C25.3517 28.2045 25.5938 25.407 25.9798 23.2398C26.3657 21.0726 26.8278 18.9049 27.1396 16.7273C27.3318 15.3637 27.048 14.0026 25.6578 13.4175C24.0111 12.7248 22.4191 13.6366 21.9532 15.289C21.4086 17.2254 21.2106 19.3164 20.8582 21.2955C20.4463 23.624 19.2298 27.089 22.4171 27.9013C24.0891 28.3256 24.5499 25.6908 22.8866 25.2652C22.8675 25.2618 23.0888 24.0665 23.1466 23.7421C23.3432 22.6381 23.5398 21.534 23.7364 20.43C23.9228 19.3832 24.1093 18.3364 24.2952 17.2923C24.3471 17.0006 24.3887 16.7043 24.4515 16.4145C24.5049 16.1625 24.5764 15.8714 24.56 15.8685C24.5246 15.8622 24.5191 16.1144 24.4816 16.3721C24.4381 16.6793 24.3719 16.9882 24.3175 17.2935C24.1311 18.3403 23.9447 19.3871 23.7587 20.4311C23.5679 21.5025 23.3771 22.5738 23.1863 23.6451C23.1227 24.0022 23.0728 24.3618 22.9955 24.7165C22.9422 24.9685 22.8511 25.2589 22.887 25.2625C21.1818 25.0881 20.6987 27.7218 22.4171 27.9013Z" fill="white"/>
    <path d="M34.6294 28.8619C34.8469 27.6406 35.2567 26.2876 35.1752 25.0384C35.043 23.063 33.4977 22.5122 31.8065 22.211C31.0946 22.0842 30.3818 22.5788 30.2546 23.2931C29.8599 25.5093 29.4657 27.7229 29.071 29.9391C29.5883 29.5785 30.1056 29.2178 30.6229 28.8571C29.7665 28.7046 28.9127 28.5525 28.0562 28.4C28.4172 28.9171 28.7782 29.4342 29.1392 29.9513C30.1082 24.5101 31.0767 19.0717 32.0458 13.6305C31.5285 13.9912 31.0111 14.3519 30.4938 14.7125C32.0459 14.9889 34.367 14.9917 35.7309 15.8505C37.3096 16.8461 36.363 21.0397 34.7745 21.5527C33.8575 21.8506 33.5626 23.2381 34.3691 23.8289C35.5218 24.6727 35.0411 26.1395 34.8265 27.3444C34.5978 28.6284 34.2516 29.9561 34.4664 31.2628C34.9882 30.782 35.5127 30.3017 36.0345 29.8208C35.1644 29.6659 34.2916 29.5104 33.4215 29.3555C33.787 29.7524 34.1547 30.1526 34.5202 30.5496C34.4387 29.9641 34.5305 29.4489 34.6294 28.8619C34.915 27.1633 32.2779 26.6909 31.9918 28.3921C31.8582 29.1896 31.7378 29.9922 31.8533 30.7974C31.9375 31.3834 32.3519 31.8847 32.952 31.9916C33.8221 32.1465 34.695 32.302 35.5651 32.4569C36.3725 32.6007 37.2763 31.887 37.1333 31.015C36.6241 27.9008 39.4086 24.2117 36.1051 21.7925C35.9701 22.5503 35.8352 23.3082 35.6997 24.0687C37.6498 23.4373 38.5034 21.7415 38.8596 19.8361C39.1616 18.2193 39.4659 16.4791 38.5631 14.9908C37.0943 12.5721 33.4636 12.5274 30.9623 12.0819C30.2504 11.9551 29.5376 12.4497 29.4104 13.164C28.4414 18.6051 27.4728 24.0436 26.5038 29.4848C26.3771 30.1963 26.8721 30.9088 27.5868 31.0361C28.4432 31.1886 29.297 31.3406 30.1535 31.4932C30.8654 31.6199 31.5782 31.1253 31.7054 30.4111C32.1001 28.1948 32.4943 25.9813 32.889 23.765C32.3717 24.1257 31.8544 24.4864 31.3371 24.8471C31.5689 24.8884 32.2727 24.8871 32.4425 25.0552C32.6196 25.2302 32.4605 25.7446 32.4137 26.0232C32.2811 26.8152 32.1326 27.6016 31.9918 28.3921C31.6926 30.0882 34.327 30.5602 34.6294 28.8619Z" fill="white"/>
    <path d="M31.7517 22.516C32.7991 22.7026 33.9125 22.9768 34.8769 22.3498C35.9302 21.6655 36.1131 20.4015 36.316 19.262C36.5175 18.1307 36.7365 16.9013 35.9303 15.9449C35.2306 15.1172 34.115 15.045 33.1167 14.8672C32.4048 14.7405 31.692 15.2351 31.5648 15.9493C31.2672 17.6204 30.9696 19.2914 30.672 20.9625C30.37 22.6581 33.0071 23.1305 33.3096 21.4322C33.6072 19.7612 33.9048 18.0901 34.2024 16.419C33.6851 16.7797 33.1678 17.1404 32.6504 17.5011C32.9778 17.5594 33.6854 17.5363 33.9493 17.7296C33.9692 17.7444 33.8365 17.5098 33.8524 17.673C33.8673 17.8106 33.8255 17.9663 33.8082 18.0954C33.7751 18.3286 33.7251 18.5615 33.6839 18.7932C33.6368 19.0577 33.5979 19.3236 33.5426 19.5865C33.482 19.8795 33.2938 20.13 33.4958 20.0704C33.155 20.1672 32.5681 19.9389 32.2271 19.8782C30.5246 19.5778 30.0524 22.2134 31.7517 22.516Z" fill="white"/>
    <path d="M44.9423 23.3853C44.6379 25.0945 44.3708 26.816 44.0282 28.5184C43.7676 29.8079 43.2009 30.967 41.7278 30.9746C40.1166 30.983 38.859 30.1122 38.9144 28.4261C38.9733 26.5944 39.5386 24.6842 39.8586 22.8877C40.1261 21.3857 40.163 18.5235 41.2996 17.3562C42.2887 16.3371 44.598 16.6752 45.3268 17.8765C45.9813 18.9578 45.4568 20.5125 45.2514 21.6656C45.7687 21.3049 46.286 20.9442 46.8033 20.5836C45.996 20.4398 45.1859 20.2955 44.3785 20.1517C44.7395 20.6688 45.1004 21.1859 45.4614 21.703C45.6246 20.7871 45.9291 19.7725 45.8287 18.835C45.6808 17.453 44.5284 16.5447 43.1713 16.5167C40.7937 16.4674 40.5037 18.8542 40.1843 20.6479C39.8148 22.7224 39.4454 24.7969 39.0759 26.8714C38.722 28.8587 38.911 31.1789 41.5122 31.2372C44.3346 31.3011 44.3788 27.7821 44.739 25.7594C44.8657 25.0479 44.3707 24.3353 43.6561 24.2081C43.266 24.1386 42.8787 24.0696 42.4887 24.0002C42.8496 24.5173 43.2106 25.0344 43.5716 25.5515C43.71 24.7745 43.8483 23.9976 43.9867 23.2207C43.4694 23.5814 42.9521 23.9421 42.4348 24.3027C43.6322 24.516 44.8296 24.7292 46.0271 24.9425C47.7236 25.2446 48.1958 22.609 46.4965 22.3064C45.2991 22.0932 44.1017 21.8799 42.9042 21.6667C42.1923 21.5399 41.4795 22.0345 41.3523 22.7487C41.2139 23.5256 41.0756 24.3026 40.9372 25.0795C40.8105 25.791 41.3055 26.5035 42.0202 26.6308C42.4102 26.7002 42.7975 26.7692 43.1876 26.8387C42.8266 26.3216 42.4656 25.8045 42.1046 25.2874C41.9847 25.9607 41.8643 26.6368 41.7444 27.3101C41.6876 27.6291 41.6363 27.949 41.5745 28.2642C41.4745 28.778 41.4598 28.75 41.5473 28.2903C41.7614 27.1359 41.959 25.9786 42.1649 24.8228C42.4489 23.2281 42.7334 21.6306 43.0174 20.0359C43.0479 19.8641 43.0758 19.6919 43.1091 19.5207C43.1237 19.4389 43.1554 19.3714 43.1737 19.2847C43.2881 18.7369 43.1391 19.3994 43.1622 19.0801C43.1065 19.8042 42.9547 20.5141 42.827 21.231C42.7003 21.9425 43.1953 22.6551 43.91 22.7823C44.7174 22.9261 45.5275 23.0704 46.3348 23.2142C47.0468 23.341 47.7596 22.8464 47.8868 22.1321C48.1713 20.5347 48.5532 18.8955 47.9945 17.3082C47.2882 15.3009 45.2913 14.2674 43.2623 14.1254C41.2082 13.9818 39.3743 14.9405 38.4709 16.8215C37.9511 17.9074 37.8064 19.1304 37.5977 20.3026C37.1394 22.8759 36.4229 25.5243 36.2671 28.1375C36.1458 30.1774 36.9808 32.0783 38.8717 33.0113C40.6205 33.874 42.9828 33.946 44.5987 32.7572C47.0666 30.9411 47.0904 26.6197 47.5817 23.8609C47.8819 22.1594 45.2448 21.6869 44.9423 23.3853Z" fill="white"/>
    <path d="M48.0932 29.4788C47.925 30.8973 48.2945 32.2203 49.7661 32.7271C51.0071 33.1534 52.3087 32.7664 52.9754 31.6139C53.6018 30.5302 53.6602 28.9065 53.8748 27.7016C54.4608 24.4113 55.0467 21.121 55.6327 17.8306C55.1154 18.1913 54.5981 18.552 54.0808 18.9127C54.8909 19.057 55.6983 19.2007 56.5084 19.345C56.1474 18.8279 55.7864 18.3108 55.4254 17.7937C54.6952 21.8937 54.0318 26.014 53.2335 30.1018C52.9772 31.4146 52.4295 32.6248 50.9195 32.6344C48.804 32.6457 47.8951 31.3026 48.1987 29.3289C48.4888 27.4315 48.8726 25.5451 49.209 23.656C49.61 21.4043 50.011 19.1526 50.4115 16.9036C49.8942 17.2643 49.3769 17.625 48.8596 17.9857C49.7161 18.1382 50.5698 18.2902 51.4263 18.4428C51.0653 17.9257 50.7043 17.4086 50.3434 16.8915C49.588 21.0854 48.8409 25.2807 48.0932 29.4788C47.7913 31.1744 50.4284 31.6469 50.7308 29.9486C51.4785 25.7505 52.2256 21.5551 52.9733 17.357C53.1 16.6455 52.605 15.933 51.8903 15.8057C51.0338 15.6532 50.1801 15.5011 49.3236 15.3486C48.6117 15.2218 47.8989 15.7164 47.7717 16.4307C47.3629 18.726 46.9541 21.0213 46.5449 23.3194C46.1317 25.6392 45.2877 28.293 45.4432 30.6747C45.7225 34.8898 51.6162 37.0025 54.4683 33.7867C56.0812 31.9674 56.1893 28.7691 56.598 26.4738C57.0855 23.7368 57.5724 21.0026 58.0598 18.2657C58.1865 17.5542 57.6915 16.8417 56.9769 16.7144C56.1667 16.5701 55.3594 16.4263 54.5493 16.2821C53.8374 16.1553 53.1245 16.6499 52.9973 17.3641C52.5915 19.6431 52.1861 21.9193 51.7802 24.1983C51.5268 25.6213 51.2734 27.0443 51.02 28.4673C50.9452 28.8871 50.8858 29.3152 50.7947 29.7321C50.7016 30.1599 50.6478 30.6678 50.7331 29.9518C50.9327 28.2464 48.2975 27.763 48.0932 29.4788Z" fill="white"/>
    <path d="M59.738 18.5617C58.9073 23.2259 58.0771 27.8874 57.2465 32.5517C57.1198 33.2632 57.6148 33.9757 58.3294 34.103C59.7369 34.3536 61.1444 34.6043 62.5518 34.855C62.1908 34.3379 61.8298 33.8208 61.4689 33.3037C61.3305 34.0806 61.1921 34.8575 61.0538 35.6344C61.5711 35.2737 62.0884 34.913 62.6057 34.5524C60.3418 34.1492 58.0806 33.7465 55.8166 33.3433C56.1776 33.8604 56.5386 34.3775 56.8996 34.8946C57.8686 29.4534 58.8371 24.015 59.8062 18.5738C59.2889 18.9345 58.7715 19.2952 58.2542 19.6559C59.1107 19.8084 59.9645 19.9604 60.8209 20.113C62.5175 20.4151 62.9897 17.7795 61.2904 17.4769C60.4339 17.3244 59.5802 17.1723 58.7237 17.0198C58.0118 16.893 57.299 17.3876 57.1718 18.1018C56.2027 23.543 55.2342 28.9815 54.2652 34.4226C54.1385 35.1341 54.6335 35.8467 55.3481 35.9739C57.6121 36.3771 59.8733 36.7798 62.1372 37.183C62.8491 37.3098 63.5619 36.8152 63.6891 36.1009C63.8275 35.324 63.9659 34.5471 64.1042 33.7702C64.2309 33.0587 63.7359 32.3461 63.0213 32.2189C61.6138 31.9682 60.2064 31.7176 58.7989 31.4669C59.1599 31.984 59.5209 32.5011 59.8819 33.0182C60.7125 28.354 61.5427 23.6924 62.3733 19.0282C62.6776 17.3358 60.0404 16.8633 59.738 18.5617Z" fill="white"/>
    <path d="M67.6442 19.9699C66.8136 24.6341 65.9834 29.2956 65.1527 33.9599C65.026 34.6714 65.5211 35.3839 66.2357 35.5112C67.6431 35.7618 69.0506 36.0125 70.4581 36.2632C70.0971 35.7461 69.7361 35.229 69.3751 34.7119C69.2367 35.4888 69.0984 36.2657 68.96 37.0426C69.4773 36.6819 69.9946 36.3213 70.5119 35.9606C68.248 35.5574 65.9868 35.1547 63.7229 34.7515C64.0839 35.2686 64.4449 35.7857 64.8058 36.3028C65.7749 30.8616 66.7434 25.4232 67.7124 19.982C67.1951 20.3427 66.6778 20.7034 66.1605 21.0641C67.017 21.2166 67.8707 21.3686 68.7272 21.5212C70.4238 21.8233 70.8959 19.1877 69.1966 18.8851C68.3402 18.7326 67.4864 18.5805 66.6299 18.428C65.918 18.3012 65.2052 18.7958 65.078 19.51C64.109 24.9512 63.1405 30.3897 62.1714 35.8308C62.0447 36.5423 62.5398 37.2549 63.2544 37.3821C65.5183 37.7853 67.7795 38.188 70.0435 38.5912C70.7554 38.718 71.4682 38.2234 71.5954 37.5091C71.7338 36.7322 71.8721 35.9553 72.0105 35.1784C72.1372 34.4669 71.6422 33.7543 70.9275 33.6271C69.5201 33.3764 68.1126 33.1258 66.7052 32.8751C67.0661 33.3922 67.4271 33.9093 67.7881 34.4264C68.6188 29.7622 69.4489 25.1006 70.2796 20.4364C70.5838 18.744 67.9467 18.2715 67.6442 19.9699Z" fill="white"/>
    <path d="M77.7887 22.9433C80.6344 23.5401 79.8842 26.1093 79.5065 28.2302C79.1283 30.3538 78.7933 32.4879 78.3714 34.6037C78.1082 35.9237 77.4984 37.0723 76.0007 37.0755C74.2666 37.0789 73.0238 36.1094 73.1326 34.3288C73.2558 32.3257 73.8253 30.2812 74.1763 28.3103C74.578 26.039 74.5853 22.4741 77.7887 22.9433C79.4917 23.1932 79.9662 20.5608 78.2581 20.3072C76.0726 19.9855 73.9713 20.6126 72.8337 22.6234C72.181 23.7756 72.0229 25.1059 71.7942 26.3898C71.5059 28.0091 71.2175 29.6284 70.9291 31.2476C70.7247 32.3953 70.4246 33.5906 70.4468 34.7617C70.5294 39.3074 76.8889 41.6325 79.7861 38.0056C80.6766 36.8929 80.9272 35.5173 81.1694 34.157C81.4496 32.584 81.7297 31.0111 82.0093 29.4409C82.255 28.0615 82.6478 26.5987 82.6237 25.1853C82.5749 22.5357 80.7512 20.83 78.2549 20.3095C76.5703 19.956 76.104 22.5899 77.7887 22.9433Z" fill="white"/>
    <path d="M75.2308 37.307C78.1654 37.6103 78.4075 34.8128 78.7935 32.6456C79.1794 30.4784 79.6415 28.3107 79.9533 26.1331C80.1482 24.77 79.8644 23.4088 78.4742 22.8237C76.8275 22.1311 75.2355 23.0429 74.7696 24.6952C74.225 26.6317 74.027 28.7227 73.6746 30.7018C73.26 33.0298 72.0435 36.4947 75.2308 37.307C76.9028 37.7314 77.3636 35.0966 75.7002 34.671C75.6811 34.6676 75.9025 33.4723 75.9602 33.1479C76.1568 32.0438 76.3535 30.9398 76.5501 29.8357C76.7365 28.7889 76.9229 27.7421 77.1089 26.6981C77.1608 26.4064 77.2023 26.11 77.2652 25.8203C77.3185 25.5682 77.3901 25.2772 77.3737 25.2743C77.3382 25.268 77.3327 25.5201 77.2953 25.7778C77.2518 26.0851 77.1856 26.3939 77.1312 26.6992C76.9448 27.746 76.7583 28.7928 76.5724 29.8369C76.3816 30.9082 76.1908 31.9796 76 33.0509C75.9364 33.408 75.8865 33.7676 75.8092 34.1222C75.7559 34.3743 75.6648 34.6646 75.7007 34.6682C73.9982 34.4944 73.5151 37.128 75.2308 37.307Z" fill="white"/>
    <path d="M83.1579 38.2125C82.3887 38.0755 81.6168 37.938 80.8476 37.801C81.2086 38.3181 81.5696 38.8352 81.9306 39.3523C82.8996 33.9112 83.8681 28.4727 84.8371 23.0315C84.3198 23.3922 83.8025 23.7529 83.2852 24.1136C84.3572 24.3045 85.4318 24.4959 86.5038 24.6868C86.1383 24.2898 85.7706 23.8896 85.4051 23.4927C85.7032 26.9067 86.0019 30.318 86.3 33.732C86.432 35.2349 88.6851 35.3352 88.9507 33.8441C89.5308 30.5865 90.1105 27.3316 90.6906 24.074C90.1733 24.4347 89.656 24.7954 89.1387 25.156C89.8997 25.2916 90.6634 25.4276 91.4244 25.5631C91.0634 25.046 90.7025 24.5289 90.3415 24.0118C89.3725 29.453 88.4039 34.8914 87.4349 40.3326C87.9522 39.9719 88.4695 39.6112 88.9868 39.2505C88.1085 39.0941 87.2302 38.9377 86.3519 38.7813C86.7174 39.1783 87.0852 39.5784 87.4507 39.9754C87.0857 35.8463 86.7239 31.715 86.3589 27.586C86.227 26.0831 83.9738 25.9828 83.7083 27.4739C83.0068 31.4131 82.3048 35.3549 81.6032 39.294C81.3013 40.9896 83.9384 41.4621 84.2409 39.7638C84.9424 35.8246 85.6444 31.8828 86.3459 27.9437C85.4631 27.9074 84.5776 27.8706 83.6952 27.8316C84.0602 31.9607 84.422 36.092 84.787 40.221C84.8375 40.8066 85.3102 41.3126 85.8857 41.4151C86.764 41.5715 87.6423 41.728 88.5206 41.8844C89.2325 42.0112 89.9453 41.5165 90.0725 40.8023C91.0415 35.3612 92.0101 29.9227 92.9791 24.4815C93.1058 23.77 92.6108 23.0575 91.8961 22.9302C91.1351 22.7947 90.3714 22.6587 89.6104 22.5232C88.8985 22.3964 88.1857 22.891 88.0585 23.6052C87.4783 26.8628 86.8986 30.1177 86.3185 33.3753C87.2013 33.4116 88.0868 33.4484 88.9692 33.4874C88.671 30.0734 88.3724 26.6621 88.0742 23.248C88.0237 22.6625 87.551 22.1564 86.9755 22.0539C85.9035 21.863 84.8289 21.6716 83.7569 21.4807C83.045 21.3539 82.3322 21.8485 82.205 22.5628C81.2359 28.0039 80.2674 33.4424 79.2984 38.8836C79.1717 39.5951 79.6667 40.3076 80.3814 40.4349C81.1505 40.5718 81.9225 40.7093 82.6917 40.8463C84.385 41.1507 84.8572 38.5151 83.1579 38.2125Z" fill="white"/>
    <path d="M97.0496 32.3027C96.9112 33.0796 96.7729 33.8565 96.6345 34.6335C97.1518 34.2728 97.6691 33.9121 98.1865 33.5514C97.0136 33.3425 95.838 33.1332 94.6651 32.9243C93.9532 32.7975 93.2403 33.2921 93.1132 34.0063C92.8296 35.5983 92.5456 37.1931 92.2621 38.7851C92.1354 39.4966 92.6304 40.2091 93.3451 40.3364C94.8234 40.5997 96.2991 40.8625 97.7775 41.1258C97.4165 40.6087 97.0555 40.0916 96.6945 39.5745C96.5561 40.3514 96.4178 41.1283 96.2794 41.9052C96.7967 41.5445 97.314 41.1839 97.8313 40.8232C95.4992 40.4078 93.1644 39.992 90.8323 39.5767C91.1932 40.0938 91.5542 40.6109 91.9152 41.128C92.8842 35.6868 93.8528 30.2484 94.8218 24.8072C94.3045 25.1679 93.7872 25.5286 93.2699 25.8893C95.602 26.3046 97.9368 26.7204 100.269 27.1357C99.908 26.6186 99.547 26.1015 99.186 25.5844C99.0476 26.3613 98.9093 27.1383 98.7709 27.9152C99.2882 27.5545 99.8055 27.1938 100.323 26.8331C98.8445 26.5699 97.3688 26.3071 95.8904 26.0438C95.1785 25.917 94.4657 26.4116 94.3385 27.1258C94.0686 28.6415 93.7987 30.1572 93.5287 31.6729C93.402 32.3844 93.897 33.0969 94.6117 33.2242C95.7846 33.433 96.9602 33.6424 98.1331 33.8513C99.8296 34.1534 100.302 31.5178 98.6025 31.2152C97.4296 31.0063 96.254 30.797 95.0811 30.5881C95.4421 31.1052 95.8031 31.6223 96.1641 32.1394C96.434 30.6237 96.704 29.108 96.9739 27.5923C96.4566 27.953 95.9393 28.3137 95.422 28.6744C96.9003 28.9377 98.376 29.2005 99.8543 29.4638C100.566 29.5905 101.279 29.0959 101.406 28.3817C101.545 27.6048 101.683 26.8279 101.821 26.0509C101.948 25.3395 101.453 24.6269 100.738 24.4996C98.4063 24.0843 96.0714 23.6685 93.7393 23.2532C93.0274 23.1264 92.3146 23.621 92.1874 24.3352C91.2184 29.7764 90.2498 35.2149 89.2808 40.656C89.1541 41.3675 89.6491 42.0801 90.3638 42.2073C92.6959 42.6227 95.0307 43.0385 97.3629 43.4538C98.0748 43.5806 98.7876 43.086 98.9148 42.3717C99.0531 41.5948 99.1915 40.8179 99.3299 40.041C99.4566 39.3295 98.9616 38.6169 98.2469 38.4897C96.7685 38.2264 95.2929 37.9636 93.8145 37.7003C94.1755 38.2174 94.5365 38.7345 94.8975 39.2516C95.181 37.6596 95.465 36.0649 95.7485 34.4729C95.2312 34.8336 94.7139 35.1942 94.1966 35.5549C95.3695 35.7638 96.5451 35.9732 97.718 36.182C98.4299 36.3088 99.1427 35.8142 99.2699 35.1C99.4083 34.3231 99.5466 33.5461 99.685 32.7692C99.9892 31.0768 97.3521 30.6044 97.0496 32.3027Z" fill="white"/>
    <path d="M105.989 41.5699C106.206 40.3486 106.616 38.9956 106.535 37.7464C106.402 35.771 104.857 35.2202 103.166 34.919C102.454 34.7922 101.741 35.2868 101.614 36.0011C101.219 38.2173 100.825 40.4309 100.43 42.6471C100.948 42.2865 101.465 41.9258 101.982 41.5651C101.126 41.4126 100.272 41.2605 99.4156 41.108C99.7766 41.6251 100.138 42.1422 100.499 42.6593C101.468 37.2181 102.436 31.7797 103.405 26.3385C102.888 26.6992 102.371 27.0599 101.853 27.4206C103.405 27.697 105.726 27.6997 107.09 28.5585C108.669 29.5541 107.722 33.7477 106.134 34.2607C105.217 34.5586 104.922 35.9461 105.728 36.5369C106.881 37.3807 106.4 38.8475 106.186 40.0525C105.957 41.3364 105.611 42.6641 105.826 43.9708C106.348 43.49 106.872 43.0097 107.394 42.5288C106.524 42.3739 105.651 42.2184 104.781 42.0635C105.146 42.4605 105.514 42.8606 105.88 43.2576C105.795 42.6717 105.89 42.1569 105.989 41.5699C106.274 39.8714 103.637 39.3989 103.351 41.1001C103.218 41.8976 103.097 42.7002 103.213 43.5055C103.297 44.0914 103.711 44.5927 104.311 44.6996C105.182 44.8545 106.054 45.01 106.924 45.1649C107.732 45.3087 108.636 44.595 108.493 43.723C107.983 40.6088 110.768 36.9197 107.464 34.5005C107.329 35.2583 107.195 36.0162 107.059 36.7767C109.009 36.1453 109.863 34.4495 110.219 32.5442C110.521 30.9273 110.825 29.1871 109.922 27.6989C108.454 25.2801 104.823 25.2354 102.322 24.7899C101.61 24.6631 100.897 25.1578 100.77 25.872C99.8007 31.3132 98.8322 36.7516 97.8632 42.1928C97.7365 42.9043 98.2315 43.6168 98.9462 43.7441C99.8026 43.8966 100.656 44.0486 101.513 44.2012C102.225 44.328 102.938 43.8333 103.065 43.1191C103.459 40.9028 103.854 38.6893 104.248 36.473C103.731 36.8337 103.214 37.1944 102.696 37.5551C102.928 37.5964 103.632 37.5952 103.802 37.7632C103.979 37.9382 103.82 38.4527 103.773 38.7312C103.64 39.5232 103.492 40.3096 103.351 41.1001C103.049 42.7957 105.686 43.2682 105.989 41.5699Z" fill="white"/>
    <path d="M103.111 35.224C104.158 35.4106 105.272 35.6848 106.236 35.0578C107.29 34.3735 107.472 33.1095 107.675 31.97C107.877 30.8387 108.096 29.6093 107.29 28.6529C106.59 27.8252 105.474 27.753 104.476 27.5752C103.764 27.4485 103.051 27.9431 102.924 28.6573C102.627 30.3284 102.329 31.9994 102.031 33.6705C101.729 35.3661 104.366 35.8385 104.669 34.1402C104.967 32.4692 105.264 30.7981 105.562 29.127C105.044 29.4877 104.527 29.8484 104.01 30.2091C104.337 30.2674 105.045 30.2443 105.309 30.4376C105.329 30.4524 105.196 30.2178 105.212 30.381C105.227 30.5186 105.185 30.6743 105.168 30.8034C105.134 31.0366 105.085 31.2695 105.043 31.5013C104.996 31.7657 104.957 32.0316 104.902 32.2945C104.841 32.5875 104.653 32.838 104.855 32.7784C104.514 32.8752 103.927 32.6469 103.586 32.5862C101.884 32.2858 101.409 34.9209 103.111 35.224Z" fill="white"/>
    <path d="M115.289 29.8165C117.651 30.3018 117.477 32.0512 117.134 33.9785C116.78 35.9658 116.426 37.9531 116.072 39.9404C115.79 41.5242 115.606 43.6149 113.527 43.5821C111.964 43.5541 110.323 43.0509 108.79 42.7779C109.151 43.295 109.512 43.8121 109.873 44.3292C110.842 38.888 111.811 33.4496 112.78 28.0084C112.263 28.3691 111.745 28.7298 111.228 29.0905C112.583 29.3346 113.936 29.5756 115.289 29.8165C116.986 30.1187 117.458 27.4831 115.758 27.1804C114.405 26.9395 113.053 26.6986 111.7 26.4576C110.988 26.3308 110.275 26.8254 110.148 27.5397C109.179 32.9808 108.21 38.4193 107.241 43.8605C107.114 44.572 107.609 45.2845 108.324 45.4118C110.383 45.7785 112.946 46.6371 115.024 46.0649C117.669 45.3379 118.291 42.7768 118.713 40.4079C119.115 38.148 119.554 35.8889 119.921 33.6227C120.445 30.3832 119.108 27.8698 115.762 27.1782C114.07 26.8319 113.601 29.468 115.289 29.8165Z" fill="white"/>
    <path d="M111.305 43.5384C112.118 43.6831 113.021 43.9564 113.844 43.788C115.077 43.535 115.642 42.4938 115.897 41.3495C116.207 39.9535 116.4 38.5226 116.65 37.1187C116.901 35.712 117.208 34.3015 117.404 32.8879C117.554 31.7924 117.419 30.6828 116.465 29.987C115.736 29.4549 114.715 29.4025 113.853 29.249C113.141 29.1222 112.428 29.6168 112.301 30.331C111.609 34.2156 110.917 38.1029 110.225 41.9876C109.923 43.6831 112.56 44.1556 112.863 42.4573C113.555 38.5727 114.247 34.6853 114.939 30.8007C114.421 31.1614 113.904 31.5221 113.387 31.8828C113.641 31.928 114.802 32.0589 114.816 32.0754C114.83 32.092 114.729 32.628 114.695 32.8498C114.491 34.1186 114.244 35.3823 114.018 36.6499C113.796 37.8957 113.591 39.1444 113.353 40.3846C113.321 40.5477 113.276 41.1808 113.152 41.2742C113.312 41.1535 112.026 40.947 111.783 40.9037C110.078 40.6029 109.603 43.2352 111.305 43.5384Z" fill="white"/>
    <path d="M14.0334 22.4124L12.5168 22.1423L11.1952 26.7191L9.09494 26.3451L10.4166 21.7683L9.27369 21.5647L9.78572 19.78L10.9286 19.9835L12.1302 15.796L10.9628 15.5881L11.4721 13.8028L12.6395 14.0107L13.7036 10.3274L15.8038 10.7015L14.7398 14.3848L16.2564 14.6549L17.3204 10.9715L19.4207 11.3456L18.3566 15.0289L19.5459 15.2407L19.0366 17.0259L17.8474 16.8141L16.6457 21.0017L17.8349 21.2135L17.3257 22.9987L16.1364 22.7869L14.8175 27.3642L12.7172 26.9902L14.0334 22.4124ZM13.0261 20.3571L14.5427 20.6272L15.7444 16.4396L14.2278 16.1695L13.0261 20.3571Z" fill="#73308A"/>
    <path d="M20.5897 15.5949C21.0548 12.9833 22.695 11.737 25.2154 12.1859C27.7357 12.6347 28.8449 14.3707 28.3798 16.9822L26.8685 25.4684C26.4034 28.0799 24.7631 29.3262 22.2428 28.8774C19.7224 28.4285 18.6133 26.6926 19.0784 24.081L20.5897 15.5949ZM21.6159 24.7017C21.4081 25.8684 21.8423 26.4014 22.6606 26.5471C23.4789 26.6928 24.0703 26.3425 24.2781 25.1758L25.8477 16.3625C26.0554 15.1958 25.6213 14.6628 24.803 14.5171C23.9847 14.3714 23.3933 14.7217 23.1855 15.8884L21.6159 24.7017Z" fill="#73308A"/>
    <path d="M33.193 30.6366C33.1287 30.1921 33.0816 29.9193 33.3185 28.589L33.7753 26.0238C34.0453 24.5081 33.632 23.8579 32.4646 23.65L31.5781 23.4922L30.3945 30.1382L27.8278 29.6811L30.7344 13.3604L34.6076 14.0501C37.267 14.5238 38.19 15.9622 37.7414 18.481L37.5132 19.7623C37.2142 21.4415 36.4817 22.4417 35.2436 22.7725C36.43 23.5378 36.6301 24.8475 36.3272 26.5486L35.8786 29.0674C35.7373 29.8607 35.6552 30.4479 35.8066 31.0993L33.1935 30.6339L33.193 30.6366ZM32.886 16.1482L31.9932 21.1614L32.997 21.3402C33.9544 21.5107 34.6101 21.1943 34.8426 19.8886L35.1291 18.2802C35.3369 17.1134 35.0326 16.5305 34.1216 16.3683L32.886 16.1482Z" fill="#73308A"/>
    <path d="M42.6742 22.9425L46.2665 23.5823L45.3446 28.759C44.8795 31.3706 43.3074 32.629 40.7871 32.1802C38.2668 31.7313 37.2285 30.008 37.6936 27.3965L39.2049 18.9103C39.67 16.2988 41.2421 15.0403 43.7624 15.4891C46.2827 15.938 47.3237 17.6618 46.8586 20.2734L46.5761 21.8599L44.1512 21.4281L44.4629 19.678C44.6707 18.5112 44.2365 17.9783 43.4182 17.8325C42.6027 17.6873 42.0085 18.0371 41.8007 19.2038L40.2312 28.0171C40.0234 29.1839 40.4614 29.695 41.2797 29.8407C42.0953 29.986 42.6855 29.658 42.8933 28.4912L43.4293 25.4817L42.2619 25.2738L42.677 22.943L42.6742 22.9425Z" fill="#73308A"/>
    <path d="M51.6604 17.087L49.4185 29.6758C49.2107 30.8426 49.6487 31.3537 50.467 31.4994C51.2826 31.6447 51.8729 31.3167 52.0807 30.1499L54.3226 17.5611L56.7475 17.9929L54.5347 30.4182C54.0696 33.0298 52.4975 34.2882 49.9771 33.8394C47.4568 33.3905 46.4158 31.6667 46.8809 29.0552L49.0938 16.6299L51.6604 17.087Z" fill="#73308A"/>
    <path d="M58.4961 18.3047L61.0628 18.7618L58.5713 32.7518L62.7937 33.5038L62.3786 35.8345L55.5895 34.6255L58.4961 18.3047Z" fill="#73308A"/>
    <path d="M66.4043 19.7129L68.971 20.17L66.4795 34.16L70.7019 34.912L70.2868 37.2427L63.4977 36.0337L66.4043 19.7129Z" fill="#73308A"/>
    <path d="M73.4041 25.0011C73.8692 22.3896 75.5122 21.1437 78.0298 21.5921C80.5501 22.041 81.6593 23.7769 81.1942 26.3885L79.6829 34.8746C79.2178 37.4862 77.5748 38.732 75.0572 38.2836C72.5369 37.8348 71.4277 36.0988 71.8928 33.4873L73.4041 25.0011ZM74.4304 34.1079C74.2226 35.2747 74.6567 35.8076 75.475 35.9534C76.2906 36.0986 76.8848 35.7488 77.0925 34.5821L78.6621 25.7688C78.8699 24.602 78.4357 24.0691 77.6175 23.9234C76.8019 23.7781 76.2077 24.1279 75.9999 25.2947L74.4304 34.1079Z" fill="#73308A"/>
    <path d="M85.0342 27.6738L82.9291 39.494L80.6188 39.0825L83.5254 22.7617L86.744 23.3349L87.6389 33.5743L89.3789 23.8042L91.6646 24.2112L88.7581 40.532L86.1232 40.0628L85.0342 27.6738Z" fill="#73308A"/>
    <path d="M94.8496 31.8749L98.3737 32.5025L97.9586 34.8333L94.4346 34.2057L93.5835 38.9844L98.0159 39.7738L97.6008 42.1046L90.6017 40.8581L93.5078 24.54L100.507 25.7865L100.092 28.1173L95.6594 27.3279L94.8496 31.8749Z" fill="#73308A"/>
    <path d="M104.554 43.3456C104.49 42.901 104.443 42.6283 104.68 41.298L105.137 38.7328C105.407 37.2171 104.993 36.5669 103.826 36.359L102.939 36.2011L101.756 42.8472L99.1891 42.3901L102.096 26.0693L105.969 26.7591C108.628 27.2327 109.551 28.6712 109.103 31.19L108.875 32.4713C108.576 34.1505 107.843 35.1507 106.605 35.4814C107.791 36.2468 107.991 37.5565 107.689 39.2575L107.24 41.7764C107.099 42.5697 107.019 43.1574 107.168 43.8083L104.555 43.3429L104.554 43.3456ZM104.245 28.8567L103.352 33.8699L104.356 34.0487C105.313 34.2192 105.969 33.9028 106.201 32.597L106.488 30.9887C106.695 29.8219 106.391 29.239 105.48 29.0768L104.245 28.8567Z" fill="#73308A"/>
    <path d="M111.473 27.7393L115.531 28.4621C118.098 28.9192 119.105 30.5666 118.64 33.1781L117.17 41.4326C116.705 44.0441 115.191 45.2427 112.624 44.7856L108.566 44.0628L111.473 27.7393ZM113.622 30.5266L111.546 42.1832L112.991 42.4406C113.807 42.5859 114.373 42.2535 114.58 41.0868L116.091 32.6033C116.299 31.4366 115.883 30.9293 115.067 30.7841L113.622 30.5266Z" fill="#73308A"/>
  </g>
  <defs>
    <clipPath id="clip0_497_15320">
      <rect width="121.668" height="34.1631" fill="white" transform="translate(6.51953 0.166016) rotate(10.0979)"/>
    </clipPath>
  </defs>
</svg>