<svg xmlns="http://www.w3.org/2000/svg" width="98" height="86" viewBox="0 0 98 86" fill="none">
  <g clip-path="url(#clip0_497_15267)">
    <path d="M52.3961 10.9996L65.6815 1.27531C70.2631 -2.08176 76.6507 1.60694 76.0384 7.25477L74.2579 23.6218C73.9518 26.4533 75.513 29.1573 78.1149 30.3053L93.1758 36.948C98.3747 39.2388 98.3747 46.611 93.1758 48.9069L78.1149 55.5496C75.5079 56.6975 73.9467 59.4016 74.2579 62.2331L76.0384 78.6001C76.6507 84.248 70.2682 87.9315 65.6815 84.5796L52.3961 74.8553C50.1003 73.1717 46.9779 73.1717 44.6769 74.8553L31.3915 84.5796C26.8099 87.9367 20.4223 84.248 21.0346 78.6001L22.8151 62.2331C23.1213 59.4016 21.5601 56.6975 18.9581 55.5496L3.89719 48.9018C-1.30167 46.611 -1.30167 39.2388 3.89719 36.9429L18.9581 30.3053C21.5652 29.1573 23.1264 26.4533 22.8151 23.6218L21.0346 7.25477C20.4274 1.61204 26.8099 -2.07666 31.3915 1.28041L44.6769 11.0047C46.9728 12.6832 50.0951 12.6832 52.3961 10.9996Z" fill="#6BCDB2"/>
    <path d="M30.5039 36.5293H32.1467V40.1313H34.3508V41.4067H30.5039V36.5293Z" fill="#73308A"/>
    <path d="M38.7854 39.8654H36.1375C36.2497 40.1563 36.515 40.3093 36.9028 40.3093C37.2497 40.3093 37.4487 40.2175 37.6987 40.0287L38.5201 40.8552C38.1527 41.2583 37.6119 41.4674 36.8569 41.4674C35.4538 41.4674 34.5508 40.6256 34.5508 39.4879C34.5508 38.3298 35.4793 37.5186 36.7089 37.5186C37.8364 37.5186 38.8058 38.2022 38.8058 39.4879C38.8058 39.6052 38.7956 39.7532 38.7854 39.8654ZM36.112 39.1053H37.3364C37.2752 38.7838 37.0456 38.5951 36.7242 38.5951C36.3977 38.5951 36.1732 38.7838 36.112 39.1053Z" fill="#73308A"/>
    <path d="M42.1042 41.2739C41.8593 41.4116 41.5072 41.478 41.1348 41.478C40.0838 41.478 39.4716 40.9831 39.4716 39.9321V38.9576H38.9512V37.8046H39.4716V36.7383H41.0481V37.8046H41.8287V38.9525H41.0481V39.9117C41.0481 40.1464 41.1858 40.279 41.3746 40.279C41.5021 40.279 41.6246 40.2433 41.7317 40.1719L42.1042 41.2739Z" fill="#73308A"/>
    <path d="M42.2637 41.1006L42.6973 40.0599C43.0596 40.2741 43.5749 40.4017 44.0289 40.4017C44.4116 40.4017 44.5187 40.3303 44.5187 40.2231C44.5187 39.8354 42.3249 40.3558 42.3249 38.8303C42.3249 38.1109 42.9932 37.5293 44.2738 37.5293C44.8299 37.5293 45.4218 37.6313 45.8299 37.8405L45.3963 38.8813C45.0085 38.667 44.6157 38.6007 44.2942 38.6007C43.8912 38.6007 43.7789 38.6925 43.7789 38.7844C43.7789 39.1823 45.9677 38.667 45.9677 40.1925C45.9677 40.8813 45.3197 41.4833 43.9983 41.4833C43.3402 41.4731 42.6565 41.32 42.2637 41.1006Z" fill="#73308A"/>
    <path d="M51.7984 38.8353H53.2269V40.8965C52.6351 41.2995 51.8188 41.5189 51.0994 41.5189C49.5229 41.5189 48.375 40.4679 48.375 38.968C48.375 37.468 49.5229 36.417 51.1351 36.417C52.0943 36.417 52.8698 36.7537 53.3647 37.3557L52.3137 38.2843C52.0076 37.9272 51.6504 37.7486 51.2219 37.7486C50.4974 37.7486 50.0382 38.218 50.0382 38.968C50.0382 39.6975 50.4974 40.1873 51.2015 40.1873C51.4055 40.1873 51.5994 40.1516 51.7984 40.07V38.8353Z" fill="#73308A"/>
    <path d="M53.6758 39.4938C53.6758 38.3356 54.6043 37.5244 55.89 37.5244C57.1859 37.5244 58.1043 38.3407 58.1043 39.4938C58.1043 40.6519 57.1859 41.4733 55.89 41.4733C54.6043 41.4733 53.6758 40.6519 53.6758 39.4938ZM56.5125 39.4938C56.5125 38.9989 56.2421 38.7489 55.89 38.7489C55.5431 38.7489 55.2727 38.9989 55.2727 39.4938C55.2727 39.9886 55.5431 40.2488 55.89 40.2488C56.2421 40.2488 56.5125 39.9886 56.5125 39.4938Z" fill="#73308A"/>
    <path d="M58.3906 40.5696C58.3906 40.0339 58.7886 39.6768 59.309 39.6768C59.8294 39.6768 60.2273 40.0339 60.2273 40.5696C60.2273 41.1002 59.8294 41.4777 59.309 41.4777C58.7886 41.4726 58.3906 41.1002 58.3906 40.5696Z" fill="#73308A"/>
    <path d="M30.5039 43.0439H32.1467V46.6459H34.3508V47.9214H30.5039V43.0439Z" fill="#73308A"/>
    <path d="M38.7854 46.3811H36.1375C36.2497 46.6719 36.515 46.8249 36.9028 46.8249C37.2497 46.8249 37.4487 46.7331 37.6987 46.5443L38.5201 47.3708C38.1527 47.7739 37.6119 47.9831 36.8569 47.9831C35.4538 47.9831 34.5508 47.1413 34.5508 46.0035C34.5508 44.8454 35.4793 44.0342 36.7089 44.0342C37.8364 44.0342 38.8058 44.7178 38.8058 46.0035C38.8058 46.1209 38.7956 46.2688 38.7854 46.3811ZM36.112 45.6209H37.3364C37.2752 45.2995 37.0456 45.1107 36.7242 45.1107C36.3977 45.1107 36.1732 45.2995 36.112 45.6209Z" fill="#73308A"/>
    <path d="M42.1042 47.7893C41.8593 47.9271 41.5072 47.9934 41.1348 47.9934C40.0838 47.9934 39.4716 47.4985 39.4716 46.4475V45.473H38.9512V44.3251H39.4716V43.2588H41.0481V44.3251H41.8287V45.473H41.0481V46.4271C41.0481 46.6618 41.1858 46.7944 41.3746 46.7944C41.5021 46.7944 41.6246 46.7587 41.7317 46.6873L42.1042 47.7893Z" fill="#73308A"/>
    <path d="M42.2637 47.6153L42.6973 46.5745C43.0596 46.7888 43.5749 46.9163 44.0289 46.9163C44.4116 46.9163 44.5187 46.8449 44.5187 46.7378C44.5187 46.35 42.3249 46.8704 42.3249 45.3449C42.3249 44.6256 42.9932 44.0439 44.2738 44.0439C44.8299 44.0439 45.4218 44.146 45.8299 44.3552L45.3963 45.396C45.0085 45.1817 44.6157 45.1153 44.2942 45.1153C43.8912 45.1153 43.7789 45.2072 43.7789 45.299C43.7789 45.697 45.9677 45.1817 45.9677 46.7072C45.9677 47.3959 45.3197 47.9979 43.9983 47.9979C43.3402 47.9877 42.6565 47.8347 42.2637 47.6153Z" fill="#73308A"/>
    <path d="M48.3809 45.4836C48.3809 43.9836 49.5288 42.9326 51.1002 42.9326C52.0542 42.9326 52.8093 43.2795 53.2889 43.9071L52.2532 44.8356C51.9675 44.4734 51.6257 44.2642 51.1869 44.2642C50.5033 44.2642 50.0441 44.7387 50.0441 45.4836C50.0441 46.2285 50.5033 46.7029 51.1869 46.7029C51.6257 46.7029 51.9675 46.4938 52.2532 46.1315L53.2889 47.0601C52.8093 47.6876 52.0542 48.0345 51.1002 48.0345C49.5288 48.0345 48.3809 46.9784 48.3809 45.4836Z" fill="#73308A"/>
    <path d="M53.4004 46.0084C53.4004 44.8503 54.3289 44.0391 55.6146 44.0391C56.9105 44.0391 57.8289 44.8554 57.8289 46.0084C57.8289 47.1665 56.9105 47.988 55.6146 47.988C54.3238 47.988 53.4004 47.1665 53.4004 46.0084ZM56.2371 46.0084C56.2371 45.5135 55.9667 45.2635 55.6146 45.2635C55.2626 45.2635 54.9922 45.5135 54.9922 46.0084C54.9922 46.5033 55.2626 46.7635 55.6146 46.7635C55.9667 46.7635 56.2371 46.5033 56.2371 46.0084Z" fill="#73308A"/>
    <path d="M62.538 42.748V47.9163H61.0381V47.6051C60.8085 47.8602 60.4667 47.9877 59.9922 47.9877C58.9973 47.9877 58.1504 47.2377 58.1504 46.0082C58.1504 44.7837 58.9922 44.0388 59.9922 44.0388C60.4105 44.0388 60.732 44.1409 60.9615 44.3654V42.748H62.538ZM60.9922 46.0082C60.9922 45.5133 60.7218 45.2633 60.3697 45.2633C60.0228 45.2633 59.7524 45.5133 59.7524 46.0082C59.7524 46.5031 60.0228 46.7633 60.3697 46.7633C60.7218 46.7633 60.9922 46.5031 60.9922 46.0082Z" fill="#73308A"/>
    <path d="M67.2678 46.3811H64.6199C64.7321 46.6719 64.9974 46.8249 65.3852 46.8249C65.7321 46.8249 65.926 46.7331 66.1811 46.5443L67.0025 47.3708C66.6352 47.7739 66.0944 47.9831 65.3393 47.9831C63.9362 47.9831 63.0332 47.1413 63.0332 46.0035C63.0332 44.8454 63.9618 44.0342 65.1913 44.0342C66.3188 44.0342 67.2882 44.7178 67.2882 46.0035C67.2882 46.1209 67.2729 46.2688 67.2678 46.3811ZM64.5893 45.6209H65.8138C65.7525 45.2995 65.5229 45.1107 65.2015 45.1107C64.875 45.1107 64.6556 45.2995 64.5893 45.6209Z" fill="#73308A"/>
    <path d="M67.5703 47.0852C67.5703 46.5495 67.9683 46.1924 68.4887 46.1924C69.0091 46.1924 69.407 46.5495 69.407 47.0852C69.407 47.6158 69.0091 47.9934 68.4887 47.9934C67.9683 47.9934 67.5703 47.6158 67.5703 47.0852Z" fill="#73308A"/>
  </g>
  <defs>
    <clipPath id="clip0_497_15267">
      <rect width="97.0744" height="85.8501" fill="white"/>
    </clipPath>
  </defs>
</svg>