<svg xmlns="http://www.w3.org/2000/svg" width="94" height="94" viewBox="0 0 94 94" fill="none">
  <g clip-path="url(#clip0_1107_5958)">
    <path d="M64.1318 76.7085C80.5699 67.218 86.2019 46.1988 76.7114 29.7608C67.2209 13.3227 46.2017 7.69066 29.7637 17.1812C13.3257 26.6717 7.69357 47.6909 17.1841 64.1289C26.6746 80.5669 47.6938 86.199 64.1318 76.7085Z" fill="#FF5C35"/>
    <path d="M40.0211 23.1588L39.7404 23.2454L39.9817 24.0201L38.944 24.3435L37.9826 21.2661L39.4643 20.8023C40.3217 20.5336 41.0071 20.811 41.23 21.5237C41.3681 21.9691 41.2614 22.3673 40.9521 22.6706L41.8941 23.4178L40.7858 23.7647L40.0211 23.1588ZM39.6487 21.6243L39.2696 21.7416L39.4941 22.4621L39.8732 22.3448C40.1583 22.2556 40.2522 22.0766 40.1836 21.8522C40.1128 21.6291 39.9338 21.5351 39.6487 21.6243Z" fill="white"/>
    <path d="M45.4766 21.8402L43.7427 22.0783C43.8413 22.2592 44.0284 22.3369 44.2841 22.3024C44.513 22.2718 44.6311 22.1949 44.7788 22.0487L45.3924 22.5185C45.1874 22.8167 44.8529 23.0011 44.3561 23.0703C43.4394 23.1963 42.7694 22.7243 42.6686 21.9817C42.5645 21.2236 43.0994 20.6073 43.9067 20.498C44.6459 20.3963 45.3419 20.7575 45.4578 21.6016C45.4653 21.6698 45.4688 21.7664 45.4766 21.8402ZM43.6566 21.5825L44.4605 21.4723C44.392 21.2682 44.2226 21.1658 44.0127 21.1941C43.7972 21.2228 43.6685 21.3668 43.6566 21.5825Z" fill="white"/>
    <path d="M49.1978 21.4854L49.1733 22.84L48.2065 22.8237L48.2125 22.4924C48.088 22.7442 47.8464 22.8634 47.4926 22.8587C46.8739 22.8474 46.5644 22.4923 46.57 22.0597C46.5778 21.5706 46.9525 21.305 47.7357 21.3199L48.1549 21.3274C48.1263 21.1321 47.9806 21.0305 47.6864 21.0234C47.4611 21.02 47.2052 21.0894 47.0368 21.2099L46.7183 20.5175C47.0161 20.3398 47.4663 20.2452 47.8563 20.2522C48.7227 20.2655 49.2128 20.647 49.1978 21.4854ZM48.147 22.0021L48.15 21.8264L47.8919 21.8216C47.6722 21.8179 47.5718 21.8903 47.57 22.0278C47.5667 22.1428 47.6587 22.2318 47.8143 22.2349C47.9586 22.2386 48.0904 22.1654 48.147 22.0021Z" fill="white"/>
    <path d="M53.8187 20.0919L53.2067 23.454L52.2335 23.2761L52.2697 23.0724C52.0902 23.2137 51.8528 23.255 51.5444 23.1981C50.8956 23.0794 50.437 22.4912 50.5827 21.6933C50.7285 20.8954 51.365 20.5105 52.0126 20.627C52.2845 20.676 52.4801 20.7836 52.6018 20.9541L52.7932 19.9036L53.8187 20.0919ZM52.4277 22.0295C52.4861 21.7085 52.3381 21.5125 52.1139 21.4708C51.8874 21.4304 51.6814 21.561 51.623 21.8819C51.5646 22.2029 51.7116 22.4023 51.9359 22.444C52.1614 22.4879 52.3705 22.3526 52.4277 22.0295Z" fill="white"/>
    <path d="M57.9009 22.3515L56.0645 24.4272C55.5724 24.987 55.1251 25.0363 54.6225 24.8594C54.3625 24.7658 54.0911 24.5772 53.9775 24.3904L54.5407 23.8331C54.6113 23.9403 54.7264 24.0392 54.8438 24.0817C54.9611 24.1242 55.0484 24.1145 55.1202 24.073L54.9748 21.3136L55.9824 21.6719L56.0219 23.1172L56.9738 22.0221L57.9009 22.3515Z" fill="white"/>
    <path d="M61.5104 27.1428C61.3252 27.1336 61.1057 27.0398 60.8997 26.9092C60.3143 26.5335 60.1507 26.039 60.5264 25.4536L60.8756 24.9125L60.5852 24.7262L60.9972 24.088L61.2875 24.2743L61.6686 23.6829L62.5443 24.245L62.1633 24.8364L62.5978 25.1165L62.1858 25.7547L61.7513 25.4746L61.4075 26.0097C61.3242 26.1419 61.3519 26.2652 61.4572 26.3321C61.5263 26.3763 61.6077 26.4018 61.6922 26.4024L61.5104 27.1428Z" fill="white"/>
    <path d="M62.9996 26.7538C63.4985 26.1757 64.3141 26.1661 64.9598 26.7217C65.6081 27.2817 65.7182 28.0856 65.2172 28.665C64.7161 29.2444 63.903 29.2584 63.2548 28.6984C62.6103 28.1449 62.502 27.3342 62.9996 26.7538ZM64.4206 27.9789C64.6342 27.7308 64.6073 27.4881 64.4305 27.3377C64.256 27.1861 64.0123 27.1962 63.7987 27.4443C63.585 27.6924 63.6111 27.9385 63.7844 28.088C63.9599 28.2362 64.207 28.227 64.4206 27.9789Z" fill="white"/>
    <path d="M67.5786 31.3042C68.2052 30.867 69.0005 31.0635 69.4993 31.7766C69.8502 32.279 69.8847 32.8161 69.5982 33.2194L68.8112 32.786C68.9443 32.5641 68.9357 32.3834 68.8334 32.2364C68.6992 32.0441 68.4511 31.9813 68.1842 32.1673C67.9108 32.3571 67.8867 32.6118 68.021 32.8042C68.1232 32.9511 68.2906 33.0199 68.5444 32.972L68.682 33.8587C68.2057 33.9886 67.712 33.7717 67.3589 33.2706C66.858 32.5588 66.9476 31.744 67.5786 31.3042Z" fill="white"/>
    <path d="M69.6961 34.4653C70.3828 34.1269 71.1378 34.4395 71.5124 35.2039C71.8895 35.9727 71.6742 36.7556 70.9875 37.094C70.3009 37.4324 69.5462 37.1253 69.1657 36.3557C68.7924 35.5934 69.0095 34.8037 69.6961 34.4653ZM70.5233 36.1492C70.8175 36.0055 70.8856 35.7717 70.7853 35.5628C70.6849 35.3538 70.4558 35.2685 70.1616 35.4122C69.8674 35.5559 69.7949 35.7922 69.8974 35.9999C69.9965 36.2067 70.2291 36.293 70.5233 36.1492Z" fill="white"/>
    <path d="M74.3361 40.3832L71.0631 41.3676L70.78 40.4199L70.9779 40.3607C70.7718 40.265 70.6263 40.0734 70.5362 39.7715C70.3464 39.1412 70.6637 38.4647 71.44 38.2313C72.2162 37.9978 72.8488 38.3899 73.0386 39.0201C73.1186 39.2844 73.114 39.5076 73.016 39.6947L74.04 39.3878L74.3361 40.3832ZM71.9787 40.0237C72.2928 39.9295 72.3977 39.7093 72.3316 39.4892C72.2655 39.2692 72.0543 39.1445 71.7424 39.2375C71.4283 39.3318 71.3178 39.5523 71.3839 39.7724C71.4491 39.9959 71.6647 40.118 71.9787 40.0237Z" fill="white"/>
    <path d="M72.6625 45.1145L72.44 43.3774C72.2578 43.4739 72.1801 43.6609 72.2124 43.9179C72.243 44.1468 72.3177 44.2662 72.4618 44.4151L71.9873 45.0256C71.69 44.8172 71.509 44.4836 71.4441 43.9843C71.326 43.066 71.8027 42.3991 72.5468 42.3061C73.3052 42.2076 73.9185 42.7472 74.0234 43.557C74.1196 44.2965 73.7536 44.9894 72.9092 45.0997C72.8341 45.1054 72.7375 45.1089 72.6625 45.1145ZM72.9349 43.2948L73.0394 44.099C73.2436 44.0305 73.3485 43.8655 73.3223 43.6543C73.2936 43.4387 73.1518 43.3088 72.9349 43.2948Z" fill="white"/>
    <path d="M73.3735 51.2083L72.5593 51.1097L71.9922 48.675L72.7711 48.7678L73.0817 50.2104L73.7234 48.8795L74.5023 48.9724L73.3735 51.2083Z" fill="#73308A"/>
    <path d="M72.5064 55.9155L72.844 55.0329L73.632 55.3324L72.5707 58.1124L71.7827 57.813L72.1204 56.9304L69.8957 56.0823L70.2839 55.0662L72.5064 55.9155Z" fill="white"/>
    <path d="M68.9427 61.0338L67.6994 60.3125L68.2217 59.4132L69.3088 60.0448C69.5794 60.2019 69.7435 60.1594 69.8372 59.9951C69.9433 59.812 69.9186 59.5883 69.5955 59.4006L68.5725 58.8045L69.0948 57.9053L72.0505 59.6224L71.5281 60.5217L70.5763 59.9687C70.6229 60.2203 70.5704 60.4711 70.4337 60.7067C70.1443 61.2104 69.6273 61.4306 68.9427 61.0338Z" fill="white"/>
    <path d="M66.0487 64.0752L67.1631 62.7238C66.9677 62.6568 66.7773 62.729 66.6136 62.9279C66.4667 63.1056 66.4299 63.2429 66.4221 63.4505L65.6529 63.5203C65.602 63.1609 65.7211 62.7991 66.0413 62.414C66.6299 61.6999 67.442 61.5938 68.0222 62.0711C68.6109 62.5581 68.6373 63.3727 68.119 64.0027C67.6447 64.5782 66.8871 64.7836 66.2321 64.242C66.1695 64.194 66.1013 64.126 66.0487 64.0752ZM67.5609 63.0309L67.0457 63.6562C67.2353 63.7585 67.4278 63.72 67.5632 63.5576C67.7005 63.3884 67.6969 63.1961 67.5609 63.0309Z" fill="white"/>
    <path d="M63.8217 66.9832C64.3969 67.7885 64.1839 68.7964 63.3432 69.4007C62.8294 69.767 62.2919 69.8713 61.7919 69.719L61.9936 68.822C62.287 68.908 62.5515 68.8888 62.7867 68.7182C63.1548 68.4563 63.219 68.0247 62.9314 67.622C62.6438 67.2194 62.2137 67.1428 61.8489 67.4056C61.6125 67.574 61.5101 67.8188 61.4947 68.1237L60.5792 68.0255C60.5962 67.5022 60.8671 67.0266 61.3797 66.6581C62.2225 66.0525 63.2453 66.1758 63.8217 66.9832Z" fill="white"/>
    <path d="M60.0513 69.1195C60.3897 69.8061 60.0771 70.5611 59.3127 70.9357C58.5452 71.315 57.7601 71.1009 57.4217 70.4143C57.0833 69.7276 57.3891 68.9708 58.1578 68.5937C58.9222 68.2191 59.712 68.4363 60.0513 69.1195ZM58.3686 69.9488C58.5145 70.2417 58.7474 70.3133 58.9538 70.2086C59.1594 70.1073 59.2481 69.8791 59.1044 69.5849C58.9607 69.2908 58.7244 69.2182 58.5167 69.3208C58.3102 69.4255 58.2227 69.6559 58.3686 69.9488Z" fill="white"/>
    <path d="M54.1412 73.77L53.1511 70.4973L54.0998 70.2107L54.159 70.4086C54.2547 70.2025 54.4463 70.057 54.747 69.9647C55.3772 69.7749 56.0546 70.0888 56.2902 70.8638C56.5237 71.6401 56.1351 72.2735 55.5026 72.4646C55.2384 72.5446 55.0152 72.54 54.8259 72.4433L55.135 73.466L54.1412 73.77ZM54.496 71.4094C54.5902 71.7235 54.8104 71.8284 55.0305 71.7623C55.2505 71.6962 55.3752 71.485 55.2809 71.1709C55.1866 70.8569 54.9661 70.7463 54.7439 70.8137C54.5217 70.881 54.4017 71.0954 54.496 71.4094Z" fill="white"/>
    <path d="M52.5155 73.9227C52.5648 74.2191 52.3578 74.4837 51.981 74.5446C51.6041 74.6055 51.3294 74.4363 51.2801 74.1398C51.2298 73.8265 51.4334 73.561 51.8124 73.4988C52.1892 73.4379 52.4674 73.6284 52.5155 73.9227ZM52.2942 73.2177L51.2674 73.3841L50.8649 70.8979L51.8917 70.7315L52.2942 73.2177Z" fill="white"/>
    <path d="M46.8537 72.5845L46.8137 71.1482L47.8554 71.1183L47.8903 72.3748C47.9001 72.6883 48.0219 72.8037 48.2107 72.7991C48.422 72.7932 48.5971 72.6543 48.5883 72.2822L48.5556 71.0999L49.5974 71.07L49.6675 73.5886L48.6762 73.6154L48.6692 73.3671C48.4766 73.5711 48.2115 73.6748 47.917 73.6824C47.3349 73.6993 46.8731 73.3769 46.8537 72.5845Z" fill="white"/>
    <path d="M42.3889 73.1701L42.672 71.173C42.8098 70.2056 43.4411 69.8266 44.3926 69.962C44.8853 70.0315 45.3165 70.2003 45.5971 70.4503L45.15 71.103C44.975 70.9255 44.6568 70.7814 44.3876 70.7424C43.9641 70.6823 43.7679 70.8449 43.7214 71.1764L43.715 71.2207C43.8948 71.0647 44.1358 71.0097 44.4401 71.0545C45.0726 71.1448 45.5724 71.6889 45.4682 72.428C45.364 73.1671 44.7327 73.5461 44.098 73.457C43.7562 73.4077 43.5284 73.2694 43.4067 73.0234L43.3662 73.3051L42.3889 73.1701ZM43.5768 72.1622C43.5417 72.403 43.7024 72.5858 43.9453 72.6196C44.1861 72.6547 44.3956 72.5251 44.4307 72.2843C44.4645 72.0414 44.3004 71.8576 44.0596 71.8225C43.8154 71.7865 43.6097 71.9227 43.5768 72.1622Z" fill="white"/>
    <path d="M35.7885 70.3948C36.0827 69.7085 36.7918 69.4993 37.6167 69.8528L38.0442 70.0354L38.3551 69.3075L39.3556 69.7338L38.0903 72.6983L36.6624 72.0895C35.8353 71.7372 35.4942 71.0811 35.7885 70.3948ZM36.7949 70.8263C36.702 71.0424 36.7786 71.2303 37.0524 71.3478L37.4174 71.5027L37.7136 70.8095L37.3485 70.6546C37.0756 70.5337 36.8877 70.6102 36.7949 70.8263Z" fill="white"/>
    <path d="M32.804 67.4317L34.2811 68.3719C34.3229 68.1679 34.2289 67.9901 34.0123 67.8511C33.8191 67.7276 33.6772 67.708 33.4688 67.7239L33.3052 66.9682C33.6542 66.8741 34.0279 66.9485 34.4526 67.2168C35.2334 67.7148 35.4407 68.5061 35.0353 69.1406C34.6249 69.7866 33.8173 69.9105 33.1303 69.4744C32.5018 69.0742 32.2016 68.3482 32.6606 67.6306C32.6996 67.5674 32.7603 67.4917 32.804 67.4317ZM34.0246 68.8072L33.3411 68.3721C33.2632 68.5738 33.3238 68.7592 33.5029 68.8734C33.6854 68.9886 33.8764 68.9625 34.0246 68.8072Z" fill="white"/>
    <path d="M31.7156 66.9171C31.206 67.4869 30.3907 67.4818 29.7533 66.9156C29.1135 66.345 29.0189 65.5379 29.5284 64.9681C30.0379 64.3983 30.8516 64.3956 31.4915 64.9662C32.1267 65.5337 32.2251 66.3473 31.7156 66.9171ZM30.3147 65.6717C30.0964 65.9167 30.1199 66.1585 30.2936 66.3135C30.466 66.4664 30.71 66.4619 30.9283 66.2169C31.1466 65.9719 31.1262 65.7255 30.9538 65.5726C30.7801 65.4175 30.533 65.4267 30.3147 65.6717Z" fill="white"/>
    <path d="M26.8006 61.7368C27.4332 61.2294 28.1668 61.3542 28.5792 61.8676C28.7531 62.0834 28.832 62.2903 28.812 62.502L29.6399 61.8354L30.2909 62.6463L27.632 64.7849L27.0127 64.0138L27.1748 63.8825C26.9479 63.8713 26.7401 63.7476 26.5442 63.5038C26.1305 62.9883 26.168 62.2442 26.8006 61.7368ZM27.46 62.5573C27.2044 62.7629 27.1843 63.0095 27.3291 63.1899C27.4739 63.3703 27.719 63.4029 27.9746 63.1973C28.2302 62.9917 28.2459 62.7476 28.1024 62.5694C27.9576 62.389 27.7156 62.3517 27.46 62.5573Z" fill="white"/>
    <path d="M24.2579 61.7558L23.716 60.8675L26.6352 59.0892L27.1771 59.9776L24.2579 61.7558Z" fill="white"/>
    <path d="M23.9725 55.9565L24.6886 57.5537C24.8363 57.4075 24.8569 57.207 24.7493 56.9703C24.6546 56.761 24.5476 56.6661 24.366 56.5678L24.6436 55.8476C24.9882 55.962 25.2587 56.2294 25.4639 56.6854C25.8423 57.5317 25.578 58.3052 24.8928 58.6109C24.1945 58.9241 23.4525 58.5836 23.1198 57.8415C22.8144 57.1619 22.9653 56.393 23.7435 56.0423C23.8104 56.0124 23.9031 55.9821 23.9725 55.9565ZM24.238 57.7733L23.9065 57.0333C23.7295 57.1587 23.6789 57.3475 23.7648 57.5416C23.8533 57.7401 24.026 57.8231 24.238 57.7733Z" fill="white"/>
    <path d="M21.5394 50.3158L22.3459 50.1751L23.5882 52.3418L22.8162 52.4771L22.1048 51.1847L21.8726 52.6418L21.1006 52.777L21.5394 50.3158Z" fill="#73308A"/>
    <path d="M20.1522 48.6815L20.1479 47.0912C20.1463 46.0128 20.7591 45.2702 21.7564 45.2689C22.7559 45.2663 23.3701 46.0084 23.3739 47.0855L23.3782 48.6759L20.1522 48.6815ZM22.5258 47.1342C22.5266 46.6782 22.2522 46.3637 21.7604 46.3662C21.2686 46.3687 20.9957 46.68 20.9962 47.1382L20.9954 47.5941L22.525 47.5901L22.5258 47.1342Z" fill="#73308A"/>
    <path d="M23.1669 41.3059L23.9734 41.4466L23.5118 44.0894L20.3332 43.5338L20.7839 40.9525L21.5905 41.0932L21.3243 42.6221L21.6951 42.6866L21.9297 41.3441L22.7011 41.4791L22.4664 42.8215L22.8828 42.8944L23.1669 41.3059Z" fill="#73308A"/>
    <path d="M22.3733 36.0008L24.9535 38.3642L24.5974 39.3706L21.1042 39.5768L21.4952 38.4749L23.5271 38.3811L22.015 37.0084L22.3733 36.0008Z" fill="#73308A"/>
    <path d="M23.0083 34.7822L23.511 33.8188L26.3697 35.3076L25.8669 36.271L23.0083 34.7822Z" fill="#73308A"/>
    <path d="M25.6798 31.8663L26.1322 32.1824L26.9024 31.0792L27.5746 31.5499L26.8044 32.6532L27.6504 33.2441L27.0285 34.1369L24.3827 32.2931L25.8825 30.1419L26.5547 30.6126L25.6798 31.8663Z" fill="#73308A"/>
    <path d="M29.7477 28.9239L30.5848 29.7404L29.8265 30.5176L28.9789 29.6927L26.6695 29.1401L27.469 28.3188L28.7279 28.6248L28.3938 27.3728L29.1266 26.6219L29.7477 28.9239Z" fill="#73308A"/>
    <path d="M51.5626 55.5477C45.5524 59.0176 37.8377 56.9523 34.3665 50.94C30.8952 44.9276 32.9618 37.2151 38.9742 33.7439C44.9843 30.2739 52.699 32.3392 56.1703 38.3516C59.6415 44.3639 57.5728 52.0777 51.5626 55.5477Z" fill="#FCDC3E"/>
    <path d="M39.4797 34.6138C45.022 31.414 52.1064 33.3122 55.3063 38.8546C58.5062 44.3969 56.6079 51.4813 51.0656 54.6811C45.5232 57.881 38.4389 55.9828 35.239 50.4404C32.0391 44.8981 33.9374 37.8137 39.4797 34.6138ZM38.4772 32.8774C31.9882 36.6237 29.7549 44.9519 33.5025 51.443C37.2489 57.9319 45.577 60.1652 52.0681 56.4176C58.5592 52.67 60.7904 44.3431 57.0428 37.852C53.2951 31.3609 44.9661 29.131 38.4772 32.8774Z" fill="#FF5C35"/>
    <path d="M41.7695 47.5146L44.026 47.2419C46.0298 46.9989 47.849 45.9486 49.0613 44.3347L50.4258 42.517" stroke="#73308A" stroke-width="2.34964" stroke-miterlimit="10" stroke-linecap="round" stroke-linejoin="round"/>
    <path d="M42.7017 52.065L40.3059 53.4483L39.0731 50.5391C38.7528 49.9842 38.0367 49.7942 37.484 50.1133L36.3459 50.7703C35.791 51.0907 35.601 51.8068 35.9201 52.3595L37.5129 56.6711C37.5845 56.7951 37.6772 56.8954 37.7792 56.9816C37.8062 57.0385 37.8242 57.0948 37.8556 57.1492L40.6309 61.9561C41.1761 62.9005 42.3946 63.227 43.339 62.6817L47.4582 60.3035C48.4026 59.7582 48.7291 58.5397 48.1838 57.5954L45.4086 52.7885C44.8646 51.8463 43.6461 51.5198 42.7017 52.065Z" fill="#73308A"/>
    <path d="M54.343 45.3452L56.7388 43.962L54.8358 41.4398C54.5155 40.8849 54.7089 40.1697 55.2616 39.8506L56.3997 39.1936C56.9546 38.8732 57.6698 39.0667 57.9889 39.6194L60.9264 43.1545C60.998 43.2786 61.0385 43.409 61.0622 43.5404C61.0979 43.5923 61.1377 43.6361 61.1691 43.6905L63.9443 48.4973C64.4896 49.4417 64.1631 50.6602 63.2187 51.2054L59.0995 53.5837C58.1551 54.1289 56.9366 53.8024 56.3914 52.858L53.6161 48.0512C53.0721 47.109 53.3986 45.8905 54.343 45.3452Z" fill="#73308A"/>
    <path d="M46.2853 14.8838L46.6948 15.5931L45.0861 17.5055L44.6942 16.8266L45.6619 15.7137L44.2142 15.9953L43.8223 15.3164L46.2853 14.8838Z" fill="white"/>
  </g>
  <defs>
    <clipPath id="clip0_1107_5958">
      <rect width="68.7363" height="68.7363" fill="white" transform="translate(0 34.3682) rotate(-30)"/>
    </clipPath>
  </defs>
</svg>