<svg xmlns="http://www.w3.org/2000/svg" width="58" height="62" viewBox="0 0 58 62" fill="none">
  <g clip-path="url(#clip0_1107_6009)">
    <path d="M57.3923 27.8061C57.3923 32.6039 57.4631 37.3963 57.3771 42.1941C57.19 52.8767 49.9374 60.8016 39.8729 61.0747C32.3928 61.2781 24.9025 61.2889 17.4274 61.0693C7.42863 60.7748 0.221606 53.0052 0.0749367 42.4351C-0.0616175 32.3255 -0.0160994 22.2105 0.0698791 12.1009C0.125512 5.92696 3.92374 1.24163 9.43143 0.181406C14.7014 -0.835981 19.8601 2.5321 22.0399 8.19199C22.3889 9.10228 23.456 10.0822 24.3563 10.3071C26.349 10.8104 28.4479 11.0835 30.5012 11.046C33.647 10.9925 35.1694 8.94699 36.5197 5.94303C38.6439 1.21486 43.8886 -0.8574 48.5618 0.35811C53.7255 1.69678 57.195 6.10367 57.3366 11.8599C57.4681 17.1718 57.367 22.4889 57.367 27.8061C57.372 27.8061 57.3822 27.8061 57.3923 27.8061ZM19.0104 15.2173C18.9093 13.8305 18.8638 12.9094 18.7727 11.9938C18.2973 7.1746 15.2527 4.03141 11.1611 4.10638C6.93805 4.1867 3.8934 7.57085 3.85294 12.5721C3.77201 22.5746 3.70121 32.5878 3.87822 42.5904C4.02489 50.9222 9.83603 56.9194 17.6449 57.0265C25.0289 57.1283 32.413 57.1283 39.797 57.0265C47.1305 56.9248 53.0478 51.5327 53.3563 43.7523C53.7812 33.043 53.5991 22.2908 53.4019 11.5654C53.3209 7.10499 50.0689 4.1385 46.1139 4.11173C42.1033 4.0796 38.9575 7.27634 38.6034 11.7582C38.5175 12.8398 38.4871 13.9322 38.4113 15.3887C34.608 13.5627 31.5127 14.3713 28.6451 17.0165C25.909 14.2588 22.7632 13.7341 19.0104 15.2173Z" fill="#FCDC3E"/>
    <path d="M19.012 15.2169C22.7597 13.7337 25.9105 14.2584 28.6467 17.0161C31.5143 14.3655 34.6045 13.5623 38.4128 15.3883C38.4887 13.9318 38.519 12.8395 38.605 11.7578C38.959 7.27595 42.1048 4.07922 46.1155 4.11135C50.0654 4.14348 53.3174 7.10461 53.4034 11.565C53.6007 22.2904 53.7827 33.0372 53.3579 43.7519C53.0494 51.5323 47.1371 56.9244 39.7986 57.0261C32.4145 57.1279 25.0305 57.1279 17.6465 57.0261C9.83758 56.9137 4.02645 50.9218 3.87978 42.59C3.70782 32.5875 3.77862 22.5796 3.85449 12.5717C3.89495 7.56511 6.9396 4.18631 11.1576 4.10599C15.2492 4.02567 18.2989 7.17422 18.7743 11.9881C18.8704 12.9091 18.9159 13.8301 19.012 15.2169ZM7.17731 29.0159C7.17731 33.3585 7.16719 37.2996 7.18742 41.2406C7.19248 42.2794 7.20259 43.3396 7.37455 44.357C8.24951 49.535 12.1944 53.31 17.252 53.4064C24.8333 53.5563 32.4196 53.5617 40.0009 53.4117C45.7159 53.2993 50.116 48.6836 50.202 42.6328C50.3436 32.6249 50.2728 22.6117 50.2121 12.6038C50.1919 9.55169 48.3813 7.59188 45.9688 7.66149C43.6373 7.72575 42.0542 9.57311 42.0037 12.5289C41.943 16.3842 42.0188 20.245 42.0239 24.1003C42.034 32.5607 38.3622 35.6825 31.1046 33.9047C29.3294 36.5124 27.6655 38.9595 25.9611 41.4655C26.3202 42.7506 26.9726 44.3195 27.1041 45.9313C27.1648 46.6381 26.1583 47.4413 25.6374 48.1963C25.0507 47.6126 24.0544 47.1093 23.9431 46.44C23.407 43.1897 21.7178 41.5244 18.6377 41.1121C17.9803 41.0264 17.434 40.0197 16.8372 39.4361C17.52 38.8256 18.1269 37.8618 18.8957 37.6905C20.2157 37.3959 21.647 37.7065 23.0125 37.5619C25.2379 37.3263 26.6793 36.0252 26.8563 33.5834C27.0333 31.1363 25.7537 29.2301 23.6043 29.1123C18.2432 28.8231 12.8569 29.0159 7.17731 29.0159ZM15.3807 25.0534C15.3807 20.4056 15.5375 15.9612 15.3149 11.5383C15.1986 9.23576 13.6409 7.73646 11.37 7.69362C9.11435 7.65078 7.44536 9.01087 7.32903 11.3616C7.1065 15.8809 7.26328 20.4217 7.26328 25.0534C10.1107 25.0534 12.6091 25.0534 15.3807 25.0534ZM38.5595 24.5073C38.5595 23.779 38.5999 23.0508 38.5544 22.3279C38.3875 19.8219 37.1889 18.2423 34.7562 18.0013C32.455 17.7711 30.6444 19.3882 30.3814 22.0227C30.2196 23.6612 30.1892 25.364 30.4117 26.9918C30.7455 29.4443 32.1617 30.9757 34.6146 30.8579C37.027 30.7455 38.3319 29.214 38.5494 26.6813C38.605 25.9637 38.5544 25.2355 38.5595 24.5073ZM26.7197 25.9584C26.9271 23.2703 27.7717 20.2771 24.9749 18.7242C23.7863 18.0603 21.5863 18.2262 20.418 18.992C18.3292 20.3628 18.5669 22.8098 19.2092 25.0267C21.6976 25.3372 24.024 25.6264 26.7197 25.9584Z" fill="#FF5C35"/>
    <path d="M7.17245 29.0154C12.8521 29.0154 18.2384 28.8226 23.5994 29.1118C25.7489 29.2296 27.0234 31.1358 26.8514 33.5829C26.6744 36.0193 25.233 37.3258 23.0077 37.5614C21.6421 37.706 20.2108 37.3954 18.8908 37.6899C18.1221 37.8613 17.5152 38.8251 16.8324 39.4356C17.4292 40.0192 17.9754 41.0259 18.6329 41.1116C21.7129 41.5239 23.4022 43.1838 23.9383 46.4395C24.0495 47.1088 25.0459 47.6175 25.6326 48.1958C26.1535 47.4354 27.1599 46.6322 27.0992 45.9308C26.9678 44.319 26.3153 42.7501 25.9562 41.465C27.6606 38.959 29.3296 36.5119 31.0998 33.9042C38.3574 35.6819 42.0292 32.5602 42.0191 24.0998C42.014 20.2391 41.9381 16.3837 41.9988 12.5284C42.0443 9.57259 43.6324 7.72523 45.964 7.66098C48.3764 7.59136 50.1921 9.55117 50.2072 12.6033C50.2679 22.6112 50.3387 32.6244 50.1971 42.6323C50.1111 48.6831 45.7111 53.2988 39.996 53.4112C32.4147 53.5612 24.8284 53.5558 17.2471 53.4059C12.1946 53.3041 8.24465 49.5345 7.3697 44.3565C7.19774 43.3391 7.18762 42.2789 7.18257 41.2401C7.16234 37.299 7.17245 33.358 7.17245 29.0154Z" fill="#FCDC3E"/>
    <path d="M15.38 25.0534C12.6034 25.0534 10.11 25.0534 7.26262 25.0534C7.26262 20.4217 7.10584 15.8809 7.32837 11.3616C7.44469 9.01086 9.11369 7.64543 11.3694 7.69362C13.6402 7.73645 15.1979 9.23576 15.3143 11.5383C15.5368 15.9612 15.38 20.4109 15.38 25.0534Z" fill="#FCDC3E"/>
    <path d="M38.5551 24.5076C38.55 25.2359 38.6057 25.9641 38.545 26.687C38.3275 29.2197 37.0227 30.7458 34.6102 30.8636C32.1573 30.9814 30.7412 29.4446 30.4074 26.9976C30.1848 25.3697 30.2152 23.667 30.377 22.0284C30.64 19.3939 32.4557 17.7768 34.7518 18.0071C37.1845 18.248 38.3781 19.8223 38.55 22.3336C38.5956 23.0512 38.5551 23.7794 38.5551 24.5076Z" fill="#FCDC3E"/>
    <path d="M26.721 25.9592C24.0253 25.6272 21.7039 25.3381 19.2156 25.0275C18.5682 22.8107 18.3356 20.3636 20.4243 18.9928C21.5926 18.2271 23.7927 18.0611 24.9812 18.7251C27.773 20.2779 26.9284 23.2712 26.721 25.9592Z" fill="#FCDC3E"/>
  </g>
  <defs>
    <clipPath id="clip0_1107_6009">
      <rect width="57.4286" height="61.2306" fill="white"/>
    </clipPath>
  </defs>
</svg>