<svg xmlns="http://www.w3.org/2000/svg" width="135" height="34" viewBox="0 0 135 34" fill="none">
  <g clip-path="url(#clip0_497_15298)">
    <path d="M127.239 19.6938L12.6652 32.715C8.39634 33.2001 4.50966 30.1066 4.02542 25.8457C3.54077 21.5812 6.6382 17.6977 10.9034 17.2129L125.477 4.19179C129.746 3.70664 133.633 6.80014 134.117 11.061C134.601 15.3219 131.508 19.2087 127.239 19.6938Z" fill="#1D1D1B"/>
    <path d="M124.107 16.758L9.53276 29.7792C5.26758 30.2639 1.37726 27.1708 0.892609 22.9063C0.408367 18.6454 3.50539 14.7582 7.77057 14.2735L122.345 1.25233C126.613 0.76719 130.5 3.86069 130.984 8.12157C131.473 12.3857 128.376 16.2729 124.107 16.758Z" fill="#6BCDB2"/>
    <path d="M14.4185 18.2508L11.7145 18.5581L11.6348 17.8564L17.8615 17.1488L17.9412 17.8505L15.2336 18.1582L16.0278 25.1457L15.2126 25.2384L14.4185 18.2508Z" fill="white"/>
    <path d="M25.5941 16.2654L26.4683 23.9583L25.6641 24.0497L25.2608 20.5014L20.4425 21.049L20.8457 24.5973L20.0305 24.6899L19.1562 16.9971L19.9714 16.9044L20.3611 20.3328L25.1794 19.7852L24.7898 16.3568L25.5941 16.2654Z" fill="white"/>
    <path d="M34.3404 22.3529L34.4201 23.0546L28.9758 23.6733L28.1016 15.9805L33.3821 15.3803L33.4618 16.082L28.9929 16.5899L29.304 19.3275L33.2853 18.875L33.3638 19.5658L29.3825 20.0182L29.7072 22.8758L34.34 22.3493L34.3404 22.3529Z" fill="white"/>
    <path d="M38.2111 19.6299C38.0086 17.8485 39.2409 16.4306 41.166 16.2118C42.4106 16.0703 43.4507 16.4971 43.9901 17.4154L42.7391 18.2793C42.3552 17.7559 41.8532 17.5551 41.3146 17.6164C40.4448 17.7152 39.8329 18.396 39.9502 19.4285C40.0675 20.461 40.8167 20.9872 41.6864 20.8884C42.2251 20.8271 42.6705 20.5298 42.9259 19.9226L44.3405 20.4984C44.0184 21.4924 43.1019 22.1526 41.8573 22.2941C39.9289 22.5169 38.4135 21.4113 38.2111 19.6299Z" fill="white"/>
    <path d="M44.6434 17.9968C44.355 15.4592 45.5998 13.8595 47.4922 13.6444C49.3955 13.4281 50.9566 14.709 51.245 17.2466C51.5334 19.7842 50.2995 21.3827 48.3962 21.599C46.5038 21.8141 44.9318 20.5345 44.6434 17.9968ZM49.4509 17.4505C49.2521 15.7018 48.5549 15.0482 47.6633 15.1495C46.7826 15.2496 46.2502 16.0466 46.4485 17.7917C46.6472 19.5404 47.3445 20.194 48.2252 20.0939C49.1168 19.9926 49.6496 19.1992 49.4509 17.4505Z" fill="white"/>
    <path d="M58.0154 12.1132L58.9421 20.2678L57.3045 20.4539L57.2272 19.7741C56.8565 20.3391 56.2594 20.6647 55.4661 20.7549C53.792 20.9452 52.3727 19.906 52.1616 18.0482C51.9504 16.1904 53.104 14.8588 54.7744 14.669C55.4986 14.5867 56.1433 14.7454 56.6277 15.1801L56.3013 12.308L58.0154 12.1132ZM56.9213 17.5036C56.8052 16.482 56.0766 15.9424 55.2287 16.0388C54.3698 16.1364 53.781 16.8257 53.8971 17.8473C54.0132 18.8689 54.7417 19.4084 55.6006 19.3108C56.4485 19.2144 57.0374 18.5252 56.9213 17.5036Z" fill="white"/>
    <path d="M62.2562 12.099L63.1305 19.7918L61.3473 19.9945L60.6354 13.7304L59.096 13.9053L58.9336 12.4766L62.2562 12.099Z" fill="white"/>
    <path d="M70.5038 15.5255L70.8885 18.9102L69.1708 19.1054L68.8163 15.9861C68.7076 15.03 68.2173 14.6401 67.4603 14.7261C66.6342 14.82 66.0984 15.3928 66.222 16.4798L66.5542 19.4028L64.8364 19.598L64.1646 13.6866L65.8023 13.5005L65.8808 14.1912C66.2855 13.6334 66.9456 13.2785 67.7499 13.1871C69.1477 13.0319 70.2989 13.7223 70.5038 15.5255Z" fill="white"/>
    <path d="M77.9362 12.1212L78.4957 17.0438C78.7456 19.2433 77.6705 20.3892 75.5379 20.6316C74.417 20.759 73.2938 20.6068 72.5412 20.1473L73.0817 18.8375C73.6338 19.1872 74.4897 19.3551 75.2466 19.269C76.4585 19.1313 76.9238 18.5224 76.8027 17.4571L76.7738 17.2027C76.3787 17.7484 75.7586 18.0656 74.9871 18.1533C73.3495 18.3394 71.8999 17.3589 71.7037 15.632C71.5074 13.9051 72.7 12.6243 74.3376 12.4382C75.1637 12.3443 75.8752 12.5396 76.3918 13.0627L76.3054 12.3029L77.9358 12.1176L77.9362 12.1212ZM76.5588 15.0839C76.4601 14.215 75.7462 13.7069 74.8436 13.8095C73.9411 13.912 73.3485 14.5686 73.4473 15.4375C73.546 16.3064 74.2708 16.8132 75.1734 16.7106C76.0759 16.6081 76.6572 15.9491 76.5588 15.0839Z" fill="white"/>
    <path d="M89.43 13.8092C89.6411 15.667 88.4875 16.9986 86.828 17.1872C86.0929 17.2708 85.4591 17.1108 84.9638 16.6773L85.2774 19.4367L83.5634 19.6315L82.649 11.586L84.2867 11.3999L84.3639 12.0797C84.7347 11.5147 85.3426 11.1878 86.136 11.0977C87.7959 10.9127 89.2189 11.9515 89.43 13.8092ZM87.6904 14.0069C87.5743 12.9853 86.8567 12.4446 85.9979 12.5422C85.139 12.6398 84.5611 13.3278 84.6772 14.3494C84.7933 15.371 85.5109 15.9118 86.3697 15.8142C87.2286 15.7166 87.8066 15.0285 87.6904 14.0069Z" fill="white"/>
    <path d="M96.3931 13.5083L91.9168 14.017C92.164 14.7327 92.8448 15.112 93.7474 15.0094C94.3733 14.9383 94.8035 14.7016 95.1673 14.2699L96.1932 15.155C95.7147 15.8427 94.9262 16.2675 93.8599 16.3886C91.8146 16.6211 90.3364 15.4855 90.1368 13.7295C89.9356 11.959 91.1448 10.5327 92.9462 10.3279C94.6858 10.1302 96.1572 11.1414 96.3733 13.0428C96.3882 13.1737 96.3879 13.3652 96.3931 13.5083ZM91.7813 13.0197L94.6964 12.6884C94.4912 11.9531 93.8721 11.5337 93.1042 11.621C92.3218 11.7099 91.8151 12.2462 91.7813 13.0197Z" fill="white"/>
    <path d="M97.0516 12.0408C96.7632 9.50316 98.008 7.90342 99.9004 7.68835C101.804 7.47204 103.365 8.7529 103.653 11.2905C103.942 13.8281 102.708 15.4266 100.804 15.643C98.912 15.858 97.34 14.5784 97.0516 12.0408ZM101.859 11.4944C101.66 9.74572 100.963 9.09214 100.071 9.19347C99.1908 9.29356 98.6584 10.0906 98.8567 11.8356C99.0554 13.5843 99.7527 14.2379 100.633 14.1378C101.521 14.0369 102.058 13.2431 101.859 11.4944Z" fill="white"/>
    <path d="M111.43 11.3088C111.641 13.1666 110.487 14.4982 108.828 14.6868C108.093 14.7704 107.459 14.6104 106.964 14.1769L107.277 16.9363L105.559 17.1315L104.645 9.08601L106.283 8.89989L106.36 9.57974C106.731 9.01469 107.339 8.68782 108.132 8.59765C109.796 8.41228 111.219 9.45106 111.43 11.3088ZM109.694 11.5061C109.578 10.4845 108.86 9.94373 108.001 10.0413C107.142 10.1389 106.564 10.827 106.681 11.8486C106.797 12.8702 107.514 13.411 108.373 13.3133C109.228 13.2161 109.81 12.5277 109.694 11.5061Z" fill="white"/>
    <path d="M111.98 5.98047L113.698 5.78525L114.625 13.9398L112.907 14.135L111.98 5.98047Z" fill="white"/>
    <path d="M121.277 10.8011C121.424 12.099 120.558 13.3979 118.367 13.6469C117.29 13.7693 116.143 13.5978 115.337 13.1554L115.873 11.7135C116.506 12.0872 117.349 12.2454 118.154 12.154C119.045 12.0527 119.553 11.6267 119.482 11.0014C119.416 10.4197 118.945 10.1049 117.934 10.2199L117.119 10.3126L116.985 9.13827L118.364 7.16602L115.086 7.53867L114.923 6.10989L120.313 5.49736L120.444 6.64983L118.929 8.82528C120.348 8.89228 121.148 9.67044 121.277 10.8011Z" fill="white"/>
  </g>
  <defs>
    <clipPath id="clip0_497_15298">
      <rect width="133.709" height="18.8766" fill="white" transform="translate(0.0117188 15.1553) rotate(-6.48375)"/>
    </clipPath>
  </defs>
</svg>