<svg  viewBox="0 0 55 55" fill="none" xmlns="http://www.w3.org/2000/svg">
<g clip-path="url(#clip0_497_13856)">
<path d="M27.5045 54.1015C12.8402 54.1015 0.907492 42.1688 0.907491 27.5045C0.90749 12.8402 12.8402 0.907497 27.5045 0.907496C42.1687 0.907495 54.1014 12.8312 54.1015 27.5045C54.1015 42.1777 42.1688 54.1015 27.5045 54.1015ZM27.5045 55C42.6899 55 55 42.6899 55 27.5045C55 12.319 42.6899 0.00895036 27.5045 0.00895168C12.319 0.00895301 0.00894555 12.319 0.00894688 27.5045C-3.92232e-05 42.6899 12.3101 55 27.5045 55Z" fill="#E4FF2A"/>
<path d="M16.0929 25.5543L27.5045 36.9658L38.916 25.5543" stroke="#E4FF2A" stroke-width="0.898547" stroke-miterlimit="10"/>
<path d="M27.5059 36.9658L27.5059 18.0334" stroke="#E4FF2A" stroke-width="0.898547" stroke-miterlimit="10"/>
</g>
<defs>
<clipPath id="clip0_497_13856">
<rect width="55" height="55" fill="white" transform="translate(55 55) rotate(180)"/>
</clipPath>
</defs>
</svg>
