<svg viewBox="0 0 30 28" fill="none" xmlns="http://www.w3.org/2000/svg">
<path fill-rule="evenodd" clip-rule="evenodd" d="M7.21788 0.664064H12.1207C12.8235 0.66404 13.4299 0.664019 13.9293 0.704824C14.4564 0.747892 14.9807 0.84298 15.4852 1.10004C16.2379 1.48353 16.8498 2.09546 17.2333 2.8481C17.4904 3.35261 17.5854 3.8769 17.6285 4.40403C17.6693 4.90346 17.6693 5.50982 17.6693 6.2127V11.3307L22.7873 11.3307C23.4902 11.3307 24.0965 11.3307 24.596 11.3715C25.1231 11.4146 25.6474 11.5096 26.1519 11.7667C26.9046 12.1502 27.5165 12.7621 27.9 13.5148C28.157 14.0193 28.2521 14.5436 28.2952 15.0707C28.336 15.5701 28.336 16.1765 28.3359 16.8793V24.6641C29.0723 24.6641 29.6693 25.261 29.6693 25.9974C29.6693 26.7338 29.0723 27.3307 28.3359 27.3307H1.66927C0.932891 27.3307 0.335938 26.7338 0.335938 25.9974C0.335938 25.261 0.932891 24.6641 1.66927 24.6641V6.21267C1.66925 5.50981 1.66923 4.90346 1.71003 4.40403C1.7531 3.8769 1.84819 3.35261 2.10524 2.8481C2.48874 2.09545 3.10066 1.48353 3.85331 1.10004C4.35782 0.84298 4.88211 0.747892 5.40923 0.704824C5.90866 0.664019 6.51501 0.66404 7.21788 0.664064ZM4.33594 24.6641H15.0026V6.26406C15.0026 5.49533 15.0016 4.99896 14.9707 4.62118C14.9411 4.25896 14.8909 4.12467 14.8573 4.05874C14.7294 3.80786 14.5255 3.60389 14.2746 3.47606C14.2087 3.44247 14.0744 3.39223 13.7122 3.36263C13.3344 3.33177 12.838 3.33073 12.0693 3.33073H7.26927C6.50053 3.33073 6.00417 3.33177 5.62639 3.36263C5.26417 3.39223 5.12988 3.44247 5.06395 3.47606C4.81307 3.60389 4.60909 3.80786 4.48126 4.05874C4.44767 4.12467 4.39743 4.25896 4.36784 4.62118C4.33697 4.99896 4.33594 5.49533 4.33594 6.26406V24.6641ZM17.6693 13.9974V24.6641H25.6693V16.9307C25.6693 16.162 25.6682 15.6656 25.6374 15.2878C25.6078 14.9256 25.5575 14.7913 25.5239 14.7254C25.3961 14.4745 25.1921 14.2706 24.9413 14.1427C24.8753 14.1091 24.741 14.0589 24.3788 14.0293C24.001 13.9984 23.5047 13.9974 22.7359 13.9974H17.6693ZM6.33594 7.33073C6.33594 6.59435 6.93289 5.9974 7.66927 5.9974H11.6693C12.4057 5.9974 13.0026 6.59435 13.0026 7.33073C13.0026 8.06711 12.4057 8.66407 11.6693 8.66407H7.66927C6.93289 8.66407 6.33594 8.06711 6.33594 7.33073ZM6.33594 12.6641C6.33594 11.9277 6.93289 11.3307 7.66927 11.3307H11.6693C12.4057 11.3307 13.0026 11.9277 13.0026 12.6641C13.0026 13.4004 12.4057 13.9974 11.6693 13.9974H7.66927C6.93289 13.9974 6.33594 13.4004 6.33594 12.6641ZM6.33594 17.9974C6.33594 17.261 6.93289 16.6641 7.66927 16.6641H11.6693C12.4057 16.6641 13.0026 17.261 13.0026 17.9974C13.0026 18.7338 12.4057 19.3307 11.6693 19.3307H7.66927C6.93289 19.3307 6.33594 18.7338 6.33594 17.9974Z" fill="white"/>
</svg>
