<svg width="17" height="16" viewBox="0 0 17 16" fill="none" xmlns="http://www.w3.org/2000/svg">
<g id="linkedin">
<path id="LinkedIn" d="M3.20215 3.2684C3.20215 2.90074 3.324 2.59743 3.56768 2.35846C3.81137 2.11948 4.12817 2 4.51807 2C4.90101 2 5.21083 2.11764 5.44756 2.35294C5.69125 2.59559 5.8131 2.91177 5.8131 3.30148C5.8131 3.65443 5.69474 3.94854 5.45801 4.18385C5.21432 4.4265 4.89404 4.54782 4.49718 4.54782H4.48673C4.10379 4.54782 3.79397 4.4265 3.55724 4.18385C3.32051 3.9412 3.20215 3.63604 3.20215 3.2684ZM3.33792 12.9192V5.55151H5.65644V12.9192H3.33792ZM6.94103 12.9192H9.25955V8.80522C9.25955 8.54785 9.2874 8.34932 9.3431 8.20962C9.44057 7.95962 9.58853 7.74821 9.78696 7.57543C9.98539 7.40263 10.2343 7.31623 10.5337 7.31623C11.3135 7.31623 11.7034 7.87138 11.7034 8.98169V12.9192H14.0219V8.69492C14.0219 7.60667 13.7782 6.7813 13.2908 6.21879C12.8035 5.65629 12.1594 5.37504 11.3587 5.37504C10.4606 5.37504 9.76085 5.78313 9.25955 6.59931V6.62137H9.2491L9.25955 6.59931V5.55151H6.94103C6.95495 5.7868 6.96191 6.51842 6.96191 7.74638C6.96191 8.97433 6.95495 10.6986 6.94103 12.9192Z" fill="#323232"/>
</g>
</svg>
