<svg xmlns="http://www.w3.org/2000/svg" width="23" height="23" viewBox="0 0 23 23" fill="none">
  <g clip-path="url(#clip0_3328_1633)">
    <path d="M12.668 20.7919C10.1766 23.2277 6.17094 23.218 3.69352 20.7578C1.21681 18.2992 1.20705 14.3206 3.66019 11.8466L3.65813 11.8452L12.6694 2.8972L13.7963 1.77858C15.6627 -0.0746301 18.688 -0.0746301 20.5544 1.77858C22.4208 3.63178 22.4208 6.63622 20.5544 8.49015L10.6211 18.2513L10.6176 18.2485C9.39342 19.4205 7.4423 19.4122 6.23275 18.2173C5.0232 17.0216 5.01558 15.0941 6.20149 13.8859L6.198 13.8817L7.30408 12.7902L12.8346 7.32781L13.94 8.42072L7.30408 14.9746C6.69304 15.5773 6.69304 16.5557 7.30408 17.159C7.91513 17.7624 8.90592 17.7624 9.51625 17.159L19.428 7.3701L19.4252 7.36803L19.4628 7.33606C20.7071 6.1008 20.7071 4.09691 19.4628 2.86173C18.2185 1.62655 16.2021 1.62647 14.9578 2.86173L14.9245 2.89926L14.9224 2.89783L13.7962 4.01574L4.78437 12.9638C2.91799 14.817 2.91799 17.8215 4.78437 19.6747C6.65075 21.5279 9.67677 21.5279 11.5417 19.6747L19.4267 11.8452L20.553 10.7273L21.6792 11.8452L20.553 12.9638L12.6694 20.7933L12.668 20.7919Z" fill="white"/>
  </g>
  <defs>
    <clipPath id="clip0_3328_1633">
      <rect width="22.2222" height="22.2222" fill="white" transform="translate(0.777344 0.388672)"/>
    </clipPath>
  </defs>
</svg>