<svg viewBox="0 0 54 54" fill="none" xmlns="http://www.w3.org/2000/svg">
<g clip-path="url(#clip0_1851_6043)">
<path d="M27 54C12.1163 54 0 41.8838 0 27C0 12.1163 12.1163 0 27 0C41.8838 0 54 12.1163 54 27C54 41.8838 41.8838 54 27 54ZM27 3.375C13.9725 3.375 3.375 13.9725 3.375 27C3.375 40.0275 13.9725 50.625 27 50.625C40.0275 50.625 50.625 40.0275 50.625 27C50.625 13.9725 40.0275 3.375 27 3.375Z" />
<path d="M27.3361 35.0834C26.8973 35.0834 26.4755 34.9146 26.138 34.594L16.3842 24.8403C15.7261 24.1821 15.7261 23.119 16.3842 22.4609C17.0423 21.8028 18.1055 21.8028 18.7636 22.4609L27.3192 31.0165L35.8748 22.4609C36.533 21.8028 37.5961 21.8028 38.2542 22.4609C38.9123 23.119 38.9123 24.1821 38.2542 24.8403L28.5005 34.594C28.163 34.9315 27.7411 35.0834 27.3023 35.0834H27.3361Z" />
</g>
<defs>
<clipPath id="clip0_1851_6043">
<rect width="54" height="54" fill="white"/>
</clipPath>
</defs>
</svg>
