<svg viewBox="0 0 25 18" fill="none" xmlns="http://www.w3.org/2000/svg">
<path d="M24.902 2.088C24.6017 0.907412 23.3055 0 22.1302 0H2.83328C1.27117 0 0 1.29071 0 2.87682V15.1232C0 16.7093 1.27117 18 2.83328 18H22.1302C23.6923 18 24.9635 16.7093 24.9635 15.1232V5.06541C24.9635 4.18235 25.0532 3.23576 24.9531 2.36435C24.9426 2.27118 24.9249 2.17906 24.902 2.088ZM22.1302 1.30235C22.5515 1.30235 22.9321 1.47494 23.2116 1.75235L12.5678 8.29271L1.82385 1.69094C2.09602 1.45165 2.44536 1.30235 2.83328 1.30235H22.1302ZM22.1302 16.6976H2.83328C1.97818 16.6976 1.28264 15.9914 1.28264 15.1232V2.88L12.1496 9.55694C12.2529 9.62047 12.3676 9.65118 12.4812 9.65118C12.5104 9.65118 12.5386 9.64376 12.5678 9.63953C12.597 9.64376 12.6251 9.65118 12.6543 9.65118C12.767 9.65118 12.8817 9.62153 12.9859 9.55694L23.6809 2.98588V15.1232C23.6809 15.9914 22.9853 16.6976 22.1302 16.6976Z" fill="white"/>
</svg>
