<svg viewBox="0 0 24 23" fill="none" xmlns="http://www.w3.org/2000/svg">
<path fill-rule="evenodd" clip-rule="evenodd" d="M2.10547 11.5723C2.10547 7.57224 2.10547 5.5722 3.05866 4.13163C3.4843 3.48834 4.03521 2.93743 4.6785 2.51178C6.11908 1.55859 8.11912 1.55859 12.1192 1.55859C16.1193 1.55859 18.1193 1.55859 19.5599 2.51178C20.2032 2.93743 20.7541 3.48834 21.1798 4.13163C22.1329 5.5722 22.1329 7.57224 22.1329 11.5723C22.1329 15.5724 22.1329 17.5725 21.1798 19.013C20.7541 19.6563 20.2032 20.2072 19.5599 20.6329C18.1193 21.5861 16.1193 21.5861 12.1192 21.5861C8.11912 21.5861 6.11908 21.5861 4.6785 20.6329C4.03521 20.2072 3.4843 19.6563 3.05866 19.013C2.10547 17.5725 2.10547 15.5724 2.10547 11.5723ZM17.304 11.571C17.304 14.4341 14.983 16.7552 12.1198 16.7552C9.25661 16.7552 6.93555 14.4341 6.93555 11.571C6.93555 8.70778 9.25661 6.38672 12.1198 6.38672C14.983 6.38672 17.304 8.70778 17.304 11.571ZM12.1198 15.0012C14.0143 15.0012 15.55 13.4654 15.55 11.571C15.55 9.67647 14.0143 8.14069 12.1198 8.14069C10.2253 8.14069 8.68952 9.67647 8.68952 11.571C8.68952 13.4654 10.2253 15.0012 12.1198 15.0012ZM17.5072 7.34644C18.18 7.34644 18.7253 6.80106 18.7253 6.1283C18.7253 5.45554 18.18 4.91016 17.5072 4.91016C16.8344 4.91016 16.2891 5.45554 16.2891 6.1283C16.2891 6.80106 16.8344 7.34644 17.5072 7.34644Z" fill="white"/>
</svg>
