<svg viewBox="0 0 24 22" fill="none" xmlns="http://www.w3.org/2000/svg">
<path d="M0.992188 2.46182C0.992188 1.74824 1.24279 1.15954 1.74397 0.695733C2.24515 0.231904 2.89671 0 3.6986 0C4.48619 0 5.1234 0.228329 5.61028 0.685029C6.11146 1.15599 6.36206 1.76964 6.36206 2.52604C6.36206 3.21107 6.11863 3.78192 5.63176 4.23862C5.13058 4.70957 4.47186 4.94505 3.65564 4.94505H3.63416C2.84658 4.94505 2.20937 4.70957 1.72249 4.23862C1.23561 3.76766 0.992188 3.17539 0.992188 2.46182ZM1.27142 21.1931V6.8931H6.03987V21.1931H1.27142ZM8.68184 21.1931H13.4503V13.2082C13.4503 12.7087 13.5076 12.3234 13.6221 12.0522C13.8226 11.567 14.1269 11.1567 14.535 10.8213C14.9431 10.4859 15.455 10.3182 16.0708 10.3182C17.6746 10.3182 18.4765 11.3957 18.4765 13.5507V21.1931H23.2449V12.9941C23.2449 10.882 22.7438 9.28 21.7414 8.18824C20.739 7.09647 19.4144 6.55059 17.7677 6.55059C15.9204 6.55059 14.4813 7.34265 13.4503 8.92678V8.9696H13.4288L13.4503 8.92678V6.8931H8.68184C8.71048 7.34978 8.7248 8.76978 8.7248 11.1531C8.7248 13.5365 8.71048 16.8831 8.68184 21.1931Z" fill="white"/>
</svg>
