<svg  viewBox="0 0 19 19" fill="none" xmlns="http://www.w3.org/2000/svg">
<path d="M15.5623 12C14.9494 11.3945 14.1591 11.3945 13.5503 12C13.0619 12.4843 12.5562 12.9859 12.0669 13.4874C11.8976 13.6609 11.7511 13.6862 11.558 13.5766C11.4328 13.5087 11.3035 13.4449 11.1743 13.3811C10.9763 13.2837 10.7717 13.1831 10.5811 13.0644C9.24577 12.225 8.02174 11.1114 6.83944 9.66002C6.21924 8.8983 5.79132 8.21349 5.49268 7.50332C5.41086 7.30778 5.43786 7.16869 5.58596 7.0206C6.01551 6.60497 6.44343 6.17298 6.85744 5.75571L7.0579 5.55281C7.70837 4.89909 7.70673 4.14719 7.05381 3.4902C6.85908 3.29384 6.66516 3.09912 6.47043 2.90521C6.2757 2.71049 6.08179 2.51658 5.88705 2.3194L5.5025 1.93241C5.23086 1.65832 4.95921 1.38505 4.68348 1.11588C4.37747 0.818063 4.02974 0.660156 3.67709 0.660156C3.32445 0.660156 2.97508 0.818881 2.67071 1.11997C2.47025 1.31715 2.27306 1.51678 2.07588 1.71559C1.7846 2.00932 1.4835 2.31368 1.17667 2.60576C0.731572 3.02712 0.490202 3.5442 0.440292 4.18728C0.3732 5.06927 0.53684 5.97744 0.971304 7.13269C1.65532 8.97521 2.70262 10.7187 4.17211 12.4647C6.00733 14.6468 8.21565 16.3739 10.7349 17.5995C12.0898 18.2573 13.2394 18.592 14.3538 18.6533C15.2906 18.7082 16.0254 18.4332 16.5834 17.8073C16.8665 17.4907 17.1774 17.1888 17.4777 16.8967C17.6348 16.7445 17.7919 16.5915 17.9449 16.4369C18.5831 15.7906 18.5863 15.0239 17.9531 14.3866C17.1586 13.588 16.36 12.7936 15.5615 12H15.5623ZM17.2028 15.6997C17.053 15.8503 16.9 15.9992 16.747 16.1473C16.4296 16.4557 16.1088 16.7675 15.8028 17.1094C15.4878 17.4621 15.1237 17.6126 14.5829 17.6126C14.5264 17.6126 14.47 17.611 14.4102 17.6077C13.4276 17.5545 12.4351 17.2608 11.1914 16.657C8.80476 15.4968 6.7118 13.8589 4.97149 11.7897C3.57973 10.1378 2.59134 8.49331 1.94905 6.7637C1.57186 5.75899 1.42786 4.98827 1.48268 4.26828C1.51295 3.88374 1.63977 3.60475 1.89669 3.36257C2.20515 3.06966 2.50952 2.76285 2.80326 2.46586L2.8188 2.45031C3.01271 2.25477 3.20581 2.05841 3.40463 1.86368C3.50691 1.76305 3.60591 1.70578 3.67628 1.70578C3.74664 1.70578 3.84973 1.76468 3.95037 1.86286C4.21711 2.12386 4.48057 2.38977 4.74321 2.65403L5.14085 3.0533C5.31104 3.22512 5.48041 3.39448 5.64978 3.56466L5.73487 3.64975C5.92551 3.84038 6.11697 4.03183 6.31006 4.22656C6.56943 4.48755 6.54489 4.58082 6.31334 4.81482L6.10879 5.021C5.70541 5.42845 5.28813 5.8498 4.84385 6.28016C4.39629 6.7277 4.28093 7.32087 4.5272 7.90668C4.86512 8.71094 5.34131 9.47757 6.02697 10.3186C7.28372 11.8601 8.59202 13.0489 10.0271 13.9513C10.2603 14.0969 10.4984 14.2131 10.7087 14.317L10.73 14.3277C10.8396 14.3817 10.9484 14.4349 11.0409 14.4848C11.2757 14.6173 11.5204 14.6844 11.7683 14.6844C12.0383 14.6844 12.4392 14.6034 12.8156 14.2156C13.2811 13.7378 13.7491 13.2731 14.2458 12.7813L14.2875 12.7396C14.3873 12.6406 14.4872 12.5817 14.5551 12.5817C14.6083 12.5817 14.7073 12.6226 14.8243 12.7388L14.9069 12.8206C15.6768 13.5864 16.4467 14.3522 17.2118 15.1213C17.422 15.3332 17.4507 15.4461 17.2028 15.6973V15.6997Z" fill="white"/>
</svg>
