<svg viewBox="0 0 22 22" fill="none" xmlns="http://www.w3.org/2000/svg">
<path d="M10.7368 0.699219C4.93302 0.699219 0.228516 5.40373 0.228516 11.2075C0.228516 17.0112 4.93302 21.7157 10.7368 21.7157C16.5405 21.7157 21.245 17.0112 21.245 11.2075C21.245 5.40444 16.5405 0.699936 10.7368 0.699219ZM15.556 15.8546C15.3674 16.1644 14.9637 16.2612 14.6554 16.0726C12.188 14.5646 9.08183 14.2241 5.4242 15.0594C5.07141 15.1404 4.72006 14.9196 4.63975 14.5668C4.55873 14.214 4.77886 13.8627 5.13236 13.7824C9.13489 12.8681 12.5688 13.2618 15.3387 14.954C15.6471 15.144 15.7453 15.5463 15.556 15.8546ZM16.8416 12.9943C16.6043 13.3801 16.0995 13.5006 15.7145 13.2639C12.8907 11.528 8.5842 11.0253 5.2435 12.0392C4.81041 12.1704 4.35294 11.9259 4.221 11.4936C4.0905 11.0605 4.33501 10.6037 4.76739 10.4718C8.58348 9.31375 13.3281 9.87448 16.5713 11.8679C16.9571 12.1052 17.079 12.6093 16.8416 12.9943ZM16.9521 10.0143C13.5648 8.003 7.97758 7.81801 4.74373 8.79892C4.22459 8.95667 3.67533 8.6634 3.5183 8.14426C3.36127 7.62512 3.65382 7.07587 4.17368 6.91812C7.8858 5.79165 14.0559 6.00891 17.9552 8.32352C18.422 8.60102 18.5755 9.20405 18.2987 9.67012C18.0226 10.1376 17.4181 10.2918 16.9521 10.0143Z" fill="white"/>
</svg>
