<svg xmlns="http://www.w3.org/2000/svg" viewBox="0 0 42 42" fill="none">
  <path fill-rule="evenodd" clip-rule="evenodd" d="M3.83594 20.8319C3.83594 11.2879 11.5818 3.54199 21.1259 3.54199C30.6699 3.54199 38.4158 11.2879 38.4158 20.8319C38.4158 30.376 30.6699 38.1219 21.1259 38.1219C11.5818 38.1219 3.83594 30.376 3.83594 20.8319ZM7.29404 20.8321C7.29404 28.4569 13.5011 34.664 21.126 34.664C28.7509 34.664 34.958 28.4569 34.958 20.8321C34.958 13.2072 28.7509 7.00009 21.126 7.00009C13.5011 7.00009 7.29404 13.2072 7.29404 20.8321ZM28.5434 17.7025C27.8518 14.2273 24.8088 11.6165 21.1261 11.6165C18.2041 11.6165 15.6797 13.2763 14.4176 15.6969C11.3745 16.0081 9.02309 18.5843 9.02309 21.6965C9.02309 25.0335 11.7376 27.748 15.0746 27.748H28.1804C30.964 27.748 33.229 25.483 33.229 22.6993C33.229 20.0367 31.1542 17.8754 28.5434 17.7025ZM15.0747 24.2891H28.0421C28.9931 24.2891 29.7711 23.5111 29.7711 22.5601C29.7711 21.6092 28.9931 20.8311 28.0421 20.8311H25.6388L25.1547 18.376C24.7743 16.4568 23.0799 15.0736 21.1262 15.0736C19.5874 15.0736 18.1869 15.9208 17.478 17.2867L16.6308 19.1021H15.0747C13.6396 19.1021 12.4812 20.2606 12.4812 21.6956C12.4812 23.1307 13.6396 24.2891 15.0747 24.2891Z" fill="#E5FF2A"/>
</svg>