<svg viewBox="0 0 24 23" fill="none" xmlns="http://www.w3.org/2000/svg">
<path d="M15.4872 3.5329V3.5293H16.4263L16.7694 3.59783C16.9982 3.64232 17.2058 3.70062 17.3924 3.77276C17.5791 3.84489 17.7597 3.92906 17.9342 4.02523C18.1088 4.12141 18.2671 4.21941 18.4092 4.31919C18.55 4.41778 18.6765 4.52238 18.7884 4.63298C18.8992 4.74479 19.0719 4.77365 19.3067 4.71955C19.5415 4.66544 19.7943 4.5903 20.0652 4.49412C20.3361 4.39794 20.604 4.28974 20.8688 4.16951C21.1337 4.04927 21.295 3.97294 21.3528 3.94047C21.4094 3.90682 21.4395 3.88879 21.4431 3.88637L21.4467 3.88096L21.4648 3.87194L21.4828 3.86293L21.5009 3.85391L21.5189 3.84489L21.5225 3.83948L21.528 3.83588L21.5334 3.83227L21.537 3.82686L21.5551 3.82145L21.5731 3.81784L21.5695 3.84489L21.5641 3.87194L21.5551 3.899L21.546 3.92605L21.537 3.94408L21.528 3.96211L21.5189 3.98917C21.5129 4.0072 21.5069 4.03124 21.5009 4.0613C21.4949 4.09137 21.4377 4.21158 21.3293 4.42198C21.221 4.63239 21.0855 4.84578 20.923 5.06219C20.7605 5.2786 20.6148 5.4421 20.486 5.55272C20.356 5.66453 20.2699 5.74267 20.2277 5.78716C20.1856 5.83284 20.1344 5.87492 20.0742 5.9134L19.9839 5.97291L19.9659 5.98193L19.9478 5.99095L19.9442 5.99636L19.9388 5.99997L19.9334 6.00357L19.9297 6.00898L19.9117 6.018L19.8936 6.02702L19.89 6.03243L19.8846 6.03603L19.8792 6.03964L19.8756 6.04505L19.872 6.05046L19.8665 6.05407L19.8611 6.05767L19.8575 6.06309H19.9478L20.4535 5.95488C20.7906 5.88274 21.1126 5.79559 21.4196 5.69339L21.9072 5.53108L21.9614 5.51305L21.9885 5.50403L22.0065 5.49501L22.0246 5.48599L22.0426 5.47698L22.0607 5.46796L22.0968 5.46255L22.1329 5.45894V5.49501L22.1239 5.49862L22.1149 5.50403L22.1113 5.50944L22.1059 5.51305L22.1004 5.51665L22.0968 5.52206L22.0932 5.52747L22.0878 5.53108L22.0824 5.53469L22.0788 5.5401L22.0752 5.54551L22.0697 5.54911L22.0607 5.56715L22.0517 5.58518L22.0463 5.58879C22.0439 5.5924 21.9674 5.69458 21.8169 5.89537C21.6664 6.09735 21.5852 6.19953 21.5731 6.20195C21.5611 6.20555 21.5442 6.22359 21.5225 6.25605C21.5021 6.2897 21.3745 6.42377 21.1397 6.65821C20.9049 6.89265 20.675 7.10123 20.4499 7.28399C20.2235 7.46794 20.1091 7.69396 20.1067 7.96207C20.1031 8.22898 20.0893 8.53076 20.0652 8.86738C20.0411 9.20403 19.996 9.5677 19.9297 9.95845C19.8635 10.3492 19.7612 10.791 19.6227 11.284C19.4843 11.7769 19.3157 12.2578 19.1171 12.7267C18.9184 13.1956 18.7108 13.6164 18.494 13.9891C18.2773 14.3618 18.0787 14.6774 17.8981 14.9359C17.7175 15.1943 17.5339 15.4378 17.3473 15.6662C17.1607 15.8947 16.9247 16.152 16.6394 16.4381C16.3529 16.723 16.1964 16.8793 16.1699 16.907C16.1422 16.9334 16.0242 17.032 15.8159 17.2027C15.6088 17.3747 15.3861 17.5466 15.1477 17.7185C14.9105 17.8892 14.6926 18.0317 14.494 18.1459C14.2953 18.2601 14.0557 18.3906 13.7752 18.5373C13.4959 18.6851 13.1937 18.8222 12.8687 18.9484C12.5436 19.0747 12.2005 19.1919 11.8393 19.3001C11.4781 19.4083 11.129 19.4925 10.7919 19.5526C10.4548 19.6127 10.0725 19.6638 9.64512 19.7059L9.00402 19.769V19.778H7.83018V19.769L7.67668 19.76C7.57436 19.754 7.49008 19.7479 7.42386 19.7419C7.35765 19.7359 7.10782 19.7029 6.67441 19.6427C6.24099 19.5826 5.90088 19.5225 5.65407 19.4624C5.40727 19.4023 5.04006 19.2881 4.55247 19.1198C4.06487 18.9514 3.64771 18.7813 3.30098 18.6094C2.95545 18.4387 2.73875 18.3305 2.65085 18.2848C2.56417 18.2403 2.46665 18.185 2.3583 18.1189L2.19576 18.0197L2.19217 18.0143L2.18673 18.0107L2.18132 18.0071L2.1777 18.0016L2.15965 17.9926L2.14159 17.9836L2.13799 17.9782L2.13256 17.9746L2.12714 17.971L2.12353 17.9656L2.11993 17.9602L2.1145 17.9566H2.10547V17.9205L2.12353 17.9241L2.14159 17.9295L2.22285 17.9385C2.27703 17.9445 2.42452 17.9535 2.6653 17.9656C2.9061 17.9776 3.16192 17.9776 3.43281 17.9656C3.70369 17.9535 3.98061 17.9265 4.26352 17.8844C4.54645 17.8424 4.88055 17.7702 5.2658 17.668C5.65107 17.5658 6.00503 17.4444 6.32769 17.3037C6.64914 17.1619 6.87788 17.0561 7.01393 16.9863C7.14876 16.9178 7.35464 16.7904 7.63153 16.604L8.04689 16.3245L8.0505 16.3191L8.05592 16.3155L8.06136 16.3119L8.06495 16.3064L8.06856 16.301L8.07398 16.2974L8.07942 16.2938L8.08301 16.2884L8.10107 16.283L8.11913 16.2794L8.12274 16.2614L8.12816 16.2433L8.13359 16.2397L8.13719 16.2343L7.99271 16.2253C7.89641 16.2193 7.8031 16.2133 7.7128 16.2073C7.6225 16.2013 7.48105 16.1742 7.28841 16.1261C7.09579 16.078 6.88812 16.0059 6.66538 15.9097C6.44265 15.8135 6.22594 15.6993 6.01525 15.567C5.80457 15.4348 5.65226 15.3248 5.55836 15.237C5.46566 15.1504 5.34526 15.0278 5.19718 14.8691C5.0503 14.7092 4.92268 14.5451 4.81432 14.3768C4.70597 14.2085 4.60244 14.0143 4.50373 13.7943L4.35382 13.4661L4.34479 13.439L4.33576 13.412L4.33034 13.3939L4.32673 13.3759L4.35382 13.3795L4.38091 13.3849L4.57956 13.412C4.712 13.43 4.91968 13.436 5.20259 13.43C5.48552 13.424 5.68116 13.412 5.78951 13.3939C5.89787 13.3759 5.96409 13.3639 5.98816 13.3579L6.02428 13.3489L6.06943 13.3398L6.11457 13.3308L6.11819 13.3254L6.1236 13.3218L6.12904 13.3182L6.13263 13.3128L6.09652 13.3038L6.0604 13.2948L6.02428 13.2857L5.98816 13.2767L5.95204 13.2677C5.92797 13.2617 5.88584 13.2497 5.82563 13.2316C5.76544 13.2136 5.60291 13.1475 5.33804 13.0333C5.07318 12.919 4.86249 12.8078 4.70597 12.6996C4.54906 12.5911 4.39946 12.4724 4.25811 12.3444C4.11725 12.2145 3.96255 12.0474 3.79399 11.843C3.62544 11.6386 3.47496 11.4012 3.34251 11.1307C3.21009 10.8602 3.11076 10.6017 3.04454 10.3552C2.97858 10.1102 2.93507 9.85967 2.91453 9.60678L2.88201 9.22807L2.90007 9.23167L2.91813 9.23708L2.93618 9.2461L2.95424 9.25512L2.9723 9.26413L2.99036 9.27315L3.27028 9.39939C3.4569 9.48355 3.68865 9.55569 3.96555 9.6158C4.24247 9.67591 4.408 9.70898 4.46217 9.71499L4.54344 9.724H4.70597L4.70238 9.71859L4.69694 9.71499L4.69152 9.71138L4.68791 9.70597L4.68432 9.70056L4.67888 9.69695L4.67346 9.69335L4.66985 9.68794L4.65179 9.67892L4.63373 9.6699L4.63014 9.66449L4.6247 9.66088L4.61929 9.65728L4.61567 9.65187L4.59762 9.64285L4.57956 9.63383L4.57596 9.62842C4.57235 9.62601 4.52058 9.58754 4.42064 9.513C4.32191 9.43726 4.21838 9.33928 4.11002 9.21905C4.00167 9.09882 3.89331 8.97258 3.78496 8.84033C3.67641 8.70779 3.57972 8.56597 3.49601 8.41653C3.41175 8.26625 3.32265 8.07508 3.22874 7.84305C3.13604 7.61221 3.06561 7.37957 3.01745 7.14513C2.9693 6.91069 2.94222 6.67926 2.93618 6.45082C2.93017 6.22238 2.93618 6.02702 2.95424 5.86471C2.9723 5.7024 3.00842 5.51905 3.0626 5.31467C3.11677 5.11029 3.19504 4.89388 3.29737 4.66544L3.45087 4.3228L3.4599 4.29575L3.46893 4.26869L3.47436 4.26509L3.47796 4.25968L3.48157 4.25427L3.48699 4.25066L3.49242 4.25427L3.49601 4.25968L3.49963 4.26509L3.50504 4.26869L3.51048 4.2723L3.51407 4.27771L3.51769 4.28312L3.5231 4.28673L3.53213 4.30476L3.54116 4.3228L3.5466 4.3264L3.55019 4.33181L3.79399 4.60232C3.95652 4.78267 4.14916 4.98405 4.37188 5.20647C4.59462 5.42888 4.71802 5.5443 4.74209 5.55272C4.76618 5.56233 4.79627 5.58998 4.83238 5.63568C4.8685 5.68017 4.9889 5.78657 5.19356 5.95488C5.39825 6.12319 5.66612 6.31857 5.99719 6.54099C6.32829 6.7634 6.69548 6.98282 7.09879 7.19923C7.50212 7.41564 7.93554 7.611 8.39904 7.78534C8.86256 7.95968 9.18763 8.07388 9.37423 8.12799C9.56085 8.18209 9.87988 8.25121 10.3314 8.33538C10.7828 8.41954 11.123 8.47365 11.3517 8.49769C11.5805 8.52173 11.737 8.53556 11.8212 8.53916L11.9476 8.54277L11.9441 8.51572L11.9386 8.48867L11.9025 8.26324C11.8784 8.11297 11.8664 7.90256 11.8664 7.63205C11.8664 7.36154 11.8875 7.11207 11.9296 6.88364C11.9717 6.6552 12.0349 6.42377 12.1192 6.18932C12.2035 5.95488 12.286 5.76671 12.3666 5.62486C12.4485 5.48419 12.5556 5.32369 12.6881 5.14335C12.8205 4.96301 12.9921 4.77666 13.2027 4.58429C13.4134 4.39192 13.6542 4.2206 13.9251 4.07032C14.196 3.92004 14.4458 3.80581 14.6746 3.72767C14.9033 3.64953 15.0959 3.59842 15.2524 3.57438C15.409 3.55034 15.4872 3.53651 15.4872 3.5329Z" fill="white"/>
</svg>
