<svg  viewBox="0 0 20 21" fill="none" xmlns="http://www.w3.org/2000/svg">
<path fill-rule="evenodd" clip-rule="evenodd" d="M8.18893 3.78526C6.83941 3.78526 5.74541 4.87926 5.74541 6.22878C5.74541 7.5783 6.83941 8.6723 8.18893 8.6723C9.53845 8.6723 10.6324 7.5783 10.6324 6.22878C10.6324 4.87926 9.53845 3.78526 8.18893 3.78526ZM4.1164 6.22878C4.1164 3.97958 5.93973 2.15625 8.18893 2.15625C10.4381 2.15625 12.2615 3.97958 12.2615 6.22878C12.2615 8.47798 10.4381 10.3013 8.18893 10.3013C5.93973 10.3013 4.1164 8.47798 4.1164 6.22878ZM12.321 2.90197C12.4898 2.48499 12.9646 2.2838 13.3816 2.45258C14.8726 3.05612 15.9267 4.51837 15.9267 6.22878C15.9267 7.93919 14.8726 9.40144 13.3816 10.005C12.9646 10.1738 12.4898 9.97257 12.321 9.5556C12.1522 9.13862 12.3534 8.66377 12.7704 8.49498C13.6673 8.13189 14.2977 7.25297 14.2977 6.22878C14.2977 5.20459 13.6673 4.32567 12.7704 3.96258C12.3534 3.79379 12.1522 3.31894 12.321 2.90197ZM6.93824 11.9303H9.43962C10.1741 11.9303 10.7666 11.9303 11.2488 11.9632C11.7446 11.997 12.183 12.0684 12.5982 12.2403C13.5961 12.6537 14.3889 13.4465 14.8022 14.4444C14.9742 14.8595 15.0455 15.298 15.0793 15.7938C15.1122 16.276 15.1122 16.8684 15.1122 17.6029V17.6319C15.1122 18.0817 14.7476 18.4464 14.2977 18.4464C13.8479 18.4464 13.4832 18.0817 13.4832 17.6319C13.4832 16.8617 13.4828 16.3249 13.4541 15.9047C13.4259 15.4918 13.3733 15.2513 13.2972 15.0678C13.0492 14.469 12.5735 13.9933 11.9748 13.7453C11.7912 13.6693 11.5508 13.6166 11.1379 13.5884C10.7177 13.5598 10.1809 13.5593 9.41069 13.5593H6.96717C6.197 13.5593 5.66017 13.5598 5.23997 13.5884C4.82708 13.6166 4.58664 13.6693 4.40306 13.7453C3.80433 13.9933 3.32864 14.469 3.08064 15.0678C3.0046 15.2513 2.95192 15.4918 2.92375 15.9047C2.89508 16.3249 2.89464 16.8617 2.89464 17.6319C2.89464 18.0817 2.52997 18.4464 2.08013 18.4464C1.63029 18.4464 1.26563 18.0817 1.26563 17.6319L1.26563 17.6029C1.26562 16.8685 1.26562 16.276 1.29851 15.7938C1.33234 15.298 1.40367 14.8595 1.57563 14.4444C1.98897 13.4465 2.78178 12.6537 3.77967 12.2403C4.19482 12.0684 4.63325 11.997 5.12908 11.9632C5.61127 11.9303 6.20375 11.9303 6.93824 11.9303ZM15.1379 12.6445C15.2501 12.2088 15.6941 11.9465 16.1298 12.0587C17.8861 12.5107 19.1848 14.1041 19.1848 16.0029V17.6319C19.1848 18.0817 18.8201 18.4464 18.3703 18.4464C17.9204 18.4464 17.5558 18.0817 17.5558 17.6319V16.0029C17.5558 14.8654 16.7778 13.9076 15.7237 13.6363C15.2881 13.5241 15.0258 13.0801 15.1379 12.6445Z" fill="white"/>
</svg>
