<svg  viewBox="0 0 20 21" fill="none" xmlns="http://www.w3.org/2000/svg">
<path fill-rule="evenodd" clip-rule="evenodd" d="M4.5236 3.78282C4.07376 3.78282 3.70909 4.14749 3.70909 4.59733C3.70909 5.04717 4.07376 5.41183 4.5236 5.41183L15.9267 5.41183C17.2762 5.41183 18.3702 6.50584 18.3702 7.85535V16.0004C18.3702 17.3499 17.2762 18.4439 15.9267 18.4439H4.5236C3.17408 18.4439 2.08008 17.3499 2.08008 16.0004V4.59733C2.08008 3.24781 3.17408 2.15381 4.5236 2.15381H14.2977C14.7475 2.15381 15.1122 2.51848 15.1122 2.96831C15.1122 3.41815 14.7475 3.78282 14.2977 3.78282H4.5236ZM3.70909 6.9018V16.0004C3.70909 16.4503 4.07376 16.8149 4.5236 16.8149H15.9267C16.3765 16.8149 16.7412 16.4503 16.7412 16.0004V7.85535C16.7412 7.40551 16.3765 7.04085 15.9267 7.04085L4.5236 7.04085C4.238 7.04085 3.96385 6.99185 3.70909 6.9018ZM12.6687 11.9279C12.6687 11.2531 13.2157 10.7061 13.8904 10.7061C14.5652 10.7061 15.1122 11.2531 15.1122 11.9279C15.1122 12.6026 14.5652 13.1496 13.8904 13.1496C13.2157 13.1496 12.6687 12.6026 12.6687 11.9279Z" fill="white"/>
</svg>
