<svg viewBox="0 0 25 18" fill="none" xmlns="http://www.w3.org/2000/svg">
<path d="M13.0208 17.2974L8.20172 17.2073C6.64142 17.1759 5.07724 17.2386 3.54754 16.9134C1.22051 16.4276 1.05565 14.0456 0.883146 12.0476C0.645454 9.23859 0.737472 6.3786 1.18603 3.59305C1.43925 2.03006 2.43579 1.09742 3.97691 0.995927C9.17931 0.627607 14.4163 0.671257 19.6072 0.843091C20.1554 0.858844 20.7074 0.944942 21.248 1.04294C23.9164 1.52093 23.9814 4.22027 24.1544 6.4926C24.3269 8.78838 24.2541 11.0959 23.9244 13.3761C23.6598 15.264 23.1537 16.8472 21.0179 17C18.3419 17.1999 15.7273 17.3608 13.0437 17.3095C13.0438 17.2974 13.0284 17.2974 13.0208 17.2974ZM10.1876 12.5178C12.2042 11.3345 14.1824 10.171 16.1875 8.99569C14.1671 7.81245 12.1927 6.64892 10.1876 5.47361V12.5178Z" fill="white"/>
</svg>
