<svg width="96" height="97" viewBox="0 0 96 97" fill="none" xmlns="http://www.w3.org/2000/svg">
<path d="M61.9896 43.164L49.3433 39.2659C48.6634 39.0392 47.8928 39.0392 47.2129 39.2659L34.5666 43.164C33.5241 43.4813 33.5241 44.8865 34.5666 45.2037L36.7877 45.8837C36.2891 46.4729 36.0171 47.2435 35.9718 48.014C35.5185 48.286 35.2465 48.7393 35.2465 49.2379C35.2465 49.7365 35.4732 50.1444 35.8358 50.4164L34.7026 55.629C34.612 56.0823 34.9292 56.4902 35.3825 56.4902H37.9662C38.4194 56.4902 38.7367 56.0823 38.6461 55.629L37.5129 50.4164C37.8755 50.1444 38.1475 49.7365 38.1475 49.2379C38.1475 48.7393 37.8302 48.286 37.4222 48.0594C37.4676 47.3795 37.7849 46.7449 38.3741 46.3823L47.2129 49.1019C47.6209 49.2379 48.4368 49.3739 49.3433 49.1019L61.9896 45.2037C63.0321 44.8865 63.0321 43.4813 61.9896 43.164ZM49.7513 50.507C48.4821 50.8697 47.3489 50.6883 46.805 50.507L40.2325 48.4673L39.5979 53.5893C39.5979 55.2211 43.4508 56.4902 48.3008 56.4902C53.1055 56.4902 57.0036 55.2211 57.0036 53.5893L56.3237 48.4673L49.7513 50.507Z" fill="#0AFFEF"/>
<rect x="1.38984" y="1.67891" width="93.2206" height="93.6227" rx="46.4151" stroke="#0AFFEF" stroke-width="2.40078"/>
</svg>
