<svg width="250" height="207" viewBox="0 0 250 207" fill="none" xmlns="http://www.w3.org/2000/svg">
<path d="M122.199 92.2176V115.8C122.199 117.435 123.507 118.743 125.142 118.743C126.778 118.743 128.086 117.435 128.086 115.8V92.2176C128.086 90.5825 126.778 89.2744 125.142 89.2744C123.507 89.2744 122.199 90.5825 122.199 92.2176Z" fill="white"/>
<path opacity="0.26" d="M229.391 195.375C229.391 199.554 182.663 202.933 124.998 202.933C67.3333 202.933 20.6055 199.554 20.6055 195.375C20.6055 191.197 67.3333 187.817 124.998 187.817C182.663 187.817 229.391 191.197 229.391 195.375Z" fill="url(#paint0_radial_546_5470)"/>
<path d="M136.915 53.8834C136.915 47.3792 131.61 42.0742 125.106 42.0742C118.602 42.0742 113.297 47.3792 113.297 53.8834C113.297 60.3875 118.602 65.6925 125.106 65.6925C131.61 65.6925 136.915 60.3875 136.915 53.8834ZM125.142 59.7698C121.872 59.7698 119.256 57.1172 119.256 53.8834C119.256 50.6131 121.908 47.997 125.142 47.997C128.413 47.997 131.029 50.6495 131.029 53.8834C131.029 57.1172 128.376 59.7698 125.142 59.7698Z" fill="white"/>
<path d="M160.533 109.913V104.027C160.533 93.2351 156.391 88.1844 153.084 84.1148C150.577 81.0262 148.724 78.8097 148.724 74.5584V45.0538C148.724 32.1909 142.22 25.5415 142.147 25.4688L127.395 7.77326C126.85 7.08288 125.978 6.75586 125.142 6.75586C124.307 6.75586 123.434 7.08288 122.889 7.77326L108.282 25.2508C107.992 25.5415 101.524 32.1546 101.524 45.0174V74.5221C101.524 78.7734 99.7072 80.9899 97.1637 84.0784C93.8571 88.148 89.7148 93.1987 89.7148 103.99V109.913C89.7148 111.548 91.0229 112.856 92.658 112.856H101.524V115.8C101.524 117.435 102.832 118.743 104.467 118.743C106.102 118.743 107.41 117.435 107.41 115.8V112.856H113.297C114.932 112.856 116.24 111.548 116.24 109.913C116.24 108.278 114.932 106.97 113.297 106.97H95.6012V104.027C95.6012 95.3425 98.5808 91.7089 101.742 87.821C104.54 84.4054 107.41 80.8809 107.41 74.5221V45.0174C107.41 34.7344 112.243 29.6111 112.643 29.2114L125.142 14.241L137.787 29.3931C138.005 29.6111 142.838 34.7344 142.838 45.0174V74.5221C142.838 80.8809 145.708 84.4054 148.506 87.821C151.667 91.6726 154.647 95.3062 154.647 104.027V106.97H136.951C135.316 106.97 134.008 108.278 134.008 109.913C134.008 111.548 135.316 112.856 136.951 112.856H142.838V115.8C142.838 117.435 144.146 118.743 145.781 118.743C147.416 118.743 148.724 117.435 148.724 115.8V112.856H157.59C159.189 112.856 160.533 111.548 160.533 109.913Z" fill="white"/>
<path d="M197.127 43.4912L138.626 9.69887C137.318 8.93582 135.865 8.31811 134.375 7.77307L146.111 21.8714C147.165 22.9614 148.909 25.2143 150.472 28.5208L183.719 47.7061L191.931 52.4661C196.727 55.2276 200.324 61.4774 200.324 67.0004V107.006V134.585C200.324 137.456 199.343 140.508 197.744 143.16C196.255 145.631 194.22 147.775 191.931 149.119L187.788 151.517C187.316 150.064 186.553 148.72 185.536 147.557C183.501 145.159 180.703 143.814 177.905 143.814L176.597 143.851L176.779 142.906C177.396 139.418 176.197 137.129 175.107 135.82C173.581 133.967 171.219 132.877 168.821 132.877C167.622 132.877 166.459 133.168 165.515 133.713L164.461 134.331L164.352 133.095C164.061 129.716 161.409 126.954 158.465 126.954C156.503 126.954 154.686 128.226 153.378 130.479L152.615 131.823L151.998 130.406C149.926 125.646 146.329 123.067 141.933 123.067C136.991 123.067 131.759 126.373 129.76 130.77C128.343 133.858 128.779 136.983 130.996 139.563L131.65 140.362L130.741 140.798C130.705 140.798 127.507 142.434 127.507 152.317V169.504C128.234 167.287 129.215 165.361 130.559 163.799C132.921 161.037 136.228 159.511 139.825 159.511C139.934 159.511 140.079 159.511 140.188 159.511C140.806 154.315 143.749 152.353 145.53 151.699C147.056 151.118 148.727 151.009 150.362 151.336C153.887 146.43 151.671 142.87 150.508 141.561C148.328 139.054 144.803 138.11 142.478 139.418L141.715 138.073C144.658 136.438 149.018 137.528 151.671 140.58C154.432 143.742 154.468 147.884 151.925 151.772C153.233 152.244 154.432 152.971 155.413 153.988C157.085 155.66 157.811 157.767 157.557 159.947C161.082 157.949 164.86 157.731 168.167 159.366C169.184 159.875 170.093 160.529 170.856 161.328L169.439 162.128C168.821 161.583 168.203 161.11 167.44 160.747C164.134 159.075 160.355 159.62 156.758 162.309L154.614 163.908L155.595 161.401C156.794 158.276 155.304 156.096 154.287 155.078C152.179 152.971 148.691 152.135 146.002 153.189C143.568 154.097 142.042 156.423 141.642 159.693C146.802 160.456 150.726 164.235 150.726 168.813H149.163C149.163 164.562 144.948 161.11 139.752 161.11C136.628 161.11 133.757 162.455 131.686 164.853C129.179 167.796 127.834 172.302 127.798 177.934C128.27 180.368 129.251 182.367 130.814 183.784C130.887 183.856 130.959 183.893 131.032 183.965C129.215 184.619 127.144 184.983 125 184.983C123.619 184.983 122.275 184.801 120.967 184.547C121.294 184.329 121.621 184.074 121.912 183.784C123.438 182.367 124.419 180.368 124.927 177.934C124.891 172.302 123.547 167.796 121.04 164.853C118.968 162.418 116.098 161.11 112.973 161.11C107.777 161.11 103.562 164.562 103.562 168.813H102C102 164.271 105.924 160.456 111.084 159.693C110.684 156.423 109.158 154.134 106.723 153.189C104.034 152.172 100.582 152.971 98.4387 155.078C97.4212 156.096 95.9315 158.24 97.1306 161.401L98.1116 163.908L95.9678 162.309C92.4069 159.657 88.628 159.112 85.2851 160.747C84.1223 161.328 83.1413 162.164 82.3419 163.145L80.9975 162.346C81.9785 161.11 83.1776 160.056 84.6311 159.33C87.9013 157.695 91.6802 157.913 95.2411 159.911C94.9868 157.731 95.7135 155.623 97.3849 153.952C98.366 152.971 99.6014 152.208 100.873 151.735C98.3296 147.848 98.366 143.705 101.127 140.544C103.744 137.528 108.104 136.438 111.084 138.037L110.32 139.381C107.995 138.11 104.47 139.054 102.29 141.525C101.164 142.833 98.9474 146.394 102.436 151.299C104.071 151.009 105.778 151.081 107.268 151.663C109.049 152.353 111.956 154.279 112.61 159.475C112.719 159.475 112.864 159.475 112.973 159.475C116.57 159.475 119.84 161.001 122.239 163.763C123.583 165.325 124.6 167.251 125.291 169.467V152.281C125.291 142.397 122.093 140.762 122.057 140.762L121.149 140.326L121.803 139.527C124.019 136.947 124.455 133.822 123.038 130.733C121.04 126.337 115.771 123.03 110.866 123.03C106.433 123.03 102.872 125.646 100.8 130.37L100.183 131.787L99.4197 130.443C98.1116 128.154 96.3312 126.918 94.3327 126.918C91.3895 126.918 88.737 129.68 88.4463 133.059L88.3373 134.294L87.2836 133.677C86.3388 133.132 85.2124 132.841 83.977 132.841C81.5788 132.841 79.217 133.931 77.6909 135.784C76.6008 137.092 75.4018 139.381 76.0195 142.87L76.2011 143.814L74.8931 143.778C72.0952 143.778 69.2973 145.159 67.2625 147.521C65.9181 149.083 65.0461 150.9 64.6464 152.862L58.1423 149.083C55.7804 147.739 53.7093 145.522 52.2195 142.979C50.6934 140.362 49.7487 137.347 49.7487 134.549V108.06V67.0368C49.7487 61.5137 53.3459 55.264 58.1423 52.5024L66.5722 47.6334L100.001 28.3391C101.782 24.7056 103.707 22.4527 104.398 21.726L107.268 18.3105L116.098 7.66406C114.426 8.2091 112.864 8.89948 111.447 9.69887L52.9099 43.4912C44.916 48.1058 39.3203 57.8075 39.3203 67.0368V134.621C39.3203 143.851 44.916 153.552 52.9099 158.167L111.447 191.959C115.298 194.176 120.131 195.411 125.036 195.411C129.942 195.411 134.774 194.176 138.626 191.959L197.163 158.167C205.157 153.552 210.753 143.851 210.753 134.621V67.0368C210.716 57.7711 205.121 48.1058 197.127 43.4912ZM79.1443 150.754C82.3782 149.265 86.1208 149.519 88.8823 151.445L87.9739 152.717C85.6848 151.118 82.5599 150.9 79.7984 152.172C77.4729 153.262 75.9468 155.115 75.7288 157.222L74.1663 157.077C74.457 154.424 76.3102 152.063 79.1443 150.754ZM176.997 157.222C176.779 155.151 175.289 153.262 172.927 152.172C170.166 150.9 167.041 151.118 164.751 152.717L163.843 151.445C166.605 149.519 170.311 149.265 173.581 150.754C176.343 152.026 178.159 154.315 178.486 156.859L178.087 157.077L176.997 157.222Z" fill="white"/>
<defs>
<radialGradient id="paint0_radial_546_5470" cx="0" cy="0" r="1" gradientUnits="userSpaceOnUse" gradientTransform="translate(125.006 195.371) scale(104.422 7.53737)">
<stop offset="0.0049505"/>
<stop offset="0.0666033" stop-opacity="0.938"/>
<stop offset="1" stop-opacity="0"/>
</radialGradient>
</defs>
</svg>
