<svg width="96" height="97" viewBox="0 0 96 97" fill="none" xmlns="http://www.w3.org/2000/svg">
<path d="M39.245 57.3046C41.9193 60.0242 46.2707 60.0695 48.9903 57.3046L56.7866 49.327C57.0586 49.055 57.0586 48.6017 56.7413 48.3298L55.6988 47.2873C55.4268 47.0153 54.9735 47.0153 54.7016 47.2873L46.9053 55.2649C45.3642 56.8513 42.8712 56.8513 41.33 55.2649C39.7889 53.6784 39.7889 51.0494 41.3754 49.463L50.8941 39.7176C51.7553 38.8564 53.1605 38.8564 54.0217 39.7176C54.8829 40.6241 54.8829 42.1199 54.0217 43.0265L45.7268 51.5027C45.5455 51.684 45.2282 51.684 45.0015 51.5027C44.8202 51.2761 44.8202 50.8681 45.0469 50.6415L51.574 44.0237C51.846 43.7064 51.846 43.2531 51.5287 42.9812L50.5315 41.984C50.2142 41.6667 49.7609 41.712 49.4889 41.984L42.9618 48.6471C41.6473 49.9616 41.602 52.1373 42.9165 53.4971C44.231 54.9022 46.452 54.9022 47.8118 53.5424L56.1067 45.0662C58.1011 43.0265 58.0558 39.7176 56.1067 37.6779C54.067 35.6382 50.8034 35.6382 48.809 37.6779L39.2903 47.4232C36.616 50.1429 36.5707 54.5396 39.245 57.3046Z" fill="#0AFFEF"/>
<rect x="1.4875" y="1.63203" width="93.0234" height="93.6227" rx="46.4151" stroke="#0AFFEF" stroke-width="2.40078"/>
</svg>
