<svg width="96" height="97" viewBox="0 0 96 97" fill="none" xmlns="http://www.w3.org/2000/svg">
<path d="M51.7573 51.1653L47.4512 55.4714L43.0998 51.1653C39.8815 51.3013 37.2979 53.9756 37.2979 57.2392V57.6471C37.2979 58.8709 38.2497 59.8228 39.4736 59.8228H55.4288C56.6073 59.8228 57.6045 58.8709 57.6045 57.6471V57.2392C57.6045 53.9756 54.9755 51.3013 51.7573 51.1653ZM37.8871 40.2414L38.2044 40.3321V42.9611C37.8871 43.1424 37.6605 43.505 37.6605 43.8676C37.6605 44.2756 37.8418 44.5929 38.1591 44.7742L37.4338 47.5845C37.3432 47.9018 37.5245 48.219 37.7965 48.219H39.6549C39.9268 48.219 40.1082 47.9018 40.0175 47.5845L39.2923 44.7742C39.6096 44.5929 39.8362 44.2756 39.8362 43.8676C39.8362 43.505 39.6096 43.1424 39.2923 42.9611V40.6041L42.2839 41.284C41.8759 42.0999 41.6493 42.9611 41.6493 43.8676C41.6493 47.0859 44.2329 49.6695 47.4512 49.6695C50.6241 49.6695 53.2531 47.0859 53.2531 43.8676C53.2531 42.9611 52.9811 42.0999 52.6185 41.284L56.9699 40.2414C57.7858 40.0601 57.7858 39.0176 56.9699 38.8363L48.3124 36.7512C47.7231 36.6153 47.1339 36.6153 46.5446 36.7512L37.8871 38.8363C37.0712 39.0176 37.0712 40.0601 37.8871 40.2414Z" fill="#0AFFEF"/>
<rect x="1.48945" y="2.11055" width="93.0234" height="93.6227" rx="46.4151" stroke="#0AFFEF" stroke-width="2.40078"/>
</svg>
