<svg width="96" height="97" viewBox="0 0 96 97" fill="none" xmlns="http://www.w3.org/2000/svg">
<path d="M42.4989 47.764C45.2639 47.764 47.5755 45.4976 47.5755 42.6873C47.5755 39.9224 45.2639 37.6107 42.4989 37.6107C39.6886 37.6107 37.4222 39.9224 37.4222 42.6873C37.4222 45.4976 39.6886 47.764 42.4989 47.764ZM45.9438 49.2144H45.5811C44.6293 49.6677 43.5867 49.9397 42.4989 49.9397C41.3657 49.9397 40.3232 49.6677 39.3713 49.2144H39.0087C36.1078 49.2144 33.7961 51.5715 33.7961 54.4724V55.7416C33.7961 56.9654 34.7479 57.9173 35.9718 57.9173H49.026C50.2045 57.9173 51.2017 56.9654 51.2017 55.7416V54.4724C51.2017 51.5715 48.8447 49.2144 45.9438 49.2144ZM55.5531 47.764C57.9555 47.764 59.9046 45.8149 59.9046 43.4125C59.9046 41.0102 57.9555 39.0611 55.5531 39.0611C53.1508 39.0611 51.2017 41.0102 51.2017 43.4125C51.2017 45.8149 53.1508 47.764 55.5531 47.764ZM57.7288 49.2144H57.5475C56.913 49.4411 56.2331 49.5771 55.5531 49.5771C54.8279 49.5771 54.148 49.4411 53.5134 49.2144H53.3774C52.4256 49.2144 51.5643 49.4864 50.8391 49.9397C51.927 51.1182 52.6522 52.7046 52.6522 54.4724V56.1948C52.6522 56.2855 52.6069 56.3761 52.6069 56.4668H60.6298C61.8083 56.4668 62.8055 55.5149 62.8055 54.2911C62.8055 51.5261 60.4938 49.2144 57.7288 49.2144Z" fill="#0AFFEF"/>
<rect x="1.38984" y="1.65547" width="93.2206" height="93.6227" rx="46.4151" stroke="#0AFFEF" stroke-width="2.40078"/>
</svg>
