<svg xmlns="http://www.w3.org/2000/svg" viewBox="0 0 48 47" fill="none">
  <path fill-rule="evenodd" clip-rule="evenodd" d="M38.4233 23.4639C38.4233 24.1253 38.365 24.7477 38.2871 25.3701L42.3914 28.5796C42.7609 28.8714 42.8582 29.3965 42.6248 29.8245L38.7345 36.5546C38.5595 36.8658 38.2288 37.0409 37.8981 37.0409C37.7814 37.0409 37.6647 37.0214 37.548 36.9825L32.7046 35.0374C31.6932 35.796 30.6039 36.4573 29.4174 36.9436L28.6782 42.0982C28.6199 42.565 28.2114 42.9151 27.7251 42.9151H19.9446C19.4584 42.9151 19.0499 42.565 18.9915 42.0982L18.2524 36.9436C17.0659 36.4573 15.9766 35.8154 14.9651 35.0374L10.1218 36.9825C10.0245 37.0214 9.90782 37.0409 9.79111 37.0409C9.44099 37.0409 9.11032 36.8658 8.93526 36.5546L5.04501 29.8245C4.8116 29.3965 4.90886 28.8714 5.27843 28.5796L9.38264 25.3701C9.30483 24.7477 9.24648 24.1058 9.24648 23.4639C9.24648 22.822 9.30483 22.1801 9.38264 21.5577L5.27843 18.3482C4.90886 18.0565 4.79215 17.5313 5.04501 17.1034L8.93526 10.3732C9.11032 10.062 9.44099 9.88696 9.77166 9.88696C9.88837 9.88696 10.0051 9.90641 10.1218 9.94532L14.9651 11.8904C15.9766 11.1318 17.0659 10.4705 18.2524 9.98422L18.9915 4.82965C19.0499 4.36282 19.4584 4.0127 19.9446 4.0127H27.7251C28.2114 4.0127 28.6199 4.36282 28.6782 4.82965L29.4174 9.98422C30.6039 10.4705 31.6932 11.1124 32.7046 11.8904L37.548 9.94532C37.6453 9.90641 37.762 9.88696 37.8787 9.88696C38.2288 9.88696 38.5595 10.062 38.7345 10.3732L42.6248 17.1034C42.8582 17.5313 42.7609 18.0565 42.3914 18.3482L38.2871 21.5577C38.365 22.1801 38.4233 22.8026 38.4233 23.4639ZM34.5323 23.4639C34.5323 23.0554 34.5129 22.647 34.4351 22.044L34.1628 19.846L35.8939 18.4844L37.9752 16.831L36.6136 14.4775L34.1433 15.4695L32.0815 16.3059L30.3114 14.9443C29.5334 14.3607 28.7553 13.9134 27.9189 13.5632L25.8571 12.7268L25.5459 10.5289L25.1763 7.90294H22.4726L22.0836 10.5289L21.7723 12.7268L19.7105 13.5632C18.913 13.8939 18.1155 14.3607 17.2791 14.9832L15.5285 16.3059L13.5056 15.4889L11.0353 14.4969L9.67368 16.8505L11.7744 18.4844L13.5056 19.846L13.2333 22.044C13.1749 22.6275 13.136 23.0749 13.136 23.4639C13.136 23.8529 13.1749 24.3003 13.2333 24.9033L13.5056 27.1013L11.7744 28.4629L9.67368 30.0968L11.0353 32.4504L13.5056 31.4584L15.5674 30.622L17.3375 31.9835C18.1155 32.5671 18.8936 33.0145 19.73 33.3646L21.7918 34.201L22.103 36.399L22.4726 39.0249H25.1958L25.5848 36.399L25.896 34.201L27.9578 33.3646C28.7553 33.0339 29.5528 32.5671 30.3892 31.9446L32.1398 30.622L34.1628 31.4389L36.6331 32.4309L37.9947 30.0773L35.8939 28.4434L34.1628 27.0818L34.4351 24.8839C34.4934 24.3003 34.5323 23.8724 34.5323 23.4639ZM23.8346 15.6834C19.5359 15.6834 16.0541 19.1652 16.0541 23.4639C16.0541 27.7626 19.5359 31.2444 23.8346 31.2444C28.1333 31.2444 31.6151 27.7626 31.6151 23.4639C31.6151 19.1652 28.1333 15.6834 23.8346 15.6834ZM19.9443 23.4639C19.9443 25.6035 21.6949 27.3542 23.8346 27.3542C25.9742 27.3542 27.7248 25.6035 27.7248 23.4639C27.7248 21.3243 25.9742 19.5737 23.8346 19.5737C21.6949 19.5737 19.9443 21.3243 19.9443 23.4639Z" fill="#E5FF2A"/>
</svg>