<svg xmlns="http://www.w3.org/2000/svg" viewBox="0 0 28 28" fill="none">
  <path d="M14.0007 22.1663C18.511 22.1663 22.1673 18.51 22.1673 13.9997C22.1673 9.48935 18.511 5.83301 14.0007 5.83301C9.49033 5.83301 5.83398 9.48935 5.83398 13.9997C5.83398 18.51 9.49033 22.1663 14.0007 22.1663Z" stroke="#E5FF2A" stroke-width="2" stroke-linecap="round" stroke-linejoin="round"/>
  <path d="M14 10.5V14L15.75 15.75" stroke="#E5FF2A" stroke-width="2" stroke-linecap="round" stroke-linejoin="round"/>
  <path d="M19.2616 20.242L18.8532 24.7103C18.8007 25.2921 18.5318 25.833 18.0998 26.2261C17.6678 26.6192 17.104 26.836 16.5199 26.8337H11.4682C10.8841 26.836 10.3204 26.6192 9.88833 26.2261C9.45631 25.833 9.18746 25.2921 9.1349 24.7103L8.72656 20.242M8.73823 7.75868L9.14656 3.29034C9.19895 2.7106 9.46615 2.17138 9.8957 1.77852C10.3252 1.38567 10.8861 1.16756 11.4682 1.16701H16.5432C17.1273 1.16464 17.6911 1.38144 18.1231 1.77458C18.5551 2.16772 18.824 2.70859 18.8766 3.29034L19.2849 7.75868" stroke="#E5FF2A" stroke-width="2" stroke-linecap="round" stroke-linejoin="round"/>
</svg>