<svg xmlns="http://www.w3.org/2000/svg" viewBox="0 0 45 37" fill="none">
  <path fill-rule="evenodd" clip-rule="evenodd" d="M10.1677 7.7182C12.437 3.36112 16.9938 0.383789 22.2404 0.383789C28.8487 0.383789 34.3495 5.0858 35.584 11.3491C40.3041 11.6759 44.0258 15.5609 44.0258 20.3537C44.0258 25.3643 39.9592 29.4309 34.9486 29.4309H11.3478C5.33863 29.4309 0.455078 24.5474 0.455078 18.5383C0.455078 12.9285 4.70322 8.29914 10.1677 7.7182ZM32.0259 12.0571C31.1 7.39137 26.9971 4.01463 22.2407 4.01463C18.5008 4.01463 15.1241 6.08424 13.3994 9.40651L12.4917 11.1312L10.5492 11.3309C6.86381 11.7121 4.08618 14.8165 4.08618 18.5382C4.08618 22.5504 7.33583 25.8 11.348 25.8H34.9488C37.9443 25.8 40.3951 23.3491 40.3951 20.3537C40.3951 17.5397 38.1803 15.1615 35.3482 14.9799L32.5705 14.7802L32.0259 12.0571Z" fill="#E5FF2A"/>
</svg>