<svg xmlns="http://www.w3.org/2000/svg" viewBox="0 0 31 31" fill="none">
  <path fill-rule="evenodd" clip-rule="evenodd" d="M23.4239 14.9593H25.9435V0.456055L0.873047 25.5265H15.3638V23.0194H6.92756L23.4239 6.51056V14.9593ZM30.6689 25.9281L29.3276 24.8876C29.3527 24.6871 29.3778 24.4865 29.3778 24.2734C29.3778 24.0603 29.3652 23.8598 29.3276 23.6592L30.6564 22.6188C30.7692 22.5185 30.8068 22.3555 30.7316 22.2176L29.4781 20.0491C29.4028 19.9112 29.2399 19.861 29.0895 19.9112L27.5351 20.5379C27.2092 20.2872 26.8582 20.0741 26.4696 19.9237L26.2314 18.2691C26.2189 18.1186 26.081 18.0058 25.9306 18.0058H23.4235C23.2731 18.0058 23.1352 18.1186 23.1102 18.2691L22.872 19.9237C22.4959 20.0867 22.1324 20.2872 21.8065 20.5379L20.2521 19.9112C20.1142 19.861 19.9513 19.9112 19.8635 20.0491L18.61 22.2176C18.5348 22.3555 18.5599 22.5185 18.6852 22.6188L20.014 23.6592C19.9889 23.8598 19.9764 24.0603 19.9764 24.2734C19.9764 24.4865 19.9889 24.6871 20.014 24.8876L18.6852 25.9281C18.5724 26.0284 18.5348 26.1913 18.61 26.3292L19.8635 28.4978C19.9388 28.6357 20.1017 28.6858 20.2521 28.6357L21.8065 28.0089C22.1324 28.2596 22.4834 28.4727 22.872 28.6231L23.1102 30.2778C23.1352 30.4282 23.2606 30.541 23.4235 30.541H25.9306C26.081 30.541 26.2189 30.4282 26.244 30.2778L26.4821 28.6231C26.8582 28.4602 27.2217 28.2596 27.5351 28.0089L29.102 28.6357C29.2399 28.6858 29.4028 28.6357 29.4906 28.4978L30.7441 26.3292C30.8193 26.1913 30.7817 26.0284 30.6689 25.9281ZM22.7967 24.2728C22.7967 25.3132 23.6365 26.1531 24.677 26.1531C25.7174 26.1531 26.5573 25.3132 26.5573 24.2728C26.5573 23.2324 25.7174 22.3925 24.677 22.3925C23.6365 22.3925 22.7967 23.2324 22.7967 24.2728Z" fill="#E5FF2A"/>
</svg>