<svg xmlns="http://www.w3.org/2000/svg" viewBox="0 0 39 32" fill="none">
  <path fill-rule="evenodd" clip-rule="evenodd" d="M3.6867 0.0634766H35.0916C37.0108 0.0634766 38.581 1.63372 38.581 3.55291V24.4895C38.581 26.4087 37.0108 27.9789 35.0916 27.9789H26.368V31.4684H12.4103V27.9789H3.6867C1.76751 27.9789 0.197266 26.4087 0.197266 24.4895V3.55291C0.197266 1.63372 1.76751 0.0634766 3.6867 0.0634766ZM3.68633 24.4891H35.0912V3.55254H3.68633V24.4891ZM31.6029 8.78715H12.411V12.2766H31.6029V8.78715ZM12.411 15.7663H31.6029V19.2557H12.411V15.7663ZM10.6648 8.78715H7.17539V12.2766H10.6648V8.78715ZM7.17539 15.7663H10.6648V19.2557H7.17539V15.7663Z" fill="#E5FF2A"/>
</svg>