<svg xmlns="http://www.w3.org/2000/svg" viewBox="0 0 32 32" fill="none">
  <path fill-rule="evenodd" clip-rule="evenodd" d="M22.6121 6.89988H9.64468V9.49337H7.05119V4.30638C7.05119 2.87996 8.21826 1.71289 9.64468 1.71289L22.6121 1.72586C24.0386 1.72586 25.2056 2.87996 25.2056 4.30638V9.49337H22.6121V6.89988ZM26.5013 15.977L20.5492 21.9291L18.7208 20.0877L22.8315 15.977L18.7208 11.8663L20.5492 10.0249L26.5013 15.977ZM13.5344 20.0877L9.4237 15.977L13.5344 11.8663L11.706 10.0249L5.75391 15.977L11.706 21.9291L13.5344 20.0877ZM9.64468 25.054H22.6121V22.4605H25.2056V27.6475C25.2056 29.0739 24.0386 30.241 22.6121 30.241H9.64468C8.21826 30.241 7.05119 29.0739 7.05119 27.6475V22.4605H9.64468V25.054Z" fill="#E5FF2A"/>
</svg>