<svg xmlns="http://www.w3.org/2000/svg" viewBox="0 0 46 45" fill="none">
  <g clip-path="url(#clip0_2950_5262)">
    <path d="M37.2849 7.81191C36.8928 7.96873 32.6847 11.0094 32.554 11.2272C32.4669 11.3753 32.4059 11.6628 32.4059 11.9155C32.4059 12.3947 32.3013 12.2292 34.4011 15.2263C35.4117 16.6725 35.6295 16.9252 35.9519 17.082C36.8231 17.5002 37.7641 16.8904 37.7641 15.9146C37.7641 15.4964 37.7205 15.3918 37.1716 14.6077C36.8406 14.1372 36.5879 13.7277 36.614 13.7016C36.6925 13.6319 38.252 14.3986 38.8619 14.8081C39.6111 15.3134 40.8048 16.5331 41.3362 17.326C41.859 18.1275 42.3382 19.2253 42.6083 20.2534C42.7825 20.9155 42.8086 21.2553 42.8086 22.388C42.8086 23.5206 42.7825 23.8604 42.6083 24.5225C42.1552 26.2563 41.3972 27.5981 40.16 28.8439C38.8009 30.2205 37.3023 31.0221 35.3769 31.4054C34.3749 31.6145 32.3188 31.5448 31.3168 31.2747C30.4281 31.0395 28.8686 30.2728 28.128 29.7152C26.9083 28.783 25.8541 27.4412 25.2529 26.0559C24.7563 24.8885 24.5646 23.9911 24.4775 22.3096C24.3904 20.6716 24.1987 19.6087 23.7805 18.4238C22.3952 14.4857 18.8318 11.4799 14.6672 10.7567C13.6914 10.5825 11.6527 10.5825 10.6769 10.7567C6.45999 11.4973 2.93142 14.4857 1.5287 18.5283C-0.57102 24.5922 2.58291 31.2486 8.61198 33.4529L9.25671 33.6881L8.45516 34.2457C7.83657 34.6726 7.61875 34.8817 7.47935 35.178C7.06115 36.0405 7.67103 36.9814 8.65554 36.9814C9.09988 36.9814 9.13473 36.9553 11.3651 35.3958C12.7504 34.4287 13.6914 33.7142 13.7872 33.5574C13.8743 33.4006 13.9353 33.1218 13.9353 32.8604C13.9353 32.3812 14.0399 32.5468 11.9402 29.5497C10.9295 28.1034 10.7117 27.8507 10.3893 27.6939C9.51808 27.2757 8.57713 27.8856 8.57713 28.8614C8.57713 29.2796 8.62069 29.3841 9.16958 30.1683C9.50066 30.6387 9.75332 31.0482 9.72719 31.0744C9.64877 31.1441 8.08923 30.3774 7.47935 29.9679C6.73008 29.4625 5.53646 28.2428 5.005 27.4499C4.48224 26.6484 4.00306 25.5506 3.73297 24.5225C3.43674 23.3899 3.43674 21.386 3.73297 20.2534C4.28186 18.1363 5.46676 16.324 7.13085 15.0607C7.88013 14.4944 9.43096 13.7364 10.3632 13.4838C11.0079 13.3095 11.3129 13.2834 12.672 13.2834C14.5626 13.2834 15.1899 13.4228 16.6798 14.1546C18.2306 14.9213 19.4155 15.9407 20.339 17.326C21.3061 18.7984 21.7418 20.2534 21.8637 22.449C21.9596 24.2002 22.1164 25.0627 22.552 26.3086C23.9635 30.3164 27.4746 33.2873 31.674 34.0192C32.6673 34.1934 34.6799 34.1934 35.6818 34.0192C42.7651 32.782 47.1213 25.4983 44.8561 18.6851C44.2288 16.8032 43.3227 15.3657 41.8677 13.9542C40.5957 12.7171 39.1145 11.7848 37.6421 11.2882L37.0845 11.0965L37.8861 10.5302C38.4959 10.1033 38.7225 9.88549 38.8619 9.59798C39.1581 9.00553 38.9926 8.42179 38.4001 7.98616C38.1736 7.81191 37.5201 7.71607 37.2849 7.81191Z" fill="#E5FF2A"/>
    <path d="M6.09497 19.7917C5.92943 19.9747 5.92071 20.088 5.92071 22.3532C5.92071 25.3416 5.8423 25.1761 7.24502 25.1761C8.42121 25.1761 8.77842 25.0802 9.3186 24.5923C9.88491 24.087 10.1202 23.512 10.1724 22.5536C10.2421 21.2293 9.81521 20.3232 8.89169 19.844C8.45606 19.6175 8.36022 19.6001 7.34957 19.6001C6.35634 19.6001 6.2605 19.6175 6.09497 19.7917ZM8.43863 21.0899C8.73486 21.3687 8.88297 21.7956 8.88297 22.3881C8.88297 23.39 8.49962 23.8692 7.69807 23.8692H7.22759V22.3881V20.907H7.73292C8.1337 20.907 8.28181 20.9505 8.43863 21.0899Z" fill="#E5FF2A"/>
    <path d="M11.2691 19.7832C11.1122 19.9575 11.1035 20.1317 11.1035 22.397C11.1035 25.4464 10.9815 25.2198 12.6631 25.2198C14.0135 25.2198 14.1965 25.1414 14.1965 24.5664C14.1965 24.0785 14.0135 23.9652 13.151 23.9391L12.4104 23.913L12.3843 23.5122L12.3581 23.1114L13.029 23.0678C13.6302 23.0243 13.726 22.9981 13.909 22.789C14.1529 22.5015 14.1616 22.3011 13.9351 22.0136C13.7696 21.8045 13.6824 21.7871 13.0813 21.761L12.4104 21.7348L12.3843 21.3341L12.3581 20.9333L13.0987 20.8897C13.9874 20.8462 14.1965 20.7155 14.1965 20.2101C14.1965 19.6525 14.0571 19.6003 12.6543 19.6003C11.5217 19.6003 11.4259 19.6177 11.2691 19.7832Z" fill="#E5FF2A"/>
    <path d="M15.3128 19.7483C15.2431 19.8355 15.156 19.9749 15.1298 20.062C15.0514 20.2711 16.6022 24.7319 16.8375 24.9758C17.064 25.2285 17.6129 25.2459 17.8481 25.0107C18.005 24.8539 19.5122 20.4976 19.5122 20.2014C19.5122 19.9226 19.1637 19.6002 18.8675 19.6002C18.4406 19.6002 18.2663 19.8616 17.8133 21.2556C17.5868 21.9526 17.3777 22.5538 17.3515 22.5973C17.3254 22.6409 17.0901 22.0484 16.8201 21.2817C16.55 20.515 16.2799 19.818 16.2102 19.7396C16.0534 19.5479 15.487 19.5567 15.3128 19.7483Z" fill="#E5FF2A"/>
    <path d="M27.7619 19.7745C27.0997 20.0272 26.6118 20.489 26.2895 21.1511C26.0455 21.6477 26.002 21.822 26.002 22.3883C26.002 22.9546 26.0368 23.1289 26.2895 23.6342C26.8209 24.7058 27.7532 25.2286 28.9991 25.1589C30.062 25.0979 30.8723 24.5577 31.334 23.6255C31.5431 23.1986 31.578 23.0243 31.578 22.3883C31.578 21.822 31.5344 21.5519 31.395 21.247C31.1249 20.6632 30.637 20.1666 30.0359 19.8617C29.5741 19.6351 29.4086 19.6003 28.8422 19.6003C28.4066 19.609 28.032 19.6613 27.7619 19.7745ZM29.6874 21.1598C30.5063 21.7349 30.5063 23.0417 29.6874 23.6168C29.2692 23.9217 28.5199 23.9478 28.0494 23.6865C27.5528 23.4077 27.3088 22.9895 27.3088 22.3883C27.3175 21.7958 27.5266 21.4125 28.0058 21.1163C28.4676 20.8288 29.2604 20.8549 29.6874 21.1598Z" fill="#E5FF2A"/>
    <path d="M32.6771 19.8257C32.5029 20.0522 32.4941 20.1654 32.4941 22.3871C32.4941 24.6088 32.5029 24.7221 32.6771 24.9486C32.9036 25.2361 33.3654 25.2623 33.6268 25.0009C33.7749 24.8528 33.801 24.7134 33.801 24.0948V23.3717L34.3586 23.3281C35.0643 23.2671 35.5784 22.997 35.9356 22.4917C36.1708 22.1432 36.197 22.0473 36.197 21.4288C36.197 20.8102 36.1708 20.7143 35.9356 20.3745C35.7962 20.1742 35.5 19.9128 35.2909 19.7995C34.9511 19.6253 34.7855 19.5991 33.8794 19.5991C32.8775 19.5991 32.8514 19.6078 32.6771 19.8257ZM34.7768 21.0541C34.9336 21.1935 34.9859 21.5682 34.8639 21.7424C34.7507 21.9079 34.4283 22.0386 34.1147 22.0386H33.801V21.4723V20.906H34.2105C34.4632 20.906 34.6723 20.9583 34.7768 21.0541Z" fill="#E5FF2A"/>
    <path d="M38.3742 19.7653C37.7207 20.0615 37.2851 20.8282 37.4158 21.4555C37.5116 21.8999 37.8601 22.3616 38.2174 22.5185C38.4003 22.5969 38.8359 22.7885 39.1932 22.9367C39.9599 23.2677 40.0993 23.4246 39.8553 23.6947C39.5852 23.9909 38.8359 23.9125 38.3306 23.5378C37.8776 23.2068 37.7207 23.1893 37.4071 23.4594C36.9279 23.8776 37.1806 24.4352 38.0605 24.8883C38.5223 25.1322 38.6965 25.1758 39.2106 25.1758C40.169 25.1758 40.7875 24.8186 41.1273 24.0867C41.3277 23.6598 41.3364 23.3549 41.1535 22.9279C40.9357 22.3965 40.5523 22.0828 39.6985 21.7343C38.7488 21.3423 38.6007 21.2377 38.7662 21.046C38.9405 20.8282 39.5852 20.8718 40.0296 21.1245C40.4565 21.3771 40.7788 21.351 40.9879 21.0548C41.2929 20.6104 41.0228 20.0964 40.3171 19.774C39.8205 19.5475 38.8534 19.5388 38.3742 19.7653Z" fill="#E5FF2A"/>
  </g>
  <defs>
    <clipPath id="clip0_2950_5262">
      <rect width="44.6081" height="44.6081" fill="white" transform="translate(0.867188 0.0849609)"/>
    </clipPath>
  </defs>
</svg>