<svg xmlns="http://www.w3.org/2000/svg"  viewBox="0 0 39 39" fill="none">
  <path fill-rule="evenodd" clip-rule="evenodd" d="M19.6093 3.28027C13.4359 3.28027 8.41406 8.30215 8.41406 14.4755C8.41406 18.2819 10.3173 21.6245 13.212 23.6556V27.2701C13.212 28.1497 13.9317 28.8694 14.8114 28.8694H24.4073C25.2869 28.8694 26.0066 28.1497 26.0066 27.2701V23.6556C28.9014 21.6245 30.8046 18.2819 30.8046 14.4755C30.8046 8.30215 25.7827 3.28027 19.6093 3.28027ZM14.8107 33.6674C14.8107 34.547 15.5304 35.2667 16.41 35.2667H22.8073C23.6869 35.2667 24.4066 34.547 24.4066 33.6674V32.0681H14.8107V33.6674ZM22.8086 21.992L24.1681 21.0324C26.3272 19.5291 27.6066 17.0821 27.6066 14.4752C27.6066 10.0611 24.0241 6.47858 19.61 6.47858C15.1959 6.47858 11.6134 10.0611 11.6134 14.4752C11.6134 17.0821 12.8928 19.5291 15.0519 21.0324L16.4114 21.992V25.6705H22.8086V21.992Z" fill="#E5FF2A"/>
</svg>