<svg xmlns="http://www.w3.org/2000/svg"  viewBox="0 0 36 36" fill="none">
  <path d="M33.8557 11.9881C33.8557 13.6047 32.533 14.9274 30.9164 14.9274C30.6519 14.9274 30.402 14.898 30.1669 14.8245L24.9349 20.0418C25.0084 20.2769 25.0378 20.5415 25.0378 20.806C25.0378 22.4226 23.7151 23.7453 22.0985 23.7453C20.4819 23.7453 19.1592 22.4226 19.1592 20.806C19.1592 20.5415 19.1886 20.2769 19.2621 20.0418L15.5145 16.2942C15.2793 16.3677 15.0148 16.3971 14.7503 16.3971C14.4857 16.3971 14.2212 16.3677 13.986 16.2942L7.29915 22.9958C7.37264 23.2309 7.40203 23.4808 7.40203 23.7453C7.40203 25.3619 6.07935 26.6846 4.46273 26.6846C2.84612 26.6846 1.52344 25.3619 1.52344 23.7453C1.52344 22.1287 2.84612 20.806 4.46273 20.806C4.72727 20.806 4.97711 20.8354 5.21225 20.9089L11.9138 14.222C11.8404 13.9868 11.811 13.7223 11.811 13.4578C11.811 11.8412 13.1337 10.5185 14.7503 10.5185C16.3669 10.5185 17.6896 11.8412 17.6896 13.4578C17.6896 13.7223 17.6602 13.9868 17.5867 14.222L21.3343 17.9696C21.5694 17.8961 21.834 17.8667 22.0985 17.8667C22.363 17.8667 22.6276 17.8961 22.8627 17.9696L28.08 12.7376C28.0065 12.5025 27.9771 12.2527 27.9771 11.9881C27.9771 10.3715 29.2998 9.04883 30.9164 9.04883C32.533 9.04883 33.8557 10.3715 33.8557 11.9881Z" fill="#E5FF2A"/>
</svg>