<svg xmlns="http://www.w3.org/2000/svg" viewBox="0 0 33 33" fill="none">
  <path fill-rule="evenodd" clip-rule="evenodd" d="M7.44778 3.05774C7.44778 2.32076 6.84479 1.71777 6.1078 1.71777C5.37082 1.71777 4.76783 2.32076 4.76783 3.05774V8.41763H2.08789V21.8173C2.08789 23.5593 3.21347 25.0333 4.76783 25.5961V31.1971H7.44778V25.5961C9.00214 25.0333 10.1277 23.5593 10.1277 21.8173V8.41763H7.44778V3.05774ZM6.10917 23.1573C5.37219 23.1573 4.7692 22.5543 4.7692 21.8174V19.1374H7.44914V21.8174C7.44914 22.5543 6.84616 23.1573 6.10917 23.1573ZM4.7692 11.0974V16.4573H7.44914V11.0974H4.7692ZM18.1691 3.05774C18.1691 2.32076 17.5661 1.71777 16.8291 1.71777C16.0921 1.71777 15.4891 2.32076 15.4891 3.05774V8.41763H12.8092V21.8173C12.8092 23.5593 13.9348 25.0333 15.4891 25.5961V31.1971H18.1691V25.5961C19.7234 25.0333 20.849 23.5593 20.849 21.8173V8.41763H18.1691V3.05774ZM15.4865 21.8174C15.4865 22.5543 16.0895 23.1573 16.8265 23.1573C17.5635 23.1573 18.1665 22.5543 18.1665 21.8174V19.1374H15.4865V21.8174ZM15.4865 16.4573V11.0974H18.1665V16.4573H15.4865ZM28.8864 3.05774V8.41763H31.5664V21.8173C31.5664 23.5593 30.4408 25.0333 28.8864 25.5961V31.1971H26.2065V25.5961C24.6521 25.0333 23.5265 23.5593 23.5265 21.8173V8.41763H26.2065V3.05774C26.2065 2.32076 26.8095 1.71777 27.5464 1.71777C28.2834 1.71777 28.8864 2.32076 28.8864 3.05774ZM27.5478 23.1573C26.8108 23.1573 26.2078 22.5543 26.2078 21.8174V19.1374H28.8878V21.8174C28.8878 22.5543 28.2848 23.1573 27.5478 23.1573ZM26.2078 11.0974V16.4573H28.8878V11.0974H26.2078Z" fill="#E5FF2A"/>
</svg>